<?xml version="1.0" encoding="utf-8" standalone="no"?>
<!DOCTYPE svg PUBLIC "-//W3C//DTD SVG 1.1//EN"
  "http://www.w3.org/Graphics/SVG/1.1/DTD/svg11.dtd">
<!-- Created with matplotlib (http://matplotlib.org/) -->
<svg height="1080pt" version="1.1" viewBox="0 0 720 1080" width="720pt" xmlns="http://www.w3.org/2000/svg" xmlns:xlink="http://www.w3.org/1999/xlink">
 <defs>
  <style type="text/css">
*{stroke-linecap:butt;stroke-linejoin:round;}
  </style>
 </defs>
 <g id="figure_1">
  <g id="patch_1">
   <path d="
M0 1080
L720 1080
L720 0
L0 0
z
" style="fill:#ffffff;"/>
  </g>
  <g id="axes_1">
   <g id="patch_2">
    <path d="
M90 500.727
L648 500.727
L648 108
L90 108
z
" style="fill:#eaeaf2;"/>
   </g>
   <g id="matplotlib.axis_1">
    <g id="xtick_1">
     <g id="line2d_1">
      <path clip-path="url(#p1d596a7909)" d="
M90 500.727
L90 108" style="fill:none;stroke:#ffffff;stroke-linecap:round;"/>
     </g>
     <g id="line2d_2">
      <defs>
       <path d="
M0 0
L0 0" id="m219da94a98" style="stroke:#262626;"/>
      </defs>
      <g>
       <use style="fill:#262626;stroke:#262626;" x="90.0" xlink:href="#m219da94a98" y="500.727272727"/>
      </g>
     </g>
     <g id="line2d_3">
      <g>
       <use style="fill:#262626;stroke:#262626;" x="90.0" xlink:href="#m219da94a98" y="108.0"/>
      </g>
     </g>
     <g id="text_1">
      <!-- 0.0 -->
      <defs>
       <path d="
M9.125 0
L9.125 10.6875
L18.6562 10.6875
L18.6562 0
z
" id="LiberationSans-2e"/>
       <path d="
M51.7031 34.4219
Q51.7031 24.5156 49.8281 17.75
Q47.9531 10.9844 44.7031 6.8125
Q41.4531 2.64062 37.0625 0.828125
Q32.6719 -0.984375 27.6875 -0.984375
Q22.6562 -0.984375 18.3125 0.828125
Q13.9688 2.64062 10.7656 6.78125
Q7.5625 10.9375 5.73438 17.7031
Q3.90625 24.4688 3.90625 34.4219
Q3.90625 44.8281 5.73438 51.6406
Q7.5625 58.4531 10.7812 62.5
Q14.0156 66.5469 18.4062 68.1875
Q22.7969 69.8281 27.9844 69.8281
Q32.9062 69.8281 37.2188 68.1875
Q41.5469 66.5469 44.7656 62.5
Q48 58.4531 49.8438 51.6406
Q51.7031 44.8281 51.7031 34.4219
M42.7812 34.4219
Q42.7812 42.625 41.7969 48.0625
Q40.8281 53.5156 38.9219 56.7656
Q37.0156 60.0156 34.25 61.3594
Q31.5 62.7031 27.9844 62.7031
Q24.2656 62.7031 21.4375 61.3281
Q18.6094 59.9688 16.6719 56.7188
Q14.75 53.4688 13.7656 48.0156
Q12.7969 42.5781 12.7969 34.4219
Q12.7969 26.5156 13.7969 21.0938
Q14.7969 15.6719 16.7188 12.375
Q18.6562 9.07812 21.4375 7.64062
Q24.2188 6.20312 27.7812 6.20312
Q31.25 6.20312 34.0312 7.64062
Q36.8125 9.07812 38.7344 12.375
Q40.6719 15.6719 41.7188 21.0938
Q42.7812 26.5156 42.7812 34.4219" id="LiberationSans-30"/>
      </defs>
      <g style="fill:#262626;" transform="translate(80.816875 517.872897727)scale(0.14 -0.14)">
       <use xlink:href="#LiberationSans-30"/>
       <use x="55.615234375" xlink:href="#LiberationSans-2e"/>
       <use x="83.3984375" xlink:href="#LiberationSans-30"/>
      </g>
     </g>
    </g>
    <g id="xtick_2">
     <g id="line2d_4">
      <path clip-path="url(#p1d596a7909)" d="
M201.6 500.727
L201.6 108" style="fill:none;stroke:#ffffff;stroke-linecap:round;"/>
     </g>
     <g id="line2d_5">
      <g>
       <use style="fill:#262626;stroke:#262626;" x="201.6" xlink:href="#m219da94a98" y="500.727272727"/>
      </g>
     </g>
     <g id="line2d_6">
      <g>
       <use style="fill:#262626;stroke:#262626;" x="201.6" xlink:href="#m219da94a98" y="108.0"/>
      </g>
     </g>
     <g id="text_2">
      <!-- 0.2 -->
      <defs>
       <path d="
M5.03125 0
L5.03125 6.20312
Q7.51562 11.9219 11.1094 16.2812
Q14.7031 20.6562 18.6562 24.1875
Q22.6094 27.7344 26.4844 30.7656
Q30.375 33.7969 33.5 36.8125
Q36.625 39.8438 38.5469 43.1562
Q40.4844 46.4844 40.4844 50.6875
Q40.4844 53.6094 39.5938 55.8281
Q38.7188 58.0625 37.0625 59.5625
Q35.4062 61.0781 33.0781 61.8281
Q30.7656 62.5938 27.9375 62.5938
Q25.2969 62.5938 22.9688 61.8594
Q20.6562 61.1406 18.8438 59.6719
Q17.0469 58.2031 15.8906 56.0312
Q14.75 53.8594 14.4062 50.9844
L5.42188 51.8125
Q5.85938 55.5156 7.46875 58.7812
Q9.07812 62.0625 11.9062 64.5312
Q14.75 67 18.7188 68.4062
Q22.7031 69.8281 27.9375 69.8281
Q33.0625 69.8281 37.0625 68.6094
Q41.0625 67.3906 43.8125 64.9844
Q46.5781 62.5938 48.0469 59.0781
Q49.5156 55.5625 49.5156 50.9844
Q49.5156 47.5156 48.2656 44.3906
Q47.0156 41.2656 44.9375 38.4219
Q42.875 35.5938 40.1406 32.9531
Q37.4062 30.3281 34.4219 27.8125
Q31.4531 25.2969 28.4219 22.8281
Q25.3906 20.3594 22.7188 17.8594
Q20.0625 15.375 17.9688 12.8125
Q15.875 10.25 14.7031 7.46875
L50.5938 7.46875
L50.5938 0
z
" id="LiberationSans-32"/>
      </defs>
      <g style="fill:#262626;" transform="translate(192.49453125 517.872897727)scale(0.14 -0.14)">
       <use xlink:href="#LiberationSans-30"/>
       <use x="55.615234375" xlink:href="#LiberationSans-2e"/>
       <use x="83.3984375" xlink:href="#LiberationSans-32"/>
      </g>
     </g>
    </g>
    <g id="xtick_3">
     <g id="line2d_7">
      <path clip-path="url(#p1d596a7909)" d="
M313.2 500.727
L313.2 108" style="fill:none;stroke:#ffffff;stroke-linecap:round;"/>
     </g>
     <g id="line2d_8">
      <g>
       <use style="fill:#262626;stroke:#262626;" x="313.2" xlink:href="#m219da94a98" y="500.727272727"/>
      </g>
     </g>
     <g id="line2d_9">
      <g>
       <use style="fill:#262626;stroke:#262626;" x="313.2" xlink:href="#m219da94a98" y="108.0"/>
      </g>
     </g>
     <g id="text_3">
      <!-- 0.4 -->
      <defs>
       <path d="
M43.0156 15.5781
L43.0156 0
L34.7188 0
L34.7188 15.5781
L2.29688 15.5781
L2.29688 22.4062
L33.7969 68.7969
L43.0156 68.7969
L43.0156 22.5156
L52.6875 22.5156
L52.6875 15.5781
z

M34.7188 58.8906
Q34.625 58.6406 34.2344 57.9375
Q33.8438 57.2344 33.3438 56.3438
Q32.8594 55.4688 32.3438 54.5625
Q31.8438 53.6562 31.4531 53.0781
L13.8125 27.0938
Q13.5781 26.7031 13.1094 26.0625
Q12.6406 25.4375 12.1562 24.7812
Q11.6719 24.125 11.1719 23.4844
Q10.6875 22.8594 10.4062 22.5156
L34.7188 22.5156
z
" id="LiberationSans-34"/>
      </defs>
      <g style="fill:#262626;" transform="translate(303.94796875 517.872897727)scale(0.14 -0.14)">
       <use xlink:href="#LiberationSans-30"/>
       <use x="55.615234375" xlink:href="#LiberationSans-2e"/>
       <use x="83.3984375" xlink:href="#LiberationSans-34"/>
      </g>
     </g>
    </g>
    <g id="xtick_4">
     <g id="line2d_10">
      <path clip-path="url(#p1d596a7909)" d="
M424.8 500.727
L424.8 108" style="fill:none;stroke:#ffffff;stroke-linecap:round;"/>
     </g>
     <g id="line2d_11">
      <g>
       <use style="fill:#262626;stroke:#262626;" x="424.8" xlink:href="#m219da94a98" y="500.727272727"/>
      </g>
     </g>
     <g id="line2d_12">
      <g>
       <use style="fill:#262626;stroke:#262626;" x="424.8" xlink:href="#m219da94a98" y="108.0"/>
      </g>
     </g>
     <g id="text_4">
      <!-- 0.6 -->
      <defs>
       <path d="
M51.2188 22.5156
Q51.2188 17.3281 49.7812 13
Q48.3438 8.6875 45.5312 5.57812
Q42.7188 2.48438 38.5625 0.75
Q34.4219 -0.984375 29 -0.984375
Q23 -0.984375 18.5 1.3125
Q14.0156 3.60938 11.0312 7.92188
Q8.0625 12.25 6.5625 18.5312
Q5.07812 24.8125 5.07812 32.8125
Q5.07812 42 6.76562 48.9219
Q8.45312 55.8594 11.625 60.5
Q14.7969 65.1406 19.3594 67.4844
Q23.9219 69.8281 29.6875 69.8281
Q33.2031 69.8281 36.2812 69.0938
Q39.3594 68.3594 41.875 66.7188
Q44.3906 65.0938 46.2812 62.4062
Q48.1875 59.7188 49.3125 55.8125
L40.9219 54.2969
Q39.5469 58.7344 36.5469 60.7188
Q33.5469 62.7031 29.5938 62.7031
Q25.9844 62.7031 23.0469 60.9844
Q20.125 59.2812 18.0625 55.875
Q16.0156 52.4844 14.9062 47.3594
Q13.8125 42.2344 13.8125 35.4062
Q16.2188 39.8438 20.5625 42.1562
Q24.9062 44.4844 30.5156 44.4844
Q35.2031 44.4844 39.0156 42.9688
Q42.8281 41.4531 45.5312 38.5938
Q48.25 35.75 49.7344 31.6719
Q51.2188 27.5938 51.2188 22.5156
M42.2812 22.125
Q42.2812 25.6875 41.4062 28.5625
Q40.5312 31.4531 38.7656 33.4688
Q37.0156 35.5 34.4219 36.5938
Q31.8438 37.7031 28.4219 37.7031
Q26.0312 37.7031 23.5781 36.9844
Q21.1406 36.2812 19.1562 34.6875
Q17.1875 33.1094 15.9375 30.5156
Q14.7031 27.9375 14.7031 24.2188
Q14.7031 20.4062 15.6719 17.1094
Q16.6562 13.8125 18.4844 11.375
Q20.3125 8.9375 22.8906 7.51562
Q25.4844 6.10938 28.7188 6.10938
Q31.8906 6.10938 34.4062 7.20312
Q36.9219 8.29688 38.6719 10.375
Q40.4375 12.4531 41.3594 15.4219
Q42.2812 18.4062 42.2812 22.125" id="LiberationSans-36"/>
      </defs>
      <g style="fill:#262626;" transform="translate(415.65078125 517.872897727)scale(0.14 -0.14)">
       <use xlink:href="#LiberationSans-30"/>
       <use x="55.615234375" xlink:href="#LiberationSans-2e"/>
       <use x="83.3984375" xlink:href="#LiberationSans-36"/>
      </g>
     </g>
    </g>
    <g id="xtick_5">
     <g id="line2d_13">
      <path clip-path="url(#p1d596a7909)" d="
M536.4 500.727
L536.4 108" style="fill:none;stroke:#ffffff;stroke-linecap:round;"/>
     </g>
     <g id="line2d_14">
      <g>
       <use style="fill:#262626;stroke:#262626;" x="536.4" xlink:href="#m219da94a98" y="500.727272727"/>
      </g>
     </g>
     <g id="line2d_15">
      <g>
       <use style="fill:#262626;stroke:#262626;" x="536.4" xlink:href="#m219da94a98" y="108.0"/>
      </g>
     </g>
     <g id="text_5">
      <!-- 0.8 -->
      <defs>
       <path d="
M51.2656 19.1875
Q51.2656 14.7969 49.875 11.1094
Q48.4844 7.42188 45.625 4.73438
Q42.7812 2.04688 38.3281 0.53125
Q33.8906 -0.984375 27.8281 -0.984375
Q21.7812 -0.984375 17.3594 0.53125
Q12.9375 2.04688 10.0312 4.70312
Q7.125 7.375 5.73438 11.0625
Q4.34375 14.75 4.34375 19.0938
Q4.34375 22.8594 5.48438 25.7812
Q6.64062 28.7188 8.5625 30.8281
Q10.5 32.9531 12.9688 34.25
Q15.4375 35.5469 18.0625 35.9844
L18.0625 36.1875
Q15.1875 36.8594 12.9062 38.375
Q10.6406 39.8906 9.09375 42.0156
Q7.5625 44.1406 6.75 46.7188
Q5.95312 49.3125 5.95312 52.2031
Q5.95312 55.8125 7.34375 59
Q8.73438 62.2031 11.4688 64.625
Q14.2031 67.0469 18.25 68.4375
Q22.3125 69.8281 27.6406 69.8281
Q33.25 69.8281 37.375 68.4062
Q41.5 67 44.2031 64.5781
Q46.9219 62.1562 48.2344 58.9375
Q49.5625 55.7188 49.5625 52.0938
Q49.5625 49.2656 48.75 46.6719
Q47.9531 44.0938 46.4062 41.9688
Q44.875 39.8438 42.5938 38.3438
Q40.3281 36.8594 37.3594 36.2812
L37.3594 36.0781
Q40.3281 35.5938 42.8594 34.2969
Q45.4062 33.0156 47.2656 30.8906
Q49.125 28.7656 50.1875 25.8281
Q51.2656 22.9062 51.2656 19.1875
M40.4375 51.6094
Q40.4375 54.2031 39.7656 56.3438
Q39.1094 58.5 37.5938 60.0312
Q36.0781 61.5781 33.6406 62.4219
Q31.2031 63.2812 27.6406 63.2812
Q24.1719 63.2812 21.7812 62.4219
Q19.3906 61.5781 17.8438 60.0312
Q16.3125 58.5 15.625 56.3438
Q14.9375 54.2031 14.9375 51.6094
Q14.9375 49.5625 15.4688 47.4062
Q16.0156 45.2656 17.4219 43.5
Q18.8438 41.75 21.3281 40.625
Q23.8281 39.5 27.7344 39.5
Q31.8906 39.5 34.4062 40.625
Q36.9219 41.75 38.25 43.5
Q39.5938 45.2656 40.0156 47.4062
Q40.4375 49.5625 40.4375 51.6094
M42.1406 20.0156
Q42.1406 22.5156 41.4531 24.8281
Q40.7656 27.1562 39.1094 28.9375
Q37.4531 30.7188 34.6406 31.8125
Q31.8438 32.9062 27.6406 32.9062
Q23.7812 32.9062 21.0625 31.8125
Q18.3594 30.7188 16.6719 28.9062
Q14.9844 27.0938 14.2031 24.7188
Q13.4219 22.3594 13.4219 19.8281
Q13.4219 16.6562 14.2031 14.0312
Q14.9844 11.4219 16.6875 9.54688
Q18.4062 7.67188 21.1875 6.64062
Q23.9688 5.60938 27.9375 5.60938
Q31.9375 5.60938 34.6719 6.64062
Q37.4062 7.67188 39.0625 9.54688
Q40.7188 11.4219 41.4219 14.0781
Q42.1406 16.75 42.1406 20.0156" id="LiberationSans-38"/>
      </defs>
      <g style="fill:#262626;" transform="translate(527.2475 517.872897727)scale(0.14 -0.14)">
       <use xlink:href="#LiberationSans-30"/>
       <use x="55.615234375" xlink:href="#LiberationSans-2e"/>
       <use x="83.3984375" xlink:href="#LiberationSans-38"/>
      </g>
     </g>
    </g>
    <g id="xtick_6">
     <g id="line2d_16">
      <path clip-path="url(#p1d596a7909)" d="
M648 500.727
L648 108" style="fill:none;stroke:#ffffff;stroke-linecap:round;"/>
     </g>
     <g id="line2d_17">
      <g>
       <use style="fill:#262626;stroke:#262626;" x="648.0" xlink:href="#m219da94a98" y="500.727272727"/>
      </g>
     </g>
     <g id="line2d_18">
      <g>
       <use style="fill:#262626;stroke:#262626;" x="648.0" xlink:href="#m219da94a98" y="108.0"/>
      </g>
     </g>
     <g id="text_6">
      <!-- 1.0 -->
      <defs>
       <path d="
M7.625 0
L7.625 7.46875
L25.1406 7.46875
L25.1406 60.4062
L9.625 49.3125
L9.625 57.625
L25.875 68.7969
L33.9844 68.7969
L33.9844 7.46875
L50.7344 7.46875
L50.7344 0
z
" id="LiberationSans-31"/>
      </defs>
      <g style="fill:#262626;" transform="translate(639.0771875 517.872897727)scale(0.14 -0.14)">
       <use xlink:href="#LiberationSans-31"/>
       <use x="55.615234375" xlink:href="#LiberationSans-2e"/>
       <use x="83.3984375" xlink:href="#LiberationSans-30"/>
      </g>
     </g>
    </g>
    <g id="text_7">
     <!-- Relative position of IGHV SHM in read -->
     <defs>
      <path d="
M46.3906 14.5938
Q46.3906 10.8906 44.9375 7.98438
Q43.5 5.07812 40.7656 3.09375
Q38.0312 1.125 34.0469 0.0625
Q30.0781 -0.984375 24.9531 -0.984375
Q20.3594 -0.984375 16.6719 -0.265625
Q12.9844 0.4375 10.2031 2
Q7.42188 3.5625 5.53125 6.125
Q3.65625 8.6875 2.78125 12.4062
L10.5469 13.9219
Q11.6719 9.67188 15.1875 7.6875
Q18.7031 5.71875 24.9531 5.71875
Q27.7812 5.71875 30.1406 6.10938
Q32.5156 6.5 34.2188 7.45312
Q35.9375 8.40625 36.8906 9.98438
Q37.8438 11.5781 37.8438 13.9219
Q37.8438 16.3125 36.7188 17.8438
Q35.5938 19.3906 33.5938 20.4062
Q31.5938 21.4375 28.7344 22.1875
Q25.875 22.9531 22.4688 23.875
Q19.2812 24.7031 16.1562 25.7344
Q13.0312 26.7656 10.5156 28.4375
Q8.01562 30.125 6.45312 32.6094
Q4.89062 35.1094 4.89062 38.875
Q4.89062 46.0938 10.0312 49.875
Q15.1875 53.6562 25.0469 53.6562
Q33.7969 53.6562 38.9375 50.5781
Q44.0938 47.5156 45.4531 40.7188
L37.5469 39.75
Q37.1094 41.7969 35.9375 43.1875
Q34.7656 44.5781 33.1094 45.4375
Q31.4531 46.2969 29.375 46.6562
Q27.2969 47.0156 25.0469 47.0156
Q19.0938 47.0156 16.25 45.2031
Q13.4219 43.4062 13.4219 39.75
Q13.4219 37.5938 14.4688 36.2031
Q15.5312 34.8125 17.4062 33.8594
Q19.2812 32.9062 21.9219 32.2031
Q24.5625 31.5 27.7344 30.7188
Q29.8281 30.1719 32.0312 29.5625
Q34.2344 28.9531 36.2969 28.0938
Q38.375 27.25 40.2031 26.0938
Q42.0469 24.9531 43.4062 23.3438
Q44.7812 21.7344 45.5781 19.5781
Q46.3906 17.4375 46.3906 14.5938" id="LiberationSans-73"/>
      <path d="
M13.4844 24.5625
Q13.4844 20.4062 14.3281 16.9062
Q15.1875 13.4219 16.9688 10.9062
Q18.75 8.40625 21.5312 7
Q24.3125 5.60938 28.2188 5.60938
Q33.9375 5.60938 37.375 7.90625
Q40.8281 10.2031 42.0469 13.7188
L49.75 11.5312
Q48.9219 9.32812 47.4375 7.10938
Q45.9531 4.89062 43.4531 3.09375
Q40.9688 1.3125 37.2344 0.15625
Q33.5 -0.984375 28.2188 -0.984375
Q16.5 -0.984375 10.375 6
Q4.25 12.9844 4.25 26.7656
Q4.25 34.1875 6.09375 39.3281
Q7.95312 44.4844 11.1719 47.7031
Q14.4062 50.9219 18.7031 52.3594
Q23 53.8125 27.875 53.8125
Q34.5156 53.8125 38.9844 51.6562
Q43.4531 49.5156 46.1562 45.7188
Q48.875 41.9375 50.0156 36.8125
Q51.1719 31.6875 51.1719 25.7344
L51.1719 24.5625
z

M42.0938 31.2969
Q41.3594 39.6562 37.8438 43.4844
Q34.3281 47.3125 27.7344 47.3125
Q25.5312 47.3125 23.1094 46.6094
Q20.7031 45.9062 18.6562 44.0938
Q16.6094 42.2812 15.1875 39.1719
Q13.7656 36.0781 13.5781 31.2969
z
" id="LiberationSans-65"/>
      <path d="
M17.625 46.4375
L17.625 0
L8.84375 0
L8.84375 46.4375
L1.42188 46.4375
L1.42188 52.8281
L8.84375 52.8281
L8.84375 58.7969
Q8.84375 61.6719 9.375 64.1406
Q9.90625 66.6094 11.3438 68.4375
Q12.7969 70.2656 15.2812 71.3125
Q17.7812 72.3594 21.7344 72.3594
Q23.2969 72.3594 24.9688 72.2188
Q26.6562 72.0781 27.9375 71.7812
L27.9375 65.0938
Q27.0938 65.2344 26 65.3594
Q24.9062 65.4844 24.0312 65.4844
Q22.0781 65.4844 20.8281 64.9375
Q19.5781 64.4062 18.875 63.4062
Q18.1719 62.4062 17.8906 60.9375
Q17.625 59.4688 17.625 57.5625
L17.625 52.8281
L27.9375 52.8281
L27.9375 46.4375
z
" id="LiberationSans-66"/>
      <path d="
M51.4219 26.6562
Q51.4219 20.6562 50.4375 15.5781
Q49.4688 10.5 47.1875 6.82812
Q44.9219 3.17188 41.1875 1.09375
Q37.4531 -0.984375 31.9844 -0.984375
Q26.3125 -0.984375 22.0625 1.17188
Q17.8281 3.32812 15.5781 8.20312
L15.3281 8.20312
Q15.375 8.10938 15.4062 7.32812
Q15.4375 6.54688 15.4531 5.375
Q15.4844 4.20312 15.5 2.75
Q15.5312 1.3125 15.5312 -0.09375
L15.5312 -20.75
L6.73438 -20.75
L6.73438 42.0469
Q6.73438 43.9531 6.70312 45.7031
Q6.6875 47.4688 6.64062 48.9062
Q6.59375 50.3438 6.54688 51.3594
Q6.5 52.3906 6.45312 52.8281
L14.9375 52.8281
Q14.9844 52.6875 15.0625 51.7969
Q15.1406 50.9219 15.2031 49.6719
Q15.2812 48.4375 15.3594 47.0156
Q15.4375 45.6094 15.4375 44.3438
L15.625 44.3438
Q16.8438 46.875 18.4062 48.6562
Q19.9688 50.4375 21.9688 51.5781
Q23.9688 52.7344 26.4375 53.25
Q28.9062 53.7656 31.9844 53.7656
Q37.4531 53.7656 41.1875 51.8125
Q44.9219 49.8594 47.1875 46.3125
Q49.4688 42.7812 50.4375 37.7656
Q51.4219 32.7656 51.4219 26.6562
M42.1875 26.4688
Q42.1875 31.3438 41.5938 35.1562
Q41.0156 38.9688 39.5781 41.5938
Q38.1406 44.2344 35.7344 45.5938
Q33.3438 46.9688 29.7344 46.9688
Q26.8125 46.9688 24.2188 46.1406
Q21.625 45.3125 19.7031 42.9688
Q17.7812 40.625 16.6562 36.5
Q15.5312 32.375 15.5312 25.7812
Q15.5312 20.1719 16.4531 16.2812
Q17.3906 12.4062 19.1719 10.0156
Q20.9531 7.625 23.5781 6.5625
Q26.2188 5.51562 29.6406 5.51562
Q33.2969 5.51562 35.7188 6.92188
Q38.1406 8.34375 39.5781 11.0312
Q41.0156 13.7188 41.5938 17.5938
Q42.1875 21.4844 42.1875 26.4688" id="LiberationSans-70"/>
      <path d="
M40.0938 8.5
Q37.6406 3.42188 33.6094 1.21875
Q29.5938 -0.984375 23.6406 -0.984375
Q13.625 -0.984375 8.90625 5.75
Q4.20312 12.5 4.20312 26.1719
Q4.20312 53.8125 23.6406 53.8125
Q29.6406 53.8125 33.6406 51.6094
Q37.6406 49.4219 40.0938 44.625
L40.1875 44.625
Q40.1875 45.125 40.1562 46.1719
Q40.1406 47.2188 40.1094 48.3594
Q40.0938 49.5156 40.0938 50.5312
Q40.0938 51.5625 40.0938 52
L40.0938 72.4688
L48.875 72.4688
L48.875 10.8906
Q48.875 8.98438 48.8906 7.21875
Q48.9219 5.46875 48.9688 4
Q49.0312 2.54688 49.0781 1.48438
Q49.125 0.4375 49.1719 0
L40.7656 0
Q40.6719 0.484375 40.5938 1.39062
Q40.5312 2.29688 40.4531 3.46875
Q40.375 4.64062 40.3281 5.9375
Q40.2812 7.23438 40.2812 8.5
z

M13.4219 26.4688
Q13.4219 21 14.1094 17.0938
Q14.7969 13.1875 16.3125 10.6719
Q17.8281 8.15625 20.1719 6.98438
Q22.5156 5.8125 25.875 5.8125
Q29.3438 5.8125 32 6.9375
Q34.6719 8.0625 36.4531 10.5781
Q38.2344 13.0938 39.1562 17.1406
Q40.0938 21.1875 40.0938 27.0469
Q40.0938 32.6719 39.1562 36.5469
Q38.2344 40.4375 36.4219 42.8281
Q34.625 45.2188 32 46.2656
Q29.3906 47.3125 25.9844 47.3125
Q22.75 47.3125 20.4062 46.1875
Q18.0625 45.0625 16.5 42.5781
Q14.9375 40.0938 14.1719 36.1094
Q13.4219 32.125 13.4219 26.4688" id="LiberationSans-64"/>
      <path d="
M20.2188 -0.984375
Q12.25 -0.984375 8.25 3.21875
Q4.25 7.42188 4.25 14.75
Q4.25 19.9688 6.21875 23.3125
Q8.20312 26.6562 11.3906 28.5625
Q14.5938 30.4688 18.6875 31.2031
Q22.7969 31.9375 27.0469 32.0312
L38.9219 32.2344
L38.9219 35.1094
Q38.9219 38.375 38.2344 40.6719
Q37.5469 42.9688 36.125 44.375
Q34.7188 45.7969 32.5938 46.4531
Q30.4688 47.125 27.5938 47.125
Q25.0469 47.125 23 46.75
Q20.9531 46.3906 19.4375 45.4375
Q17.9219 44.4844 16.9844 42.8438
Q16.0625 41.2188 15.7656 38.7188
L6.59375 39.5469
Q7.07812 42.6719 8.4375 45.2812
Q9.8125 47.9062 12.3281 49.7969
Q14.8438 51.7031 18.625 52.75
Q22.4062 53.8125 27.7812 53.8125
Q37.75 53.8125 42.7656 49.2344
Q47.7969 44.6719 47.7969 36.0312
L47.7969 13.2812
Q47.7969 9.375 48.8281 7.39062
Q49.8594 5.42188 52.7344 5.42188
Q53.4688 5.42188 54.2031 5.51562
Q54.9375 5.60938 55.6094 5.76562
L55.6094 0.296875
Q53.9531 -0.09375 52.3125 -0.28125
Q50.6875 -0.484375 48.8281 -0.484375
Q46.3438 -0.484375 44.5625 0.171875
Q42.7812 0.828125 41.6562 2.17188
Q40.5312 3.51562 39.9375 5.48438
Q39.3594 7.46875 39.2031 10.1094
L38.9219 10.1094
Q37.5 7.5625 35.8125 5.51562
Q34.125 3.46875 31.875 2.03125
Q29.6406 0.59375 26.7812 -0.1875
Q23.9219 -0.984375 20.2188 -0.984375
M22.2188 5.60938
Q26.4219 5.60938 29.5625 7.14062
Q32.7188 8.6875 34.7812 11.0781
Q36.8594 13.4844 37.8906 16.3125
Q38.9219 19.1406 38.9219 21.7344
L38.9219 26.0781
L29.2969 25.875
Q26.0781 25.8281 23.1719 25.4062
Q20.2656 25 18.0625 23.7812
Q15.875 22.5625 14.5781 20.3594
Q13.2812 18.1719 13.2812 14.5938
Q13.2812 10.2969 15.5938 7.95312
Q17.9219 5.60938 22.2188 5.60938" id="LiberationSans-61"/>
      <path d="
M27.0469 0.390625
Q25.0469 -0.140625 22.9688 -0.453125
Q20.9062 -0.78125 18.1719 -0.78125
Q7.625 -0.78125 7.625 11.1875
L7.625 46.4375
L1.51562 46.4375
L1.51562 52.8281
L7.95312 52.8281
L10.5469 64.6562
L16.4062 64.6562
L16.4062 52.8281
L26.1719 52.8281
L26.1719 46.4375
L16.4062 46.4375
L16.4062 13.0938
Q16.4062 9.28125 17.6406 7.73438
Q18.8906 6.20312 21.9688 6.20312
Q23.25 6.20312 24.4375 6.39062
Q25.6406 6.59375 27.0469 6.89062
z
" id="LiberationSans-74"/>
      <path d="
M38.1875 0
L28.5156 0
L0.4375 68.7969
L10.25 68.7969
L29.2969 20.3594
Q30.0312 18.1719 30.7656 15.9844
Q31.5 13.8125 32.0781 12.1094
Q32.7656 10.1094 33.4062 8.20312
Q33.9844 10.0156 34.6719 12.0156
Q35.25 13.7188 35.9531 15.8594
Q36.6719 18.0156 37.5 20.3594
L56.4531 68.7969
L66.2656 68.7969
z
" id="LiberationSans-56"/>
      <path d="
M66.7031 0
L66.7031 45.9062
Q66.7031 48.3906 66.75 50.9688
Q66.7969 53.5625 66.8906 55.7188
Q67 58.2031 67.1406 60.5469
Q66.4531 58.0625 65.7188 55.6094
Q65.0938 53.5156 64.3281 51.1406
Q63.5781 48.7812 62.8438 46.875
L45.0625 0
L38.5312 0
L20.5156 46.875
Q20.2188 47.6094 19.8906 48.5781
Q19.5781 49.5625 19.2031 50.6562
Q18.8438 51.7656 18.4688 52.9062
Q18.1094 54.0469 17.7812 55.1719
Q16.9375 57.7656 16.1562 60.5469
Q16.2188 57.8125 16.3125 55.125
Q16.4062 52.8281 16.4531 50.3125
Q16.5 47.7969 16.5 45.9062
L16.5 0
L8.20312 0
L8.20312 68.7969
L20.4531 68.7969
L38.7656 21.0938
Q39.1094 20.125 39.5938 18.5781
Q40.0938 17.0469 40.5312 15.4219
Q40.9688 13.8125 41.3281 12.375
Q41.7031 10.9375 41.8438 10.1562
Q42 10.9375 42.3906 12.4062
Q42.7812 13.875 43.2812 15.4844
Q43.7969 17.0938 44.2812 18.6094
Q44.7812 20.125 45.1719 21.0938
L63.1406 68.7969
L75.0938 68.7969
L75.0938 0
z
" id="LiberationSans-4d"/>
      <path d="
M9.23438 0
L9.23438 68.7969
L18.5625 68.7969
L18.5625 0
z
" id="LiberationSans-49"/>
      <path d="
M6.6875 64.0625
L6.6875 72.4688
L15.4844 72.4688
L15.4844 64.0625
z

M6.6875 0
L6.6875 52.8281
L15.4844 52.8281
L15.4844 0
z
" id="LiberationSans-69"/>
      <path d="
M6.9375 0
L6.9375 40.5312
Q6.9375 42.1875 6.90625 43.9219
Q6.89062 45.6562 6.82812 47.2656
Q6.78125 48.875 6.73438 50.2812
Q6.6875 51.7031 6.64062 52.8281
L14.9375 52.8281
Q14.9844 51.7031 15.0625 50.2656
Q15.1406 48.8281 15.2031 47.3125
Q15.2812 45.7969 15.2969 44.4062
Q15.3281 43.0156 15.3281 42.0469
L15.5312 42.0469
Q16.4531 45.0625 17.5 47.2812
Q18.5625 49.5156 19.9688 50.9531
Q21.3906 52.3906 23.3438 53.0938
Q25.2969 53.8125 28.0781 53.8125
Q29.1562 53.8125 30.125 53.6406
Q31.1094 53.4688 31.6406 53.3281
L31.6406 45.2656
Q30.7656 45.5156 29.5938 45.625
Q28.4219 45.75 26.9531 45.75
Q23.9219 45.75 21.7969 44.375
Q19.6719 43.0156 18.3281 40.5938
Q17 38.1875 16.3594 34.8438
Q15.7188 31.5 15.7188 27.5469
L15.7188 0
z
" id="LiberationSans-72"/>
      <path d="
M40.2812 0
L40.2812 33.5
Q40.2812 37.3594 39.7188 39.9375
Q39.1562 42.5312 37.8906 44.1094
Q36.625 45.7031 34.5469 46.3594
Q32.4688 47.0156 29.3906 47.0156
Q26.2656 47.0156 23.75 45.9219
Q21.2344 44.8281 19.4531 42.75
Q17.6719 40.6719 16.6875 37.625
Q15.7188 34.5781 15.7188 30.6094
L15.7188 0
L6.9375 0
L6.9375 41.5469
Q6.9375 43.2188 6.90625 45.0469
Q6.89062 46.875 6.82812 48.5
Q6.78125 50.1406 6.73438 51.3125
Q6.6875 52.4844 6.64062 52.8281
L14.9375 52.8281
Q14.9844 52.5938 15.0312 51.5156
Q15.0938 50.4375 15.1562 49.0469
Q15.2344 47.6562 15.2812 46.2188
Q15.3281 44.7812 15.3281 43.7969
L15.4844 43.7969
Q16.75 46.0938 18.2656 47.9531
Q19.7812 49.8125 21.7812 51.0938
Q23.7812 52.3906 26.3594 53.0938
Q28.9531 53.8125 32.375 53.8125
Q36.7656 53.8125 39.9375 52.7344
Q43.1094 51.6562 45.1562 49.4062
Q47.2188 47.1719 48.1719 43.625
Q49.125 40.0938 49.125 35.2031
L49.125 0
z
" id="LiberationSans-6e"/>
      <path d="
M51.4219 26.4688
Q51.4219 12.5938 45.3125 5.79688
Q39.2031 -0.984375 27.5938 -0.984375
Q22.0781 -0.984375 17.7188 0.671875
Q13.375 2.34375 10.375 5.76562
Q7.375 9.1875 5.78125 14.3281
Q4.20312 19.4844 4.20312 26.4688
Q4.20312 53.8125 27.875 53.8125
Q34.0312 53.8125 38.5 52.0938
Q42.9688 50.3906 45.8281 46.9688
Q48.6875 43.5625 50.0469 38.4219
Q51.4219 33.2969 51.4219 26.4688
M42.1875 26.4688
Q42.1875 32.625 41.2344 36.625
Q40.2812 40.625 38.4531 43.0156
Q36.625 45.4062 33.9844 46.3594
Q31.3438 47.3125 28.0312 47.3125
Q24.6562 47.3125 21.9375 46.3125
Q19.2344 45.3125 17.3281 42.8906
Q15.4375 40.4844 14.4219 36.4688
Q13.4219 32.4688 13.4219 26.4688
Q13.4219 20.3125 14.5 16.2812
Q15.5781 12.25 17.4531 9.85938
Q19.3438 7.46875 21.9062 6.48438
Q24.4688 5.51562 27.4844 5.51562
Q30.8594 5.51562 33.5938 6.46875
Q36.3281 7.42188 38.2344 9.8125
Q40.1406 12.2031 41.1562 16.25
Q42.1875 20.3125 42.1875 26.4688" id="LiberationSans-6f"/>
      <path d="
M54.7344 0
L54.7344 31.8906
L17.5312 31.8906
L17.5312 0
L8.20312 0
L8.20312 68.7969
L17.5312 68.7969
L17.5312 39.7031
L54.7344 39.7031
L54.7344 68.7969
L64.0625 68.7969
L64.0625 0
z
" id="LiberationSans-48"/>
      <path d="
M6.73438 0
L6.73438 72.4688
L15.5312 72.4688
L15.5312 0
z
" id="LiberationSans-6c"/>
      <path id="LiberationSans-20"/>
      <path d="
M5.03125 34.7188
Q5.03125 42.7812 7.20312 49.2656
Q9.375 55.7656 13.6875 60.3281
Q18.0156 64.8906 24.4062 67.3594
Q30.8125 69.8281 39.2656 69.8281
Q45.6094 69.8281 50.3906 68.7031
Q55.1719 67.5781 58.6875 65.4688
Q62.2031 63.375 64.6406 60.375
Q67.0938 57.375 68.7969 53.6094
L59.9062 50.9844
Q58.6406 53.5156 56.8594 55.5938
Q55.0781 57.6719 52.5312 59.125
Q50 60.5938 46.6562 61.3906
Q43.3125 62.2031 39.0156 62.2031
Q32.7656 62.2031 28.1406 60.25
Q23.5312 58.2969 20.5 54.6875
Q17.4844 51.0781 15.9844 46
Q14.5 40.9219 14.5 34.7188
Q14.5 28.5156 16.1094 23.3594
Q17.7188 18.2188 20.8906 14.4844
Q24.0781 10.75 28.7812 8.67188
Q33.5 6.59375 39.7031 6.59375
Q43.75 6.59375 47.1719 7.26562
Q50.5938 7.95312 53.3438 9.04688
Q56.1094 10.1562 58.2031 11.5
Q60.2969 12.8438 61.7188 14.2031
L61.7188 26.6094
L41.1562 26.6094
L41.1562 34.4219
L70.3125 34.4219
L70.3125 10.6875
Q68.0156 8.34375 64.9062 6.21875
Q61.8125 4.10938 57.9531 2.48438
Q54.1094 0.875 49.5156 -0.046875
Q44.9219 -0.984375 39.7031 -0.984375
Q31 -0.984375 24.5 1.67188
Q18.0156 4.34375 13.6875 9.10938
Q9.375 13.875 7.20312 20.4062
Q5.03125 26.9531 5.03125 34.7188" id="LiberationSans-47"/>
      <path d="
M29.9375 0
L19.5312 0
L0.34375 52.8281
L9.71875 52.8281
L21.3438 18.4531
Q21.6875 17.3906 22.1406 15.8438
Q22.6094 14.3125 23.0938 12.6406
Q23.5781 10.9844 24 9.4375
Q24.4219 7.90625 24.7031 6.89062
Q25 7.90625 25.4531 9.4375
Q25.9219 10.9844 26.4062 12.5938
Q26.9062 14.2031 27.4219 15.7344
Q27.9375 17.2812 28.3281 18.3594
L40.3281 52.8281
L49.6562 52.8281
z
" id="LiberationSans-76"/>
      <path d="
M62.1094 19
Q62.1094 14.6562 60.4219 10.9844
Q58.7344 7.32812 55.2188 4.65625
Q51.7031 2 46.3594 0.5
Q41.0156 -0.984375 33.6875 -0.984375
Q20.8438 -0.984375 13.6719 3.51562
Q6.5 8.01562 4.54688 16.5
L13.5781 18.3125
Q14.2656 15.625 15.6719 13.4219
Q17.0938 11.2344 19.5 9.64062
Q21.9219 8.0625 25.4844 7.17188
Q29.0469 6.29688 34.0312 6.29688
Q38.1875 6.29688 41.6562 7
Q45.125 7.71875 47.6094 9.17188
Q50.0938 10.6406 51.4844 12.9531
Q52.875 15.2812 52.875 18.5
Q52.875 21.875 51.3438 23.9688
Q49.8125 26.0781 47.0156 27.4375
Q44.2344 28.8125 40.375 29.7344
Q36.5312 30.6719 31.8438 31.7344
Q28.9531 32.375 26.0469 33.125
Q23.1406 33.8906 20.4844 34.9375
Q17.8281 35.9844 15.4844 37.3906
Q13.1406 38.8125 11.4219 40.7969
Q9.71875 42.7812 8.73438 45.3906
Q7.76562 48 7.76562 51.4219
Q7.76562 56.2969 9.73438 59.7812
Q11.7188 63.2812 15.2344 65.5312
Q18.75 67.7812 23.5312 68.7969
Q28.3281 69.8281 33.8906 69.8281
Q40.2812 69.8281 44.8125 68.8281
Q49.3594 67.8281 52.4844 65.8125
Q55.6094 63.8125 57.4844 60.8594
Q59.375 57.9062 60.5 54
L51.3125 52.3906
Q50.6406 54.8906 49.3438 56.8438
Q48.0469 58.7969 45.9375 60.1094
Q43.8438 61.4219 40.8438 62.1094
Q37.8438 62.7969 33.7969 62.7969
Q29 62.7969 25.75 61.9375
Q22.5156 61.0781 20.5312 59.6094
Q18.5625 58.1562 17.7031 56.1719
Q16.8438 54.2031 16.8438 51.9062
Q16.8438 48.8281 18.375 46.8438
Q19.9219 44.875 22.5625 43.5469
Q25.2031 42.2344 28.6562 41.3594
Q32.125 40.4844 36.0312 39.5938
Q39.2031 38.875 42.3594 38.1094
Q45.5156 37.3594 48.3906 36.2969
Q51.2656 35.25 53.7812 33.8281
Q56.2969 32.4219 58.1562 30.375
Q60.0156 28.3281 61.0625 25.5312
Q62.1094 22.75 62.1094 19" id="LiberationSans-53"/>
      <path d="
M56.8438 0
L38.9688 28.5625
L17.5312 28.5625
L17.5312 0
L8.20312 0
L8.20312 68.7969
L40.5781 68.7969
Q46.4375 68.7969 50.9531 67.4531
Q55.4688 66.1094 58.5469 63.5625
Q61.625 61.0312 63.2344 57.375
Q64.8438 53.7188 64.8438 49.125
Q64.8438 45.8438 63.8906 42.6719
Q62.9375 39.5 60.8906 36.8594
Q58.8438 34.2344 55.6562 32.3281
Q52.4844 30.4219 48.0469 29.6406
L67.5781 0
z

M55.4688 49.0312
Q55.4688 52.1562 54.3906 54.4375
Q53.3281 56.7344 51.2656 58.2656
Q49.2188 59.8125 46.2812 60.5625
Q43.3594 61.3281 39.6562 61.3281
L17.5312 61.3281
L17.5312 35.9375
L40.0469 35.9375
Q44.0469 35.9375 46.9688 36.9375
Q49.9062 37.9375 51.7812 39.6875
Q53.6562 41.4531 54.5625 43.8438
Q55.4688 46.2344 55.4688 49.0312" id="LiberationSans-52"/>
     </defs>
     <g style="fill:#262626;" transform="translate(233.4625 537.372897727)scale(0.16 -0.16)">
      <use xlink:href="#LiberationSans-52"/>
      <use x="72.216796875" xlink:href="#LiberationSans-65"/>
      <use x="127.83203125" xlink:href="#LiberationSans-6c"/>
      <use x="150.048828125" xlink:href="#LiberationSans-61"/>
      <use x="205.6640625" xlink:href="#LiberationSans-74"/>
      <use x="233.447265625" xlink:href="#LiberationSans-69"/>
      <use x="255.6640625" xlink:href="#LiberationSans-76"/>
      <use x="305.6640625" xlink:href="#LiberationSans-65"/>
      <use x="361.279296875" xlink:href="#LiberationSans-20"/>
      <use x="389.0625" xlink:href="#LiberationSans-70"/>
      <use x="444.677734375" xlink:href="#LiberationSans-6f"/>
      <use x="500.29296875" xlink:href="#LiberationSans-73"/>
      <use x="550.29296875" xlink:href="#LiberationSans-69"/>
      <use x="572.509765625" xlink:href="#LiberationSans-74"/>
      <use x="600.29296875" xlink:href="#LiberationSans-69"/>
      <use x="622.509765625" xlink:href="#LiberationSans-6f"/>
      <use x="678.125" xlink:href="#LiberationSans-6e"/>
      <use x="733.740234375" xlink:href="#LiberationSans-20"/>
      <use x="761.5234375" xlink:href="#LiberationSans-6f"/>
      <use x="817.138671875" xlink:href="#LiberationSans-66"/>
      <use x="844.921875" xlink:href="#LiberationSans-20"/>
      <use x="872.705078125" xlink:href="#LiberationSans-49"/>
      <use x="900.48828125" xlink:href="#LiberationSans-47"/>
      <use x="978.271484375" xlink:href="#LiberationSans-48"/>
      <use x="1050.48828125" xlink:href="#LiberationSans-56"/>
      <use x="1117.1875" xlink:href="#LiberationSans-20"/>
      <use x="1144.97070312" xlink:href="#LiberationSans-53"/>
      <use x="1211.66992188" xlink:href="#LiberationSans-48"/>
      <use x="1283.88671875" xlink:href="#LiberationSans-4d"/>
      <use x="1367.1875" xlink:href="#LiberationSans-20"/>
      <use x="1394.97070312" xlink:href="#LiberationSans-69"/>
      <use x="1417.1875" xlink:href="#LiberationSans-6e"/>
      <use x="1472.80273438" xlink:href="#LiberationSans-20"/>
      <use x="1500.5859375" xlink:href="#LiberationSans-72"/>
      <use x="1533.88671875" xlink:href="#LiberationSans-65"/>
      <use x="1589.50195312" xlink:href="#LiberationSans-61"/>
      <use x="1645.1171875" xlink:href="#LiberationSans-64"/>
     </g>
    </g>
   </g>
   <g id="matplotlib.axis_2">
    <g id="ytick_1">
     <g id="line2d_19">
      <path clip-path="url(#p1d596a7909)" d="
M90 500.727
L648 500.727" style="fill:none;stroke:#ffffff;stroke-linecap:round;"/>
     </g>
     <g id="line2d_20">
      <g>
       <use style="fill:#262626;stroke:#262626;" x="90.0" xlink:href="#m219da94a98" y="500.727272727"/>
      </g>
     </g>
     <g id="line2d_21">
      <g>
       <use style="fill:#262626;stroke:#262626;" x="648.0" xlink:href="#m219da94a98" y="500.727272727"/>
      </g>
     </g>
     <g id="text_8">
      <!-- 0 -->
      <g style="fill:#262626;" transform="translate(76.3084375 504.347585227)scale(0.14 -0.14)">
       <use xlink:href="#LiberationSans-30"/>
      </g>
     </g>
    </g>
    <g id="ytick_2">
     <g id="line2d_22">
      <path clip-path="url(#p1d596a7909)" d="
M90 451.636
L648 451.636" style="fill:none;stroke:#ffffff;stroke-linecap:round;"/>
     </g>
     <g id="line2d_23">
      <g>
       <use style="fill:#262626;stroke:#262626;" x="90.0" xlink:href="#m219da94a98" y="451.636363636"/>
      </g>
     </g>
     <g id="line2d_24">
      <g>
       <use style="fill:#262626;stroke:#262626;" x="648.0" xlink:href="#m219da94a98" y="451.636363636"/>
      </g>
     </g>
     <g id="text_9">
      <!-- 100000 -->
      <g style="fill:#262626;" transform="translate(37.9025 455.256676136)scale(0.14 -0.14)">
       <use xlink:href="#LiberationSans-31"/>
       <use x="55.615234375" xlink:href="#LiberationSans-30"/>
       <use x="111.23046875" xlink:href="#LiberationSans-30"/>
       <use x="166.845703125" xlink:href="#LiberationSans-30"/>
       <use x="222.4609375" xlink:href="#LiberationSans-30"/>
       <use x="278.076171875" xlink:href="#LiberationSans-30"/>
      </g>
     </g>
    </g>
    <g id="ytick_3">
     <g id="line2d_25">
      <path clip-path="url(#p1d596a7909)" d="
M90 402.545
L648 402.545" style="fill:none;stroke:#ffffff;stroke-linecap:round;"/>
     </g>
     <g id="line2d_26">
      <g>
       <use style="fill:#262626;stroke:#262626;" x="90.0" xlink:href="#m219da94a98" y="402.545454545"/>
      </g>
     </g>
     <g id="line2d_27">
      <g>
       <use style="fill:#262626;stroke:#262626;" x="648.0" xlink:href="#m219da94a98" y="402.545454545"/>
      </g>
     </g>
     <g id="text_10">
      <!-- 200000 -->
      <g style="fill:#262626;" transform="translate(37.539375 406.165767045)scale(0.14 -0.14)">
       <use xlink:href="#LiberationSans-32"/>
       <use x="55.615234375" xlink:href="#LiberationSans-30"/>
       <use x="111.23046875" xlink:href="#LiberationSans-30"/>
       <use x="166.845703125" xlink:href="#LiberationSans-30"/>
       <use x="222.4609375" xlink:href="#LiberationSans-30"/>
       <use x="278.076171875" xlink:href="#LiberationSans-30"/>
      </g>
     </g>
    </g>
    <g id="ytick_4">
     <g id="line2d_28">
      <path clip-path="url(#p1d596a7909)" d="
M90 353.455
L648 353.455" style="fill:none;stroke:#ffffff;stroke-linecap:round;"/>
     </g>
     <g id="line2d_29">
      <g>
       <use style="fill:#262626;stroke:#262626;" x="90.0" xlink:href="#m219da94a98" y="353.454545455"/>
      </g>
     </g>
     <g id="line2d_30">
      <g>
       <use style="fill:#262626;stroke:#262626;" x="648.0" xlink:href="#m219da94a98" y="353.454545455"/>
      </g>
     </g>
     <g id="text_11">
      <!-- 300000 -->
      <defs>
       <path d="
M51.2188 19
Q51.2188 14.2656 49.6719 10.5469
Q48.1406 6.84375 45.1875 4.26562
Q42.2344 1.70312 37.8594 0.359375
Q33.5 -0.984375 27.875 -0.984375
Q21.4844 -0.984375 17.1094 0.609375
Q12.75 2.20312 9.90625 4.8125
Q7.07812 7.42188 5.65625 10.7656
Q4.25 14.1094 3.8125 17.6719
L12.8906 18.5
Q13.2812 15.7656 14.3281 13.5156
Q15.375 11.2812 17.1875 9.67188
Q19 8.0625 21.625 7.17188
Q24.2656 6.29688 27.875 6.29688
Q34.5156 6.29688 38.2969 9.5625
Q42.0938 12.8438 42.0938 19.2812
Q42.0938 23.0938 40.4062 25.4062
Q38.7188 27.7344 36.2031 29.0312
Q33.6875 30.3281 30.7344 30.7656
Q27.7812 31.2031 25.2969 31.2031
L20.3125 31.2031
L20.3125 38.8125
L25.0938 38.8125
Q27.5938 38.8125 30.2656 39.3281
Q32.9531 39.8438 35.1719 41.1875
Q37.4062 42.5312 38.8438 44.8281
Q40.2812 47.125 40.2812 50.6875
Q40.2812 56.2031 37.0312 59.3906
Q33.7969 62.5938 27.3906 62.5938
Q21.5781 62.5938 17.9844 59.6094
Q14.4062 56.6406 13.8125 51.2188
L4.98438 51.9062
Q5.51562 56.4531 7.46875 59.8125
Q9.42188 63.1875 12.4219 65.4062
Q15.4375 67.625 19.2812 68.7188
Q23.1406 69.8281 27.4844 69.8281
Q33.25 69.8281 37.3906 68.375
Q41.5469 66.9375 44.1875 64.4688
Q46.8281 62.0156 48.0625 58.6875
Q49.3125 55.375 49.3125 51.6094
Q49.3125 48.5781 48.4844 45.9375
Q47.6562 43.3125 45.8906 41.2031
Q44.1406 39.1094 41.4219 37.5938
Q38.7188 36.0781 34.9062 35.2969
L34.9062 35.1094
Q39.0625 34.6719 42.1406 33.2188
Q45.2188 31.7812 47.2188 29.625
Q49.2188 27.4844 50.2188 24.75
Q51.2188 22.0156 51.2188 19" id="LiberationSans-33"/>
      </defs>
      <g style="fill:#262626;" transform="translate(37.36875 357.074857955)scale(0.14 -0.14)">
       <use xlink:href="#LiberationSans-33"/>
       <use x="55.615234375" xlink:href="#LiberationSans-30"/>
       <use x="111.23046875" xlink:href="#LiberationSans-30"/>
       <use x="166.845703125" xlink:href="#LiberationSans-30"/>
       <use x="222.4609375" xlink:href="#LiberationSans-30"/>
       <use x="278.076171875" xlink:href="#LiberationSans-30"/>
      </g>
     </g>
    </g>
    <g id="ytick_5">
     <g id="line2d_31">
      <path clip-path="url(#p1d596a7909)" d="
M90 304.364
L648 304.364" style="fill:none;stroke:#ffffff;stroke-linecap:round;"/>
     </g>
     <g id="line2d_32">
      <g>
       <use style="fill:#262626;stroke:#262626;" x="90.0" xlink:href="#m219da94a98" y="304.363636364"/>
      </g>
     </g>
     <g id="line2d_33">
      <g>
       <use style="fill:#262626;stroke:#262626;" x="648.0" xlink:href="#m219da94a98" y="304.363636364"/>
      </g>
     </g>
     <g id="text_12">
      <!-- 400000 -->
      <g style="fill:#262626;" transform="translate(37.1565625 307.983948864)scale(0.14 -0.14)">
       <use xlink:href="#LiberationSans-34"/>
       <use x="55.615234375" xlink:href="#LiberationSans-30"/>
       <use x="111.23046875" xlink:href="#LiberationSans-30"/>
       <use x="166.845703125" xlink:href="#LiberationSans-30"/>
       <use x="222.4609375" xlink:href="#LiberationSans-30"/>
       <use x="278.076171875" xlink:href="#LiberationSans-30"/>
      </g>
     </g>
    </g>
    <g id="ytick_6">
     <g id="line2d_34">
      <path clip-path="url(#p1d596a7909)" d="
M90 255.273
L648 255.273" style="fill:none;stroke:#ffffff;stroke-linecap:round;"/>
     </g>
     <g id="line2d_35">
      <g>
       <use style="fill:#262626;stroke:#262626;" x="90.0" xlink:href="#m219da94a98" y="255.272727273"/>
      </g>
     </g>
     <g id="line2d_36">
      <g>
       <use style="fill:#262626;stroke:#262626;" x="648.0" xlink:href="#m219da94a98" y="255.272727273"/>
      </g>
     </g>
     <g id="text_13">
      <!-- 500000 -->
      <defs>
       <path d="
M51.4219 22.4062
Q51.4219 17.2344 49.8594 12.9375
Q48.2969 8.64062 45.2188 5.53125
Q42.1406 2.4375 37.5781 0.71875
Q33.0156 -0.984375 27 -0.984375
Q21.5781 -0.984375 17.5469 0.28125
Q13.5312 1.5625 10.7344 3.78125
Q7.95312 6 6.3125 8.98438
Q4.6875 11.9688 4 15.375
L12.8906 16.4062
Q13.4219 14.4531 14.3906 12.625
Q15.375 10.7969 17.0625 9.34375
Q18.75 7.90625 21.2188 7.04688
Q23.6875 6.20312 27.2031 6.20312
Q30.6094 6.20312 33.3906 7.25
Q36.1875 8.29688 38.1562 10.3438
Q40.1406 12.4062 41.2031 15.375
Q42.2812 18.3594 42.2812 22.2188
Q42.2812 25.3906 41.25 28.0469
Q40.2344 30.7188 38.3281 32.6406
Q36.4219 34.5781 33.6562 35.6406
Q30.9062 36.7188 27.3906 36.7188
Q25.2031 36.7188 23.3438 36.3281
Q21.4844 35.9375 19.8906 35.25
Q18.3125 34.5781 17.0156 33.6719
Q15.7188 32.7656 14.5938 31.7812
L6 31.7812
L8.29688 68.7969
L47.4062 68.7969
L47.4062 61.3281
L16.3125 61.3281
L14.9844 39.5
Q17.3281 41.3125 20.8438 42.5938
Q24.3594 43.8906 29.2031 43.8906
Q34.3281 43.8906 38.4219 42.3281
Q42.5312 40.7656 45.4062 37.9062
Q48.2969 35.0625 49.8594 31.1094
Q51.4219 27.1562 51.4219 22.4062" id="LiberationSans-35"/>
      </defs>
      <g style="fill:#262626;" transform="translate(37.395 258.893039773)scale(0.14 -0.14)">
       <use xlink:href="#LiberationSans-35"/>
       <use x="55.615234375" xlink:href="#LiberationSans-30"/>
       <use x="111.23046875" xlink:href="#LiberationSans-30"/>
       <use x="166.845703125" xlink:href="#LiberationSans-30"/>
       <use x="222.4609375" xlink:href="#LiberationSans-30"/>
       <use x="278.076171875" xlink:href="#LiberationSans-30"/>
      </g>
     </g>
    </g>
    <g id="ytick_7">
     <g id="line2d_37">
      <path clip-path="url(#p1d596a7909)" d="
M90 206.182
L648 206.182" style="fill:none;stroke:#ffffff;stroke-linecap:round;"/>
     </g>
     <g id="line2d_38">
      <g>
       <use style="fill:#262626;stroke:#262626;" x="90.0" xlink:href="#m219da94a98" y="206.181818182"/>
      </g>
     </g>
     <g id="line2d_39">
      <g>
       <use style="fill:#262626;stroke:#262626;" x="648.0" xlink:href="#m219da94a98" y="206.181818182"/>
      </g>
     </g>
     <g id="text_14">
      <!-- 600000 -->
      <g style="fill:#262626;" transform="translate(37.5459375 209.802130682)scale(0.14 -0.14)">
       <use xlink:href="#LiberationSans-36"/>
       <use x="55.615234375" xlink:href="#LiberationSans-30"/>
       <use x="111.23046875" xlink:href="#LiberationSans-30"/>
       <use x="166.845703125" xlink:href="#LiberationSans-30"/>
       <use x="222.4609375" xlink:href="#LiberationSans-30"/>
       <use x="278.076171875" xlink:href="#LiberationSans-30"/>
      </g>
     </g>
    </g>
    <g id="ytick_8">
     <g id="line2d_40">
      <path clip-path="url(#p1d596a7909)" d="
M90 157.091
L648 157.091" style="fill:none;stroke:#ffffff;stroke-linecap:round;"/>
     </g>
     <g id="line2d_41">
      <g>
       <use style="fill:#262626;stroke:#262626;" x="90.0" xlink:href="#m219da94a98" y="157.090909091"/>
      </g>
     </g>
     <g id="line2d_42">
      <g>
       <use style="fill:#262626;stroke:#262626;" x="648.0" xlink:href="#m219da94a98" y="157.090909091"/>
      </g>
     </g>
     <g id="text_15">
      <!-- 700000 -->
      <defs>
       <path d="
M50.5938 61.6719
Q45.4062 53.7656 41.0625 46.4531
Q36.7188 39.1562 33.5938 31.75
Q30.4688 24.3594 28.7344 16.5781
Q27 8.79688 27 0
L17.8281 0
Q17.8281 8.25 19.7812 16.1875
Q21.7344 24.125 25.0469 31.7656
Q28.375 39.4062 32.7656 46.7812
Q37.1562 54.1562 42.0938 61.3281
L5.125 61.3281
L5.125 68.7969
L50.5938 68.7969
z
" id="LiberationSans-37"/>
      </defs>
      <g style="fill:#262626;" transform="translate(37.5525 160.711221591)scale(0.14 -0.14)">
       <use xlink:href="#LiberationSans-37"/>
       <use x="55.615234375" xlink:href="#LiberationSans-30"/>
       <use x="111.23046875" xlink:href="#LiberationSans-30"/>
       <use x="166.845703125" xlink:href="#LiberationSans-30"/>
       <use x="222.4609375" xlink:href="#LiberationSans-30"/>
       <use x="278.076171875" xlink:href="#LiberationSans-30"/>
      </g>
     </g>
    </g>
    <g id="ytick_9">
     <g id="line2d_43">
      <path clip-path="url(#p1d596a7909)" d="
M90 108
L648 108" style="fill:none;stroke:#ffffff;stroke-linecap:round;"/>
     </g>
     <g id="line2d_44">
      <g>
       <use style="fill:#262626;stroke:#262626;" x="90.0" xlink:href="#m219da94a98" y="108.0"/>
      </g>
     </g>
     <g id="line2d_45">
      <g>
       <use style="fill:#262626;stroke:#262626;" x="648.0" xlink:href="#m219da94a98" y="108.0"/>
      </g>
     </g>
     <g id="text_16">
      <!-- 800000 -->
      <g style="fill:#262626;" transform="translate(37.443125 111.6203125)scale(0.14 -0.14)">
       <use xlink:href="#LiberationSans-38"/>
       <use x="55.615234375" xlink:href="#LiberationSans-30"/>
       <use x="111.23046875" xlink:href="#LiberationSans-30"/>
       <use x="166.845703125" xlink:href="#LiberationSans-30"/>
       <use x="222.4609375" xlink:href="#LiberationSans-30"/>
       <use x="278.076171875" xlink:href="#LiberationSans-30"/>
      </g>
     </g>
    </g>
    <g id="text_17">
     <!-- # SHMs -->
     <defs>
      <path d="
M43.75 43.2188
L39.9375 25.2031
L52.6406 25.2031
L52.6406 19.9219
L38.8125 19.9219
L34.5156 0
L29.1562 0
L33.3438 19.9219
L15.625 19.9219
L11.5312 0
L6.15625 0
L10.25 19.9219
L0.4375 19.9219
L0.4375 25.2031
L11.4219 25.2031
L15.2344 43.2188
L2.9375 43.2188
L2.9375 48.4844
L16.3125 48.4844
L20.6562 68.4062
L26.0312 68.4062
L21.7344 48.4844
L39.4531 48.4844
L43.75 68.4062
L49.125 68.4062
L44.8281 48.4844
L55.125 48.4844
L55.125 43.2188
z

M20.75 43.2188
L16.8438 25.2031
L34.5156 25.2031
L38.3281 43.2188
z
" id="LiberationSans-23"/>
     </defs>
     <g style="fill:#262626;" transform="translate(28.8365625 332.523636364)rotate(-90.0)scale(0.16 -0.16)">
      <use xlink:href="#LiberationSans-23"/>
      <use x="55.615234375" xlink:href="#LiberationSans-20"/>
      <use x="83.3984375" xlink:href="#LiberationSans-53"/>
      <use x="150.09765625" xlink:href="#LiberationSans-48"/>
      <use x="222.314453125" xlink:href="#LiberationSans-4d"/>
      <use x="305.615234375" xlink:href="#LiberationSans-73"/>
     </g>
    </g>
   </g>
   <g id="patch_3">
    <path clip-path="url(#p1d596a7909)" d="
M99.169 500.727
L109.738 500.727
L109.738 415.299
L99.169 415.299
z
" style="fill:#4878cf;opacity:0.75;stroke:#1a1a1a;stroke-linejoin:miter;stroke-width:0.3;"/>
   </g>
   <g id="patch_4">
    <path clip-path="url(#p1d596a7909)" d="
M109.738 500.727
L120.307 500.727
L120.307 467.54
L109.738 467.54
z
" style="fill:#4878cf;opacity:0.75;stroke:#1a1a1a;stroke-linejoin:miter;stroke-width:0.3;"/>
   </g>
   <g id="patch_5">
    <path clip-path="url(#p1d596a7909)" d="
M120.307 500.727
L130.875 500.727
L130.875 461.564
L120.307 461.564
z
" style="fill:#4878cf;opacity:0.75;stroke:#1a1a1a;stroke-linejoin:miter;stroke-width:0.3;"/>
   </g>
   <g id="patch_6">
    <path clip-path="url(#p1d596a7909)" d="
M130.875 500.727
L141.444 500.727
L141.444 404.719
L130.875 404.719
z
" style="fill:#4878cf;opacity:0.75;stroke:#1a1a1a;stroke-linejoin:miter;stroke-width:0.3;"/>
   </g>
   <g id="patch_7">
    <path clip-path="url(#p1d596a7909)" d="
M141.444 500.727
L152.013 500.727
L152.013 404.471
L141.444 404.471
z
" style="fill:#4878cf;opacity:0.75;stroke:#1a1a1a;stroke-linejoin:miter;stroke-width:0.3;"/>
   </g>
   <g id="patch_8">
    <path clip-path="url(#p1d596a7909)" d="
M152.013 500.727
L162.582 500.727
L162.582 407.396
L152.013 407.396
z
" style="fill:#4878cf;opacity:0.75;stroke:#1a1a1a;stroke-linejoin:miter;stroke-width:0.3;"/>
   </g>
   <g id="patch_9">
    <path clip-path="url(#p1d596a7909)" d="
M162.582 500.727
L173.15 500.727
L173.15 447.63
L162.582 447.63
z
" style="fill:#4878cf;opacity:0.75;stroke:#1a1a1a;stroke-linejoin:miter;stroke-width:0.3;"/>
   </g>
   <g id="patch_10">
    <path clip-path="url(#p1d596a7909)" d="
M173.15 500.727
L183.719 500.727
L183.719 454.26
L173.15 454.26
z
" style="fill:#4878cf;opacity:0.75;stroke:#1a1a1a;stroke-linejoin:miter;stroke-width:0.3;"/>
   </g>
   <g id="patch_11">
    <path clip-path="url(#p1d596a7909)" d="
M183.719 500.727
L194.288 500.727
L194.288 412.635
L183.719 412.635
z
" style="fill:#4878cf;opacity:0.75;stroke:#1a1a1a;stroke-linejoin:miter;stroke-width:0.3;"/>
   </g>
   <g id="patch_12">
    <path clip-path="url(#p1d596a7909)" d="
M194.288 500.727
L204.857 500.727
L204.857 389.307
L194.288 389.307
z
" style="fill:#4878cf;opacity:0.75;stroke:#1a1a1a;stroke-linejoin:miter;stroke-width:0.3;"/>
   </g>
   <g id="patch_13">
    <path clip-path="url(#p1d596a7909)" d="
M204.857 500.727
L215.426 500.727
L215.426 378.511
L204.857 378.511
z
" style="fill:#4878cf;opacity:0.75;stroke:#1a1a1a;stroke-linejoin:miter;stroke-width:0.3;"/>
   </g>
   <g id="patch_14">
    <path clip-path="url(#p1d596a7909)" d="
M215.426 500.727
L225.994 500.727
L225.994 254.292
L215.426 254.292
z
" style="fill:#4878cf;opacity:0.75;stroke:#1a1a1a;stroke-linejoin:miter;stroke-width:0.3;"/>
   </g>
   <g id="patch_15">
    <path clip-path="url(#p1d596a7909)" d="
M225.994 500.727
L236.563 500.727
L236.563 148.313
L225.994 148.313
z
" style="fill:#4878cf;opacity:0.75;stroke:#1a1a1a;stroke-linejoin:miter;stroke-width:0.3;"/>
   </g>
   <g id="patch_16">
    <path clip-path="url(#p1d596a7909)" d="
M236.563 500.727
L247.132 500.727
L247.132 289.368
L236.563 289.368
z
" style="fill:#4878cf;opacity:0.75;stroke:#1a1a1a;stroke-linejoin:miter;stroke-width:0.3;"/>
   </g>
   <g id="patch_17">
    <path clip-path="url(#p1d596a7909)" d="
M247.132 500.727
L257.701 500.727
L257.701 411.806
L247.132 411.806
z
" style="fill:#4878cf;opacity:0.75;stroke:#1a1a1a;stroke-linejoin:miter;stroke-width:0.3;"/>
   </g>
   <g id="patch_18">
    <path clip-path="url(#p1d596a7909)" d="
M257.701 500.727
L268.269 500.727
L268.269 446.55
L257.701 446.55
z
" style="fill:#4878cf;opacity:0.75;stroke:#1a1a1a;stroke-linejoin:miter;stroke-width:0.3;"/>
   </g>
   <g id="patch_19">
    <path clip-path="url(#p1d596a7909)" d="
M268.269 500.727
L278.838 500.727
L278.838 446.041
L268.269 446.041
z
" style="fill:#4878cf;opacity:0.75;stroke:#1a1a1a;stroke-linejoin:miter;stroke-width:0.3;"/>
   </g>
   <g id="patch_20">
    <path clip-path="url(#p1d596a7909)" d="
M278.838 500.727
L289.407 500.727
L289.407 441.229
L278.838 441.229
z
" style="fill:#4878cf;opacity:0.75;stroke:#1a1a1a;stroke-linejoin:miter;stroke-width:0.3;"/>
   </g>
   <g id="patch_21">
    <path clip-path="url(#p1d596a7909)" d="
M289.407 500.727
L299.976 500.727
L299.976 426.906
L289.407 426.906
z
" style="fill:#4878cf;opacity:0.75;stroke:#1a1a1a;stroke-linejoin:miter;stroke-width:0.3;"/>
   </g>
   <g id="patch_22">
    <path clip-path="url(#p1d596a7909)" d="
M299.976 500.727
L310.545 500.727
L310.545 378.39
L299.976 378.39
z
" style="fill:#4878cf;opacity:0.75;stroke:#1a1a1a;stroke-linejoin:miter;stroke-width:0.3;"/>
   </g>
   <g id="patch_23">
    <path clip-path="url(#p1d596a7909)" d="
M310.545 500.727
L321.113 500.727
L321.113 281.405
L310.545 281.405
z
" style="fill:#4878cf;opacity:0.75;stroke:#1a1a1a;stroke-linejoin:miter;stroke-width:0.3;"/>
   </g>
   <g id="patch_24">
    <path clip-path="url(#p1d596a7909)" d="
M321.113 500.727
L331.682 500.727
L331.682 236.501
L321.113 236.501
z
" style="fill:#4878cf;opacity:0.75;stroke:#1a1a1a;stroke-linejoin:miter;stroke-width:0.3;"/>
   </g>
   <g id="patch_25">
    <path clip-path="url(#p1d596a7909)" d="
M331.682 500.727
L342.251 500.727
L342.251 192.174
L331.682 192.174
z
" style="fill:#4878cf;opacity:0.75;stroke:#1a1a1a;stroke-linejoin:miter;stroke-width:0.3;"/>
   </g>
   <g id="patch_26">
    <path clip-path="url(#p1d596a7909)" d="
M342.251 500.727
L352.82 500.727
L352.82 197.79
L342.251 197.79
z
" style="fill:#4878cf;opacity:0.75;stroke:#1a1a1a;stroke-linejoin:miter;stroke-width:0.3;"/>
   </g>
   <g id="patch_27">
    <path clip-path="url(#p1d596a7909)" d="
M352.82 500.727
L363.388 500.727
L363.388 279.599
L352.82 279.599
z
" style="fill:#4878cf;opacity:0.75;stroke:#1a1a1a;stroke-linejoin:miter;stroke-width:0.3;"/>
   </g>
   <g id="patch_28">
    <path clip-path="url(#p1d596a7909)" d="
M363.388 500.727
L373.957 500.727
L373.957 360.09
L363.388 360.09
z
" style="fill:#4878cf;opacity:0.75;stroke:#1a1a1a;stroke-linejoin:miter;stroke-width:0.3;"/>
   </g>
   <g id="patch_29">
    <path clip-path="url(#p1d596a7909)" d="
M373.957 500.727
L384.526 500.727
L384.526 398.583
L373.957 398.583
z
" style="fill:#4878cf;opacity:0.75;stroke:#1a1a1a;stroke-linejoin:miter;stroke-width:0.3;"/>
   </g>
   <g id="patch_30">
    <path clip-path="url(#p1d596a7909)" d="
M384.526 500.727
L395.095 500.727
L395.095 421.931
L384.526 421.931
z
" style="fill:#4878cf;opacity:0.75;stroke:#1a1a1a;stroke-linejoin:miter;stroke-width:0.3;"/>
   </g>
   <g id="patch_31">
    <path clip-path="url(#p1d596a7909)" d="
M395.095 500.727
L405.664 500.727
L405.664 410.573
L395.095 410.573
z
" style="fill:#4878cf;opacity:0.75;stroke:#1a1a1a;stroke-linejoin:miter;stroke-width:0.3;"/>
   </g>
   <g id="patch_32">
    <path clip-path="url(#p1d596a7909)" d="
M405.664 500.727
L416.232 500.727
L416.232 416.327
L405.664 416.327
z
" style="fill:#4878cf;opacity:0.75;stroke:#1a1a1a;stroke-linejoin:miter;stroke-width:0.3;"/>
   </g>
   <g id="patch_33">
    <path clip-path="url(#p1d596a7909)" d="
M416.232 500.727
L426.801 500.727
L426.801 394.568
L416.232 394.568
z
" style="fill:#4878cf;opacity:0.75;stroke:#1a1a1a;stroke-linejoin:miter;stroke-width:0.3;"/>
   </g>
   <g id="patch_34">
    <path clip-path="url(#p1d596a7909)" d="
M426.801 500.727
L437.37 500.727
L437.37 353.298
L426.801 353.298
z
" style="fill:#4878cf;opacity:0.75;stroke:#1a1a1a;stroke-linejoin:miter;stroke-width:0.3;"/>
   </g>
   <g id="patch_35">
    <path clip-path="url(#p1d596a7909)" d="
M437.37 500.727
L447.939 500.727
L447.939 316.314
L437.37 316.314
z
" style="fill:#4878cf;opacity:0.75;stroke:#1a1a1a;stroke-linejoin:miter;stroke-width:0.3;"/>
   </g>
   <g id="patch_36">
    <path clip-path="url(#p1d596a7909)" d="
M447.939 500.727
L458.508 500.727
L458.508 344.391
L447.939 344.391
z
" style="fill:#4878cf;opacity:0.75;stroke:#1a1a1a;stroke-linejoin:miter;stroke-width:0.3;"/>
   </g>
   <g id="patch_37">
    <path clip-path="url(#p1d596a7909)" d="
M458.508 500.727
L469.076 500.727
L469.076 360.386
L458.508 360.386
z
" style="fill:#4878cf;opacity:0.75;stroke:#1a1a1a;stroke-linejoin:miter;stroke-width:0.3;"/>
   </g>
   <g id="patch_38">
    <path clip-path="url(#p1d596a7909)" d="
M469.076 500.727
L479.645 500.727
L479.645 363.97
L469.076 363.97
z
" style="fill:#4878cf;opacity:0.75;stroke:#1a1a1a;stroke-linejoin:miter;stroke-width:0.3;"/>
   </g>
   <g id="patch_39">
    <path clip-path="url(#p1d596a7909)" d="
M479.645 500.727
L490.214 500.727
L490.214 367.729
L479.645 367.729
z
" style="fill:#4878cf;opacity:0.75;stroke:#1a1a1a;stroke-linejoin:miter;stroke-width:0.3;"/>
   </g>
   <g id="patch_40">
    <path clip-path="url(#p1d596a7909)" d="
M490.214 500.727
L500.783 500.727
L500.783 387.333
L490.214 387.333
z
" style="fill:#4878cf;opacity:0.75;stroke:#1a1a1a;stroke-linejoin:miter;stroke-width:0.3;"/>
   </g>
   <g id="patch_41">
    <path clip-path="url(#p1d596a7909)" d="
M500.783 500.727
L511.351 500.727
L511.351 391.693
L500.783 391.693
z
" style="fill:#4878cf;opacity:0.75;stroke:#1a1a1a;stroke-linejoin:miter;stroke-width:0.3;"/>
   </g>
   <g id="patch_42">
    <path clip-path="url(#p1d596a7909)" d="
M511.351 500.727
L521.92 500.727
L521.92 386.83
L511.351 386.83
z
" style="fill:#4878cf;opacity:0.75;stroke:#1a1a1a;stroke-linejoin:miter;stroke-width:0.3;"/>
   </g>
   <g id="patch_43">
    <path clip-path="url(#p1d596a7909)" d="
M521.92 500.727
L532.489 500.727
L532.489 427.233
L521.92 427.233
z
" style="fill:#4878cf;opacity:0.75;stroke:#1a1a1a;stroke-linejoin:miter;stroke-width:0.3;"/>
   </g>
   <g id="patch_44">
    <path clip-path="url(#p1d596a7909)" d="
M532.489 500.727
L543.058 500.727
L543.058 458.065
L532.489 458.065
z
" style="fill:#4878cf;opacity:0.75;stroke:#1a1a1a;stroke-linejoin:miter;stroke-width:0.3;"/>
   </g>
   <g id="patch_45">
    <path clip-path="url(#p1d596a7909)" d="
M543.058 500.727
L553.627 500.727
L553.627 486.456
L543.058 486.456
z
" style="fill:#4878cf;opacity:0.75;stroke:#1a1a1a;stroke-linejoin:miter;stroke-width:0.3;"/>
   </g>
   <g id="patch_46">
    <path clip-path="url(#p1d596a7909)" d="
M553.627 500.727
L564.195 500.727
L564.195 495.301
L553.627 495.301
z
" style="fill:#4878cf;opacity:0.75;stroke:#1a1a1a;stroke-linejoin:miter;stroke-width:0.3;"/>
   </g>
   <g id="patch_47">
    <path clip-path="url(#p1d596a7909)" d="
M564.195 500.727
L574.764 500.727
L574.764 500.533
L564.195 500.533
z
" style="fill:#4878cf;opacity:0.75;stroke:#1a1a1a;stroke-linejoin:miter;stroke-width:0.3;"/>
   </g>
   <g id="patch_48">
    <path clip-path="url(#p1d596a7909)" d="
M574.764 500.727
L585.333 500.727
L585.333 500.639
L574.764 500.639
z
" style="fill:#4878cf;opacity:0.75;stroke:#1a1a1a;stroke-linejoin:miter;stroke-width:0.3;"/>
   </g>
   <g id="patch_49">
    <path clip-path="url(#p1d596a7909)" d="
M585.333 500.727
L595.902 500.727
L595.902 500.643
L585.333 500.643
z
" style="fill:#4878cf;opacity:0.75;stroke:#1a1a1a;stroke-linejoin:miter;stroke-width:0.3;"/>
   </g>
   <g id="patch_50">
    <path clip-path="url(#p1d596a7909)" d="
M595.902 500.727
L606.47 500.727
L606.47 500.699
L595.902 500.699
z
" style="fill:#4878cf;opacity:0.75;stroke:#1a1a1a;stroke-linejoin:miter;stroke-width:0.3;"/>
   </g>
   <g id="patch_51">
    <path clip-path="url(#p1d596a7909)" d="
M606.47 500.727
L617.039 500.727
L617.039 500.72
L606.47 500.72
z
" style="fill:#4878cf;opacity:0.75;stroke:#1a1a1a;stroke-linejoin:miter;stroke-width:0.3;"/>
   </g>
   <g id="patch_52">
    <path clip-path="url(#p1d596a7909)" d="
M617.039 500.727
L627.608 500.727
L627.608 500.725
L617.039 500.725
z
" style="fill:#4878cf;opacity:0.75;stroke:#1a1a1a;stroke-linejoin:miter;stroke-width:0.3;"/>
   </g>
   <g id="patch_53">
    <path d="
M90 108
L648 108" style="fill:none;"/>
   </g>
   <g id="patch_54">
    <path d="
M648 500.727
L648 108" style="fill:none;"/>
   </g>
   <g id="patch_55">
    <path d="
M90 500.727
L648 500.727" style="fill:none;"/>
   </g>
   <g id="patch_56">
    <path d="
M90 500.727
L90 108" style="fill:none;"/>
   </g>
   <g id="text_18">
    <!-- SHMs in IGHV -->
    <g style="fill:#262626;" transform="translate(310.5309375 103.0)scale(0.18 -0.18)">
     <use xlink:href="#LiberationSans-53"/>
     <use x="66.69921875" xlink:href="#LiberationSans-48"/>
     <use x="138.916015625" xlink:href="#LiberationSans-4d"/>
     <use x="222.216796875" xlink:href="#LiberationSans-73"/>
     <use x="272.216796875" xlink:href="#LiberationSans-20"/>
     <use x="300.0" xlink:href="#LiberationSans-69"/>
     <use x="322.216796875" xlink:href="#LiberationSans-6e"/>
     <use x="377.83203125" xlink:href="#LiberationSans-20"/>
     <use x="405.615234375" xlink:href="#LiberationSans-49"/>
     <use x="433.3984375" xlink:href="#LiberationSans-47"/>
     <use x="511.181640625" xlink:href="#LiberationSans-48"/>
     <use x="583.3984375" xlink:href="#LiberationSans-56"/>
    </g>
   </g>
  </g>
  <g id="axes_2">
   <g id="patch_57">
    <path d="
M90 972
L648 972
L648 579.273
L90 579.273
z
" style="fill:#eaeaf2;"/>
   </g>
   <g id="matplotlib.axis_3">
    <g id="xtick_7">
     <g id="line2d_46">
      <path clip-path="url(#pc9fc3d07f9)" d="
M90 972
L90 579.273" style="fill:none;stroke:#ffffff;stroke-linecap:round;"/>
     </g>
     <g id="line2d_47">
      <g>
       <use style="fill:#262626;stroke:#262626;" x="90.0" xlink:href="#m219da94a98" y="972.0"/>
      </g>
     </g>
     <g id="line2d_48">
      <g>
       <use style="fill:#262626;stroke:#262626;" x="90.0" xlink:href="#m219da94a98" y="579.272727273"/>
      </g>
     </g>
     <g id="text_19">
      <!-- 0 -->
      <g style="fill:#262626;" transform="translate(86.65421875 989.145625)scale(0.14 -0.14)">
       <use xlink:href="#LiberationSans-30"/>
      </g>
     </g>
    </g>
    <g id="xtick_8">
     <g id="line2d_49">
      <path clip-path="url(#pc9fc3d07f9)" d="
M229.5 972
L229.5 579.273" style="fill:none;stroke:#ffffff;stroke-linecap:round;"/>
     </g>
     <g id="line2d_50">
      <g>
       <use style="fill:#262626;stroke:#262626;" x="229.5" xlink:href="#m219da94a98" y="972.0"/>
      </g>
     </g>
     <g id="line2d_51">
      <g>
       <use style="fill:#262626;stroke:#262626;" x="229.5" xlink:href="#m219da94a98" y="579.272727273"/>
      </g>
     </g>
     <g id="text_20">
      <!-- 50 -->
      <g style="fill:#262626;" transform="translate(222.268125 989.145625)scale(0.14 -0.14)">
       <use xlink:href="#LiberationSans-35"/>
       <use x="55.615234375" xlink:href="#LiberationSans-30"/>
      </g>
     </g>
    </g>
    <g id="xtick_9">
     <g id="line2d_52">
      <path clip-path="url(#pc9fc3d07f9)" d="
M369 972
L369 579.273" style="fill:none;stroke:#ffffff;stroke-linecap:round;"/>
     </g>
     <g id="line2d_53">
      <g>
       <use style="fill:#262626;stroke:#262626;" x="369.0" xlink:href="#m219da94a98" y="972.0"/>
      </g>
     </g>
     <g id="line2d_54">
      <g>
       <use style="fill:#262626;stroke:#262626;" x="369.0" xlink:href="#m219da94a98" y="579.272727273"/>
      </g>
     </g>
     <g id="text_21">
      <!-- 100 -->
      <g style="fill:#262626;" transform="translate(358.12921875 989.145625)scale(0.14 -0.14)">
       <use xlink:href="#LiberationSans-31"/>
       <use x="55.615234375" xlink:href="#LiberationSans-30"/>
       <use x="111.23046875" xlink:href="#LiberationSans-30"/>
      </g>
     </g>
    </g>
    <g id="xtick_10">
     <g id="line2d_55">
      <path clip-path="url(#pc9fc3d07f9)" d="
M508.5 972
L508.5 579.273" style="fill:none;stroke:#ffffff;stroke-linecap:round;"/>
     </g>
     <g id="line2d_56">
      <g>
       <use style="fill:#262626;stroke:#262626;" x="508.5" xlink:href="#m219da94a98" y="972.0"/>
      </g>
     </g>
     <g id="line2d_57">
      <g>
       <use style="fill:#262626;stroke:#262626;" x="508.5" xlink:href="#m219da94a98" y="579.272727273"/>
      </g>
     </g>
     <g id="text_22">
      <!-- 150 -->
      <g style="fill:#262626;" transform="translate(497.62921875 989.145625)scale(0.14 -0.14)">
       <use xlink:href="#LiberationSans-31"/>
       <use x="55.615234375" xlink:href="#LiberationSans-35"/>
       <use x="111.23046875" xlink:href="#LiberationSans-30"/>
      </g>
     </g>
    </g>
    <g id="xtick_11">
     <g id="line2d_58">
      <path clip-path="url(#pc9fc3d07f9)" d="
M648 972
L648 579.273" style="fill:none;stroke:#ffffff;stroke-linecap:round;"/>
     </g>
     <g id="line2d_59">
      <g>
       <use style="fill:#262626;stroke:#262626;" x="648.0" xlink:href="#m219da94a98" y="972.0"/>
      </g>
     </g>
     <g id="line2d_60">
      <g>
       <use style="fill:#262626;stroke:#262626;" x="648.0" xlink:href="#m219da94a98" y="579.272727273"/>
      </g>
     </g>
     <g id="text_23">
      <!-- 200 -->
      <g style="fill:#262626;" transform="translate(636.94765625 989.145625)scale(0.14 -0.14)">
       <use xlink:href="#LiberationSans-32"/>
       <use x="55.615234375" xlink:href="#LiberationSans-30"/>
       <use x="111.23046875" xlink:href="#LiberationSans-30"/>
      </g>
     </g>
    </g>
    <g id="text_24">
     <!-- # SHMs in IGHV -->
     <g style="fill:#262626;" transform="translate(310.35625 1008.645625)scale(0.16 -0.16)">
      <use xlink:href="#LiberationSans-23"/>
      <use x="55.615234375" xlink:href="#LiberationSans-20"/>
      <use x="83.3984375" xlink:href="#LiberationSans-53"/>
      <use x="150.09765625" xlink:href="#LiberationSans-48"/>
      <use x="222.314453125" xlink:href="#LiberationSans-4d"/>
      <use x="305.615234375" xlink:href="#LiberationSans-73"/>
      <use x="355.615234375" xlink:href="#LiberationSans-20"/>
      <use x="383.3984375" xlink:href="#LiberationSans-69"/>
      <use x="405.615234375" xlink:href="#LiberationSans-6e"/>
      <use x="461.23046875" xlink:href="#LiberationSans-20"/>
      <use x="489.013671875" xlink:href="#LiberationSans-49"/>
      <use x="516.796875" xlink:href="#LiberationSans-47"/>
      <use x="594.580078125" xlink:href="#LiberationSans-48"/>
      <use x="666.796875" xlink:href="#LiberationSans-56"/>
     </g>
    </g>
   </g>
   <g id="matplotlib.axis_4">
    <g id="ytick_10">
     <g id="line2d_61">
      <path clip-path="url(#pc9fc3d07f9)" d="
M90 972
L648 972" style="fill:none;stroke:#ffffff;stroke-linecap:round;"/>
     </g>
     <g id="line2d_62">
      <g>
       <use style="fill:#262626;stroke:#262626;" x="90.0" xlink:href="#m219da94a98" y="972.0"/>
      </g>
     </g>
     <g id="line2d_63">
      <g>
       <use style="fill:#262626;stroke:#262626;" x="648.0" xlink:href="#m219da94a98" y="972.0"/>
      </g>
     </g>
     <g id="text_25">
      <!-- 0 -->
      <g style="fill:#262626;" transform="translate(76.3084375 975.6203125)scale(0.14 -0.14)">
       <use xlink:href="#LiberationSans-30"/>
      </g>
     </g>
    </g>
    <g id="ytick_11">
     <g id="line2d_64">
      <path clip-path="url(#pc9fc3d07f9)" d="
M90 906.545
L648 906.545" style="fill:none;stroke:#ffffff;stroke-linecap:round;"/>
     </g>
     <g id="line2d_65">
      <g>
       <use style="fill:#262626;stroke:#262626;" x="90.0" xlink:href="#m219da94a98" y="906.545454545"/>
      </g>
     </g>
     <g id="line2d_66">
      <g>
       <use style="fill:#262626;stroke:#262626;" x="648.0" xlink:href="#m219da94a98" y="906.545454545"/>
      </g>
     </g>
     <g id="text_26">
      <!-- 20000 -->
      <g style="fill:#262626;" transform="translate(45.3246875 910.165767045)scale(0.14 -0.14)">
       <use xlink:href="#LiberationSans-32"/>
       <use x="55.615234375" xlink:href="#LiberationSans-30"/>
       <use x="111.23046875" xlink:href="#LiberationSans-30"/>
       <use x="166.845703125" xlink:href="#LiberationSans-30"/>
       <use x="222.4609375" xlink:href="#LiberationSans-30"/>
      </g>
     </g>
    </g>
    <g id="ytick_12">
     <g id="line2d_67">
      <path clip-path="url(#pc9fc3d07f9)" d="
M90 841.091
L648 841.091" style="fill:none;stroke:#ffffff;stroke-linecap:round;"/>
     </g>
     <g id="line2d_68">
      <g>
       <use style="fill:#262626;stroke:#262626;" x="90.0" xlink:href="#m219da94a98" y="841.090909091"/>
      </g>
     </g>
     <g id="line2d_69">
      <g>
       <use style="fill:#262626;stroke:#262626;" x="648.0" xlink:href="#m219da94a98" y="841.090909091"/>
      </g>
     </g>
     <g id="text_27">
      <!-- 40000 -->
      <g style="fill:#262626;" transform="translate(44.941875 844.711221591)scale(0.14 -0.14)">
       <use xlink:href="#LiberationSans-34"/>
       <use x="55.615234375" xlink:href="#LiberationSans-30"/>
       <use x="111.23046875" xlink:href="#LiberationSans-30"/>
       <use x="166.845703125" xlink:href="#LiberationSans-30"/>
       <use x="222.4609375" xlink:href="#LiberationSans-30"/>
      </g>
     </g>
    </g>
    <g id="ytick_13">
     <g id="line2d_70">
      <path clip-path="url(#pc9fc3d07f9)" d="
M90 775.636
L648 775.636" style="fill:none;stroke:#ffffff;stroke-linecap:round;"/>
     </g>
     <g id="line2d_71">
      <g>
       <use style="fill:#262626;stroke:#262626;" x="90.0" xlink:href="#m219da94a98" y="775.636363636"/>
      </g>
     </g>
     <g id="line2d_72">
      <g>
       <use style="fill:#262626;stroke:#262626;" x="648.0" xlink:href="#m219da94a98" y="775.636363636"/>
      </g>
     </g>
     <g id="text_28">
      <!-- 60000 -->
      <g style="fill:#262626;" transform="translate(45.33125 779.256676136)scale(0.14 -0.14)">
       <use xlink:href="#LiberationSans-36"/>
       <use x="55.615234375" xlink:href="#LiberationSans-30"/>
       <use x="111.23046875" xlink:href="#LiberationSans-30"/>
       <use x="166.845703125" xlink:href="#LiberationSans-30"/>
       <use x="222.4609375" xlink:href="#LiberationSans-30"/>
      </g>
     </g>
    </g>
    <g id="ytick_14">
     <g id="line2d_73">
      <path clip-path="url(#pc9fc3d07f9)" d="
M90 710.182
L648 710.182" style="fill:none;stroke:#ffffff;stroke-linecap:round;"/>
     </g>
     <g id="line2d_74">
      <g>
       <use style="fill:#262626;stroke:#262626;" x="90.0" xlink:href="#m219da94a98" y="710.181818182"/>
      </g>
     </g>
     <g id="line2d_75">
      <g>
       <use style="fill:#262626;stroke:#262626;" x="648.0" xlink:href="#m219da94a98" y="710.181818182"/>
      </g>
     </g>
     <g id="text_29">
      <!-- 80000 -->
      <g style="fill:#262626;" transform="translate(45.2284375 713.802130682)scale(0.14 -0.14)">
       <use xlink:href="#LiberationSans-38"/>
       <use x="55.615234375" xlink:href="#LiberationSans-30"/>
       <use x="111.23046875" xlink:href="#LiberationSans-30"/>
       <use x="166.845703125" xlink:href="#LiberationSans-30"/>
       <use x="222.4609375" xlink:href="#LiberationSans-30"/>
      </g>
     </g>
    </g>
    <g id="ytick_15">
     <g id="line2d_76">
      <path clip-path="url(#pc9fc3d07f9)" d="
M90 644.727
L648 644.727" style="fill:none;stroke:#ffffff;stroke-linecap:round;"/>
     </g>
     <g id="line2d_77">
      <g>
       <use style="fill:#262626;stroke:#262626;" x="90.0" xlink:href="#m219da94a98" y="644.727272727"/>
      </g>
     </g>
     <g id="line2d_78">
      <g>
       <use style="fill:#262626;stroke:#262626;" x="648.0" xlink:href="#m219da94a98" y="644.727272727"/>
      </g>
     </g>
     <g id="text_30">
      <!-- 100000 -->
      <g style="fill:#262626;" transform="translate(37.9025 648.347585227)scale(0.14 -0.14)">
       <use xlink:href="#LiberationSans-31"/>
       <use x="55.615234375" xlink:href="#LiberationSans-30"/>
       <use x="111.23046875" xlink:href="#LiberationSans-30"/>
       <use x="166.845703125" xlink:href="#LiberationSans-30"/>
       <use x="222.4609375" xlink:href="#LiberationSans-30"/>
       <use x="278.076171875" xlink:href="#LiberationSans-30"/>
      </g>
     </g>
    </g>
    <g id="ytick_16">
     <g id="line2d_79">
      <path clip-path="url(#pc9fc3d07f9)" d="
M90 579.273
L648 579.273" style="fill:none;stroke:#ffffff;stroke-linecap:round;"/>
     </g>
     <g id="line2d_80">
      <g>
       <use style="fill:#262626;stroke:#262626;" x="90.0" xlink:href="#m219da94a98" y="579.272727273"/>
      </g>
     </g>
     <g id="line2d_81">
      <g>
       <use style="fill:#262626;stroke:#262626;" x="648.0" xlink:href="#m219da94a98" y="579.272727273"/>
      </g>
     </g>
     <g id="text_31">
      <!-- 120000 -->
      <g style="fill:#262626;" transform="translate(37.9025 582.893039773)scale(0.14 -0.14)">
       <use xlink:href="#LiberationSans-31"/>
       <use x="55.615234375" xlink:href="#LiberationSans-32"/>
       <use x="111.23046875" xlink:href="#LiberationSans-30"/>
       <use x="166.845703125" xlink:href="#LiberationSans-30"/>
       <use x="222.4609375" xlink:href="#LiberationSans-30"/>
       <use x="278.076171875" xlink:href="#LiberationSans-30"/>
      </g>
     </g>
    </g>
    <g id="text_32">
     <!-- # sequences -->
     <defs>
      <path d="
M23.6406 -0.984375
Q13.5781 -0.984375 8.89062 5.79688
Q4.20312 12.5938 4.20312 26.1719
Q4.20312 39.9375 9 46.875
Q13.8125 53.8125 23.6406 53.8125
Q26.9062 53.8125 29.4219 53.2188
Q31.9375 52.6406 33.9062 51.4844
Q35.8906 50.3438 37.375 48.625
Q38.875 46.9219 40.0938 44.625
L40.1875 44.625
Q40.1875 45.8438 40.25 47.3281
Q40.3281 48.8281 40.4062 50.1406
Q40.4844 51.4688 40.5781 52.4219
Q40.6719 53.375 40.7656 53.5156
L49.2188 53.5156
Q49.125 52.6875 49 49.1719
Q48.875 45.6562 48.875 39.1094
L48.875 -20.75
L40.0938 -20.75
L40.0938 0.6875
Q40.0938 1.95312 40.1094 3.3125
Q40.1406 4.6875 40.1875 5.90625
Q40.2344 7.28125 40.2812 8.6875
L40.1875 8.6875
Q38.9219 6.20312 37.375 4.375
Q35.8438 2.54688 33.8438 1.34375
Q31.8438 0.140625 29.3281 -0.421875
Q26.8125 -0.984375 23.6406 -0.984375
M40.0938 27.0469
Q40.0938 32.8125 39.0938 36.7188
Q38.0938 40.625 36.25 42.9688
Q34.4219 45.3125 31.8125 46.3125
Q29.2031 47.3125 25.9844 47.3125
Q22.6094 47.3125 20.2188 46.0625
Q17.8281 44.8281 16.3281 42.2656
Q14.8438 39.7031 14.125 35.7656
Q13.4219 31.8438 13.4219 26.4688
Q13.4219 21.1875 14.0781 17.2812
Q14.75 13.375 16.2344 10.8281
Q17.7188 8.29688 20.0938 7.04688
Q22.4688 5.8125 25.875 5.8125
Q28.8125 5.8125 31.3906 6.71875
Q33.9844 7.625 35.9062 9.98438
Q37.8438 12.3594 38.9688 16.4844
Q40.0938 20.6094 40.0938 27.0469" id="LiberationSans-71"/>
      <path d="
M15.3281 52.8281
L15.3281 19.3438
Q15.3281 15.4844 15.8906 12.8906
Q16.4531 10.2969 17.7188 8.70312
Q19 7.125 21.0625 6.46875
Q23.1406 5.8125 26.2188 5.8125
Q29.3438 5.8125 31.8594 6.90625
Q34.375 8.01562 36.1562 10.0781
Q37.9375 12.1562 38.9062 15.2031
Q39.8906 18.2656 39.8906 22.2188
L39.8906 52.8281
L48.6875 52.8281
L48.6875 11.2812
Q48.6875 9.625 48.7031 7.78125
Q48.7344 5.95312 48.7812 4.3125
Q48.8281 2.6875 48.875 1.51562
Q48.9219 0.34375 48.9688 0
L40.6719 0
Q40.625 0.25 40.5781 1.3125
Q40.5312 2.39062 40.4531 3.78125
Q40.375 5.17188 40.3281 6.60938
Q40.2812 8.0625 40.2812 9.03125
L40.1406 9.03125
Q38.875 6.73438 37.3594 4.875
Q35.8438 3.03125 33.8438 1.73438
Q31.8438 0.4375 29.25 -0.265625
Q26.6562 -0.984375 23.25 -0.984375
Q18.8438 -0.984375 15.6719 0.09375
Q12.5 1.17188 10.4531 3.42188
Q8.40625 5.67188 7.45312 9.1875
Q6.5 12.7031 6.5 17.625
L6.5 52.8281
z
" id="LiberationSans-75"/>
      <path d="
M13.4219 26.6562
Q13.4219 22.125 14.0781 18.3125
Q14.75 14.5 16.3125 11.7344
Q17.875 8.98438 20.4375 7.46875
Q23 5.95312 26.7656 5.95312
Q31.4531 5.95312 34.5938 8.48438
Q37.75 11.0312 38.4844 16.3125
L47.3594 15.7188
Q46.9219 12.4531 45.4531 9.42188
Q44 6.39062 41.4844 4.09375
Q38.9688 1.8125 35.3438 0.40625
Q31.7344 -0.984375 27 -0.984375
Q20.7969 -0.984375 16.4531 1.10938
Q12.1094 3.21875 9.39062 6.90625
Q6.6875 10.5938 5.46875 15.5938
Q4.25 20.6094 4.25 26.4688
Q4.25 31.7812 5.125 35.8594
Q6 39.9375 7.59375 42.9844
Q9.1875 46.0469 11.3281 48.125
Q13.4844 50.2031 15.9844 51.4375
Q18.5 52.6875 21.2812 53.25
Q24.0781 53.8125 26.9062 53.8125
Q31.3438 53.8125 34.8125 52.5938
Q38.2812 51.375 40.7969 49.25
Q43.3125 47.125 44.875 44.2344
Q46.4375 41.3594 47.0781 38.0312
L38.0312 37.3594
Q37.3594 41.75 34.5625 44.3281
Q31.7812 46.9219 26.6562 46.9219
Q22.9062 46.9219 20.3906 45.6719
Q17.875 44.4375 16.3125 41.9219
Q14.75 39.4062 14.0781 35.5938
Q13.4219 31.7812 13.4219 26.6562" id="LiberationSans-63"/>
     </defs>
     <g style="fill:#262626;" transform="translate(29.5825 820.711363636)rotate(-90.0)scale(0.16 -0.16)">
      <use xlink:href="#LiberationSans-23"/>
      <use x="55.615234375" xlink:href="#LiberationSans-20"/>
      <use x="83.3984375" xlink:href="#LiberationSans-73"/>
      <use x="133.3984375" xlink:href="#LiberationSans-65"/>
      <use x="189.013671875" xlink:href="#LiberationSans-71"/>
      <use x="244.62890625" xlink:href="#LiberationSans-75"/>
      <use x="300.244140625" xlink:href="#LiberationSans-65"/>
      <use x="355.859375" xlink:href="#LiberationSans-6e"/>
      <use x="411.474609375" xlink:href="#LiberationSans-63"/>
      <use x="461.474609375" xlink:href="#LiberationSans-65"/>
      <use x="517.08984375" xlink:href="#LiberationSans-73"/>
     </g>
    </g>
   </g>
   <g id="patch_58">
    <path clip-path="url(#pc9fc3d07f9)" d="
M90 972
L101.104 972
L101.104 826.995
L90 826.995
z
" style="fill:#4878cf;opacity:0.75;stroke:#1a1a1a;stroke-linejoin:miter;stroke-width:0.3;"/>
   </g>
   <g id="patch_59">
    <path clip-path="url(#pc9fc3d07f9)" d="
M101.104 972
L112.208 972
L112.208 720.903
L101.104 720.903
z
" style="fill:#4878cf;opacity:0.75;stroke:#1a1a1a;stroke-linejoin:miter;stroke-width:0.3;"/>
   </g>
   <g id="patch_60">
    <path clip-path="url(#pc9fc3d07f9)" d="
M112.208 972
L123.313 972
L123.313 644.773
L112.208 644.773
z
" style="fill:#4878cf;opacity:0.75;stroke:#1a1a1a;stroke-linejoin:miter;stroke-width:0.3;"/>
   </g>
   <g id="patch_61">
    <path clip-path="url(#pc9fc3d07f9)" d="
M123.313 972
L134.417 972
L134.417 631.659
L123.313 631.659
z
" style="fill:#4878cf;opacity:0.75;stroke:#1a1a1a;stroke-linejoin:miter;stroke-width:0.3;"/>
   </g>
   <g id="patch_62">
    <path clip-path="url(#pc9fc3d07f9)" d="
M134.417 972
L145.521 972
L145.521 681.221
L134.417 681.221
z
" style="fill:#4878cf;opacity:0.75;stroke:#1a1a1a;stroke-linejoin:miter;stroke-width:0.3;"/>
   </g>
   <g id="patch_63">
    <path clip-path="url(#pc9fc3d07f9)" d="
M145.521 972
L156.625 972
L156.625 728.493
L145.521 728.493
z
" style="fill:#4878cf;opacity:0.75;stroke:#1a1a1a;stroke-linejoin:miter;stroke-width:0.3;"/>
   </g>
   <g id="patch_64">
    <path clip-path="url(#pc9fc3d07f9)" d="
M156.625 972
L167.729 972
L167.729 786.512
L156.625 786.512
z
" style="fill:#4878cf;opacity:0.75;stroke:#1a1a1a;stroke-linejoin:miter;stroke-width:0.3;"/>
   </g>
   <g id="patch_65">
    <path clip-path="url(#pc9fc3d07f9)" d="
M167.729 972
L178.834 972
L178.834 844.796
L167.729 844.796
z
" style="fill:#4878cf;opacity:0.75;stroke:#1a1a1a;stroke-linejoin:miter;stroke-width:0.3;"/>
   </g>
   <g id="patch_66">
    <path clip-path="url(#pc9fc3d07f9)" d="
M178.834 972
L189.938 972
L189.938 892.42
L178.834 892.42
z
" style="fill:#4878cf;opacity:0.75;stroke:#1a1a1a;stroke-linejoin:miter;stroke-width:0.3;"/>
   </g>
   <g id="patch_67">
    <path clip-path="url(#pc9fc3d07f9)" d="
M189.938 972
L201.042 972
L201.042 925.786
L189.938 925.786
z
" style="fill:#4878cf;opacity:0.75;stroke:#1a1a1a;stroke-linejoin:miter;stroke-width:0.3;"/>
   </g>
   <g id="patch_68">
    <path clip-path="url(#pc9fc3d07f9)" d="
M201.042 972
L212.146 972
L212.146 942.473
L201.042 942.473
z
" style="fill:#4878cf;opacity:0.75;stroke:#1a1a1a;stroke-linejoin:miter;stroke-width:0.3;"/>
   </g>
   <g id="patch_69">
    <path clip-path="url(#pc9fc3d07f9)" d="
M212.146 972
L223.25 972
L223.25 955.214
L212.146 955.214
z
" style="fill:#4878cf;opacity:0.75;stroke:#1a1a1a;stroke-linejoin:miter;stroke-width:0.3;"/>
   </g>
   <g id="patch_70">
    <path clip-path="url(#pc9fc3d07f9)" d="
M223.25 972
L234.355 972
L234.355 961.891
L223.25 961.891
z
" style="fill:#4878cf;opacity:0.75;stroke:#1a1a1a;stroke-linejoin:miter;stroke-width:0.3;"/>
   </g>
   <g id="patch_71">
    <path clip-path="url(#pc9fc3d07f9)" d="
M234.355 972
L245.459 972
L245.459 967.958
L234.355 967.958
z
" style="fill:#4878cf;opacity:0.75;stroke:#1a1a1a;stroke-linejoin:miter;stroke-width:0.3;"/>
   </g>
   <g id="patch_72">
    <path clip-path="url(#pc9fc3d07f9)" d="
M245.459 972
L256.563 972
L256.563 967.274
L245.459 967.274
z
" style="fill:#4878cf;opacity:0.75;stroke:#1a1a1a;stroke-linejoin:miter;stroke-width:0.3;"/>
   </g>
   <g id="patch_73">
    <path clip-path="url(#pc9fc3d07f9)" d="
M256.563 972
L267.667 972
L267.667 970.2
L256.563 970.2
z
" style="fill:#4878cf;opacity:0.75;stroke:#1a1a1a;stroke-linejoin:miter;stroke-width:0.3;"/>
   </g>
   <g id="patch_74">
    <path clip-path="url(#pc9fc3d07f9)" d="
M267.667 972
L278.771 972
L278.771 970.521
L267.667 970.521
z
" style="fill:#4878cf;opacity:0.75;stroke:#1a1a1a;stroke-linejoin:miter;stroke-width:0.3;"/>
   </g>
   <g id="patch_75">
    <path clip-path="url(#pc9fc3d07f9)" d="
M278.771 972
L289.876 972
L289.876 971.143
L278.771 971.143
z
" style="fill:#4878cf;opacity:0.75;stroke:#1a1a1a;stroke-linejoin:miter;stroke-width:0.3;"/>
   </g>
   <g id="patch_76">
    <path clip-path="url(#pc9fc3d07f9)" d="
M289.876 972
L300.98 972
L300.98 971.437
L289.876 971.437
z
" style="fill:#4878cf;opacity:0.75;stroke:#1a1a1a;stroke-linejoin:miter;stroke-width:0.3;"/>
   </g>
   <g id="patch_77">
    <path clip-path="url(#pc9fc3d07f9)" d="
M300.98 972
L312.084 972
L312.084 971.614
L300.98 971.614
z
" style="fill:#4878cf;opacity:0.75;stroke:#1a1a1a;stroke-linejoin:miter;stroke-width:0.3;"/>
   </g>
   <g id="patch_78">
    <path clip-path="url(#pc9fc3d07f9)" d="
M312.084 972
L323.188 972
L323.188 971.65
L312.084 971.65
z
" style="fill:#4878cf;opacity:0.75;stroke:#1a1a1a;stroke-linejoin:miter;stroke-width:0.3;"/>
   </g>
   <g id="patch_79">
    <path clip-path="url(#pc9fc3d07f9)" d="
M323.188 972
L334.292 972
L334.292 971.65
L323.188 971.65
z
" style="fill:#4878cf;opacity:0.75;stroke:#1a1a1a;stroke-linejoin:miter;stroke-width:0.3;"/>
   </g>
   <g id="patch_80">
    <path clip-path="url(#pc9fc3d07f9)" d="
M334.292 972
L345.397 972
L345.397 970.904
L334.292 970.904
z
" style="fill:#4878cf;opacity:0.75;stroke:#1a1a1a;stroke-linejoin:miter;stroke-width:0.3;"/>
   </g>
   <g id="patch_81">
    <path clip-path="url(#pc9fc3d07f9)" d="
M345.397 972
L356.501 972
L356.501 971.82
L345.397 971.82
z
" style="fill:#4878cf;opacity:0.75;stroke:#1a1a1a;stroke-linejoin:miter;stroke-width:0.3;"/>
   </g>
   <g id="patch_82">
    <path clip-path="url(#pc9fc3d07f9)" d="
M356.501 972
L367.605 972
L367.605 971.872
L356.501 971.872
z
" style="fill:#4878cf;opacity:0.75;stroke:#1a1a1a;stroke-linejoin:miter;stroke-width:0.3;"/>
   </g>
   <g id="patch_83">
    <path clip-path="url(#pc9fc3d07f9)" d="
M367.605 972
L378.709 972
L378.709 971.813
L367.605 971.813
z
" style="fill:#4878cf;opacity:0.75;stroke:#1a1a1a;stroke-linejoin:miter;stroke-width:0.3;"/>
   </g>
   <g id="patch_84">
    <path clip-path="url(#pc9fc3d07f9)" d="
M378.709 972
L389.813 972
L389.813 971.863
L378.709 971.863
z
" style="fill:#4878cf;opacity:0.75;stroke:#1a1a1a;stroke-linejoin:miter;stroke-width:0.3;"/>
   </g>
   <g id="patch_85">
    <path clip-path="url(#pc9fc3d07f9)" d="
M389.813 972
L400.918 972
L400.918 971.902
L389.813 971.902
z
" style="fill:#4878cf;opacity:0.75;stroke:#1a1a1a;stroke-linejoin:miter;stroke-width:0.3;"/>
   </g>
   <g id="patch_86">
    <path clip-path="url(#pc9fc3d07f9)" d="
M400.918 972
L412.022 972
L412.022 971.921
L400.918 971.921
z
" style="fill:#4878cf;opacity:0.75;stroke:#1a1a1a;stroke-linejoin:miter;stroke-width:0.3;"/>
   </g>
   <g id="patch_87">
    <path clip-path="url(#pc9fc3d07f9)" d="
M412.022 972
L423.126 972
L423.126 971.905
L412.022 971.905
z
" style="fill:#4878cf;opacity:0.75;stroke:#1a1a1a;stroke-linejoin:miter;stroke-width:0.3;"/>
   </g>
   <g id="patch_88">
    <path clip-path="url(#pc9fc3d07f9)" d="
M423.126 972
L434.23 972
L434.23 971.957
L423.126 971.957
z
" style="fill:#4878cf;opacity:0.75;stroke:#1a1a1a;stroke-linejoin:miter;stroke-width:0.3;"/>
   </g>
   <g id="patch_89">
    <path clip-path="url(#pc9fc3d07f9)" d="
M434.23 972
L445.334 972
L445.334 971.935
L434.23 971.935
z
" style="fill:#4878cf;opacity:0.75;stroke:#1a1a1a;stroke-linejoin:miter;stroke-width:0.3;"/>
   </g>
   <g id="patch_90">
    <path clip-path="url(#pc9fc3d07f9)" d="
M445.334 972
L456.439 972
L456.439 971.977
L445.334 971.977
z
" style="fill:#4878cf;opacity:0.75;stroke:#1a1a1a;stroke-linejoin:miter;stroke-width:0.3;"/>
   </g>
   <g id="patch_91">
    <path clip-path="url(#pc9fc3d07f9)" d="
M456.439 972
L467.543 972
L467.543 971.974
L456.439 971.974
z
" style="fill:#4878cf;opacity:0.75;stroke:#1a1a1a;stroke-linejoin:miter;stroke-width:0.3;"/>
   </g>
   <g id="patch_92">
    <path clip-path="url(#pc9fc3d07f9)" d="
M467.543 972
L478.647 972
L478.647 971.99
L467.543 971.99
z
" style="fill:#4878cf;opacity:0.75;stroke:#1a1a1a;stroke-linejoin:miter;stroke-width:0.3;"/>
   </g>
   <g id="patch_93">
    <path clip-path="url(#pc9fc3d07f9)" d="
M478.647 972
L489.751 972
L489.751 971.987
L478.647 971.987
z
" style="fill:#4878cf;opacity:0.75;stroke:#1a1a1a;stroke-linejoin:miter;stroke-width:0.3;"/>
   </g>
   <g id="patch_94">
    <path clip-path="url(#pc9fc3d07f9)" d="
M489.751 972
L500.855 972
L500.855 971.987
L489.751 971.987
z
" style="fill:#4878cf;opacity:0.75;stroke:#1a1a1a;stroke-linejoin:miter;stroke-width:0.3;"/>
   </g>
   <g id="patch_95">
    <path clip-path="url(#pc9fc3d07f9)" d="
M500.855 972
L511.96 972
L511.96 971.987
L500.855 971.987
z
" style="fill:#4878cf;opacity:0.75;stroke:#1a1a1a;stroke-linejoin:miter;stroke-width:0.3;"/>
   </g>
   <g id="patch_96">
    <path clip-path="url(#pc9fc3d07f9)" d="
M511.96 972
L523.064 972
L523.064 971.99
L511.96 971.99
z
" style="fill:#4878cf;opacity:0.75;stroke:#1a1a1a;stroke-linejoin:miter;stroke-width:0.3;"/>
   </g>
   <g id="patch_97">
    <path clip-path="url(#pc9fc3d07f9)" d="
M523.064 972
L534.168 972
L534.168 971.997
L523.064 971.997
z
" style="fill:#4878cf;opacity:0.75;stroke:#1a1a1a;stroke-linejoin:miter;stroke-width:0.3;"/>
   </g>
   <g id="patch_98">
    <path clip-path="url(#pc9fc3d07f9)" d="
M534.168 972
L545.272 972
L545.272 972
L534.168 972
z
" style="fill:#4878cf;opacity:0.75;stroke:#1a1a1a;stroke-linejoin:miter;stroke-width:0.3;"/>
   </g>
   <g id="patch_99">
    <path clip-path="url(#pc9fc3d07f9)" d="
M545.272 972
L556.376 972
L556.376 971.997
L545.272 971.997
z
" style="fill:#4878cf;opacity:0.75;stroke:#1a1a1a;stroke-linejoin:miter;stroke-width:0.3;"/>
   </g>
   <g id="patch_100">
    <path clip-path="url(#pc9fc3d07f9)" d="
M556.376 972
L567.481 972
L567.481 972
L556.376 972
z
" style="fill:#4878cf;opacity:0.75;stroke:#1a1a1a;stroke-linejoin:miter;stroke-width:0.3;"/>
   </g>
   <g id="patch_101">
    <path clip-path="url(#pc9fc3d07f9)" d="
M567.481 972
L578.585 972
L578.585 971.997
L567.481 971.997
z
" style="fill:#4878cf;opacity:0.75;stroke:#1a1a1a;stroke-linejoin:miter;stroke-width:0.3;"/>
   </g>
   <g id="patch_102">
    <path clip-path="url(#pc9fc3d07f9)" d="
M578.585 972
L589.689 972
L589.689 971.997
L578.585 971.997
z
" style="fill:#4878cf;opacity:0.75;stroke:#1a1a1a;stroke-linejoin:miter;stroke-width:0.3;"/>
   </g>
   <g id="patch_103">
    <path clip-path="url(#pc9fc3d07f9)" d="
M589.689 972
L600.793 972
L600.793 971.993
L589.689 971.993
z
" style="fill:#4878cf;opacity:0.75;stroke:#1a1a1a;stroke-linejoin:miter;stroke-width:0.3;"/>
   </g>
   <g id="patch_104">
    <path clip-path="url(#pc9fc3d07f9)" d="
M600.793 972
L611.897 972
L611.897 971.99
L600.793 971.99
z
" style="fill:#4878cf;opacity:0.75;stroke:#1a1a1a;stroke-linejoin:miter;stroke-width:0.3;"/>
   </g>
   <g id="patch_105">
    <path clip-path="url(#pc9fc3d07f9)" d="
M611.897 972
L623.002 972
L623.002 971.993
L611.897 971.993
z
" style="fill:#4878cf;opacity:0.75;stroke:#1a1a1a;stroke-linejoin:miter;stroke-width:0.3;"/>
   </g>
   <g id="patch_106">
    <path clip-path="url(#pc9fc3d07f9)" d="
M623.002 972
L634.106 972
L634.106 971.997
L623.002 971.997
z
" style="fill:#4878cf;opacity:0.75;stroke:#1a1a1a;stroke-linejoin:miter;stroke-width:0.3;"/>
   </g>
   <g id="patch_107">
    <path clip-path="url(#pc9fc3d07f9)" d="
M634.106 972
L645.21 972
L645.21 971.993
L634.106 971.993
z
" style="fill:#4878cf;opacity:0.75;stroke:#1a1a1a;stroke-linejoin:miter;stroke-width:0.3;"/>
   </g>
   <g id="patch_108">
    <path d="
M90 579.273
L648 579.273" style="fill:none;"/>
   </g>
   <g id="patch_109">
    <path d="
M648 972
L648 579.273" style="fill:none;"/>
   </g>
   <g id="patch_110">
    <path d="
M90 972
L648 972" style="fill:none;"/>
   </g>
   <g id="patch_111">
    <path d="
M90 972
L90 579.273" style="fill:none;"/>
   </g>
  </g>
 </g>
 <defs>
  <clipPath id="p1d596a7909">
   <rect height="392.727272727" width="558.0" x="90.0" y="108.0"/>
  </clipPath>
  <clipPath id="pc9fc3d07f9">
   <rect height="392.727272727" width="558.0" x="90.0" y="579.272727273"/>
  </clipPath>
 </defs>
</svg>
