<?xml version="1.0" encoding="utf-8" standalone="no"?>
<!DOCTYPE svg PUBLIC "-//W3C//DTD SVG 1.1//EN"
  "http://www.w3.org/Graphics/SVG/1.1/DTD/svg11.dtd">
<!-- Created with matplotlib (http://matplotlib.org/) -->
<svg height="396pt" version="1.1" viewBox="0 0 576 396" width="576pt" xmlns="http://www.w3.org/2000/svg" xmlns:xlink="http://www.w3.org/1999/xlink">
 <defs>
  <style type="text/css">
*{stroke-linecap:butt;stroke-linejoin:round;}
  </style>
 </defs>
 <g id="figure_1">
  <g id="patch_1">
   <path d="
M0 396
L576 396
L576 0
L0 0
z
" style="fill:#ffffff;"/>
  </g>
  <g id="axes_1">
   <g id="patch_2">
    <path d="
M112.32 356.4
L429.12 356.4
L429.12 39.6
L112.32 39.6
z
" style="fill:#eaeaf2;"/>
   </g>
   <g id="matplotlib.axis_1">
    <g id="xtick_1">
     <g id="line2d_1">
      <defs>
       <path d="
M0 0
L0 0" id="m219da94a98" style="stroke:#262626;"/>
      </defs>
      <g>
       <use style="fill:#262626;stroke:#262626;" x="151.92" xlink:href="#m219da94a98" y="356.4"/>
      </g>
     </g>
     <g id="text_1">
      <!-- A -->
      <defs>
       <path d="
M56.9844 0
L49.125 20.125
L17.7812 20.125
L9.85938 0
L0.203125 0
L28.2656 68.7969
L38.875 68.7969
L66.5 0
z

M37.5 50.0938
Q36.7188 52.0469 36 54.0469
Q35.2969 56.0625 34.7656 57.6875
Q34.2344 59.3281 33.8594 60.4219
Q33.5 61.5312 33.4531 61.7656
Q33.3438 61.5312 33 60.4062
Q32.6719 59.2812 32.1094 57.6094
Q31.5469 55.9531 30.8281 53.9531
Q30.125 51.9531 29.3906 50
L20.6094 27.3906
L46.3438 27.3906
z
" id="LiberationSans-41"/>
      </defs>
      <g style="fill:#262626;" transform="translate(147.9421875 372.09625)scale(0.12 -0.12)">
       <use xlink:href="#LiberationSans-41"/>
      </g>
     </g>
    </g>
    <g id="xtick_2">
     <g id="line2d_2">
      <g>
       <use style="fill:#262626;stroke:#262626;" x="231.12" xlink:href="#m219da94a98" y="356.4"/>
      </g>
     </g>
     <g id="text_2">
      <!-- C -->
      <defs>
       <path d="
M38.6719 62.2031
Q32.8125 62.2031 28.2969 60.25
Q23.7812 58.2969 20.7188 54.6875
Q17.6719 51.0781 16.1094 46
Q14.5469 40.9219 14.5469 34.7188
Q14.5469 28.5156 16.2344 23.3594
Q17.9219 18.2188 21.0625 14.5
Q24.2188 10.7969 28.7812 8.73438
Q33.3438 6.6875 39.0625 6.6875
Q43.0625 6.6875 46.3594 7.73438
Q49.6562 8.79688 52.3125 10.6875
Q54.9844 12.5938 57.0781 15.2031
Q59.1875 17.8281 60.7969 21
L68.4062 17.1875
Q66.5469 13.3281 63.8125 10
Q61.0781 6.6875 57.3906 4.25
Q53.7188 1.8125 49.0469 0.40625
Q44.3906 -0.984375 38.625 -0.984375
Q30.2812 -0.984375 24 1.67188
Q17.7188 4.34375 13.5 9.10938
Q9.28125 13.875 7.17188 20.4062
Q5.07812 26.9531 5.07812 34.7188
Q5.07812 42.7812 7.29688 49.2656
Q9.51562 55.7656 13.7812 60.3281
Q18.0625 64.8906 24.3125 67.3594
Q30.5625 69.8281 38.5781 69.8281
Q49.5625 69.8281 56.9375 65.5312
Q64.3125 61.2344 67.7812 52.7812
L58.9375 49.8594
Q57.9531 52.2969 56.2969 54.5156
Q54.6406 56.7344 52.1406 58.4375
Q49.6562 60.1562 46.3125 61.1719
Q42.9688 62.2031 38.6719 62.2031" id="LiberationSans-43"/>
      </defs>
      <g style="fill:#262626;" transform="translate(227.3203125 372.09625)scale(0.12 -0.12)">
       <use xlink:href="#LiberationSans-43"/>
      </g>
     </g>
    </g>
    <g id="xtick_3">
     <g id="line2d_3">
      <g>
       <use style="fill:#262626;stroke:#262626;" x="310.32" xlink:href="#m219da94a98" y="356.4"/>
      </g>
     </g>
     <g id="text_3">
      <!-- G -->
      <defs>
       <path d="
M5.03125 34.7188
Q5.03125 42.7812 7.20312 49.2656
Q9.375 55.7656 13.6875 60.3281
Q18.0156 64.8906 24.4062 67.3594
Q30.8125 69.8281 39.2656 69.8281
Q45.6094 69.8281 50.3906 68.7031
Q55.1719 67.5781 58.6875 65.4688
Q62.2031 63.375 64.6406 60.375
Q67.0938 57.375 68.7969 53.6094
L59.9062 50.9844
Q58.6406 53.5156 56.8594 55.5938
Q55.0781 57.6719 52.5312 59.125
Q50 60.5938 46.6562 61.3906
Q43.3125 62.2031 39.0156 62.2031
Q32.7656 62.2031 28.1406 60.25
Q23.5312 58.2969 20.5 54.6875
Q17.4844 51.0781 15.9844 46
Q14.5 40.9219 14.5 34.7188
Q14.5 28.5156 16.1094 23.3594
Q17.7188 18.2188 20.8906 14.4844
Q24.0781 10.75 28.7812 8.67188
Q33.5 6.59375 39.7031 6.59375
Q43.75 6.59375 47.1719 7.26562
Q50.5938 7.95312 53.3438 9.04688
Q56.1094 10.1562 58.2031 11.5
Q60.2969 12.8438 61.7188 14.2031
L61.7188 26.6094
L41.1562 26.6094
L41.1562 34.4219
L70.3125 34.4219
L70.3125 10.6875
Q68.0156 8.34375 64.9062 6.21875
Q61.8125 4.10938 57.9531 2.48438
Q54.1094 0.875 49.5156 -0.046875
Q44.9219 -0.984375 39.7031 -0.984375
Q31 -0.984375 24.5 1.67188
Q18.0156 4.34375 13.6875 9.10938
Q9.375 13.875 7.20312 20.4062
Q5.03125 26.9531 5.03125 34.7188" id="LiberationSans-47"/>
      </defs>
      <g style="fill:#262626;" transform="translate(306.403125 372.09625)scale(0.12 -0.12)">
       <use xlink:href="#LiberationSans-47"/>
      </g>
     </g>
    </g>
    <g id="xtick_4">
     <g id="line2d_4">
      <g>
       <use style="fill:#262626;stroke:#262626;" x="389.52" xlink:href="#m219da94a98" y="356.4"/>
      </g>
     </g>
     <g id="text_4">
      <!-- T -->
      <defs>
       <path d="
M35.1562 61.1875
L35.1562 0
L25.875 0
L25.875 61.1875
L2.25 61.1875
L2.25 68.7969
L58.7969 68.7969
L58.7969 61.1875
z
" id="LiberationSans-54"/>
      </defs>
      <g style="fill:#262626;" transform="translate(386.1271875 372.09625)scale(0.12 -0.12)">
       <use xlink:href="#LiberationSans-54"/>
      </g>
     </g>
    </g>
    <g id="text_5">
     <!-- To -->
     <defs>
      <path d="
M51.4219 26.4688
Q51.4219 12.5938 45.3125 5.79688
Q39.2031 -0.984375 27.5938 -0.984375
Q22.0781 -0.984375 17.7188 0.671875
Q13.375 2.34375 10.375 5.76562
Q7.375 9.1875 5.78125 14.3281
Q4.20312 19.4844 4.20312 26.4688
Q4.20312 53.8125 27.875 53.8125
Q34.0312 53.8125 38.5 52.0938
Q42.9688 50.3906 45.8281 46.9688
Q48.6875 43.5625 50.0469 38.4219
Q51.4219 33.2969 51.4219 26.4688
M42.1875 26.4688
Q42.1875 32.625 41.2344 36.625
Q40.2812 40.625 38.4531 43.0156
Q36.625 45.4062 33.9844 46.3594
Q31.3438 47.3125 28.0312 47.3125
Q24.6562 47.3125 21.9375 46.3125
Q19.2344 45.3125 17.3281 42.8906
Q15.4375 40.4844 14.4219 36.4688
Q13.4219 32.4688 13.4219 26.4688
Q13.4219 20.3125 14.5 16.2812
Q15.5781 12.25 17.4531 9.85938
Q19.3438 7.46875 21.9062 6.48438
Q24.4688 5.51562 27.4844 5.51562
Q30.8594 5.51562 33.5938 6.46875
Q36.3281 7.42188 38.2344 9.8125
Q40.1406 12.2031 41.1562 16.25
Q42.1875 20.3125 42.1875 26.4688" id="LiberationSans-6f"/>
     </defs>
     <g style="fill:#262626;" transform="translate(263.78125 389.731875)scale(0.14 -0.14)">
      <use xlink:href="#LiberationSans-54"/>
      <use x="49.958984375" xlink:href="#LiberationSans-6f"/>
     </g>
    </g>
   </g>
   <g id="matplotlib.axis_2">
    <g id="ytick_1">
     <g id="line2d_5">
      <g>
       <use style="fill:#262626;stroke:#262626;" x="112.32" xlink:href="#m219da94a98" y="316.8"/>
      </g>
     </g>
     <g id="text_6">
      <!-- T -->
      <g style="fill:#262626;" transform="translate(98.534375 319.903125)scale(0.12 -0.12)">
       <use xlink:href="#LiberationSans-54"/>
      </g>
     </g>
    </g>
    <g id="ytick_2">
     <g id="line2d_6">
      <g>
       <use style="fill:#262626;stroke:#262626;" x="112.32" xlink:href="#m219da94a98" y="237.6"/>
      </g>
     </g>
     <g id="text_7">
      <!-- G -->
      <g style="fill:#262626;" transform="translate(97.48625 240.703125)scale(0.12 -0.12)">
       <use xlink:href="#LiberationSans-47"/>
      </g>
     </g>
    </g>
    <g id="ytick_3">
     <g id="line2d_7">
      <g>
       <use style="fill:#262626;stroke:#262626;" x="112.32" xlink:href="#m219da94a98" y="158.4"/>
      </g>
     </g>
     <g id="text_8">
      <!-- C -->
      <g style="fill:#262626;" transform="translate(97.720625 161.503125)scale(0.12 -0.12)">
       <use xlink:href="#LiberationSans-43"/>
      </g>
     </g>
    </g>
    <g id="ytick_4">
     <g id="line2d_8">
      <g>
       <use style="fill:#262626;stroke:#262626;" x="112.32" xlink:href="#m219da94a98" y="79.2"/>
      </g>
     </g>
     <g id="text_9">
      <!-- A -->
      <g style="fill:#262626;" transform="translate(97.364375 82.303125)scale(0.12 -0.12)">
       <use xlink:href="#LiberationSans-41"/>
      </g>
     </g>
    </g>
    <g id="text_10">
     <!-- From -->
     <defs>
      <path d="
M17.5312 61.1875
L17.5312 35.5938
L55.9062 35.5938
L55.9062 27.875
L17.5312 27.875
L17.5312 0
L8.20312 0
L8.20312 68.7969
L57.0781 68.7969
L57.0781 61.1875
z
" id="LiberationSans-46"/>
      <path d="
M6.9375 0
L6.9375 40.5312
Q6.9375 42.1875 6.90625 43.9219
Q6.89062 45.6562 6.82812 47.2656
Q6.78125 48.875 6.73438 50.2812
Q6.6875 51.7031 6.64062 52.8281
L14.9375 52.8281
Q14.9844 51.7031 15.0625 50.2656
Q15.1406 48.8281 15.2031 47.3125
Q15.2812 45.7969 15.2969 44.4062
Q15.3281 43.0156 15.3281 42.0469
L15.5312 42.0469
Q16.4531 45.0625 17.5 47.2812
Q18.5625 49.5156 19.9688 50.9531
Q21.3906 52.3906 23.3438 53.0938
Q25.2969 53.8125 28.0781 53.8125
Q29.1562 53.8125 30.125 53.6406
Q31.1094 53.4688 31.6406 53.3281
L31.6406 45.2656
Q30.7656 45.5156 29.5938 45.625
Q28.4219 45.75 26.9531 45.75
Q23.9219 45.75 21.7969 44.375
Q19.6719 43.0156 18.3281 40.5938
Q17 38.1875 16.3594 34.8438
Q15.7188 31.5 15.7188 27.5469
L15.7188 0
z
" id="LiberationSans-72"/>
      <path d="
M37.5 0
L37.5 33.5
Q37.5 37.3594 37.0156 39.9375
Q36.5312 42.5312 35.375 44.1094
Q34.2344 45.7031 32.375 46.3594
Q30.5156 47.0156 27.8281 47.0156
Q25.0469 47.0156 22.7969 45.9219
Q20.5625 44.8281 18.9688 42.75
Q17.3906 40.6719 16.5312 37.625
Q15.6719 34.5781 15.6719 30.6094
L15.6719 0
L6.9375 0
L6.9375 41.5469
Q6.9375 43.2188 6.90625 45.0469
Q6.89062 46.875 6.82812 48.5
Q6.78125 50.1406 6.73438 51.3125
Q6.6875 52.4844 6.64062 52.8281
L14.9375 52.8281
Q14.9844 52.5938 15.0312 51.5156
Q15.0938 50.4375 15.1562 49.0469
Q15.2344 47.6562 15.2812 46.2188
Q15.3281 44.7812 15.3281 43.7969
L15.4844 43.7969
Q16.6562 46.0938 18.0156 47.9531
Q19.3906 49.8125 21.2188 51.0938
Q23.0469 52.3906 25.4062 53.0938
Q27.7812 53.8125 30.9062 53.8125
Q36.9219 53.8125 40.4062 51.4219
Q43.8906 49.0312 45.2656 43.7969
L45.4062 43.7969
Q46.5781 46.0938 48.0469 47.9531
Q49.5156 49.8125 51.4688 51.0938
Q53.4219 52.3906 55.8594 53.0938
Q58.2969 53.8125 61.4219 53.8125
Q65.4375 53.8125 68.3281 52.7344
Q71.2344 51.6562 73.0938 49.4062
Q74.9531 47.1719 75.8281 43.625
Q76.7031 40.0938 76.7031 35.2031
L76.7031 0
L68.0156 0
L68.0156 33.5
Q68.0156 37.3594 67.5312 39.9375
Q67.0469 42.5312 65.8906 44.1094
Q64.75 45.7031 62.8906 46.3594
Q61.0312 47.0156 58.3438 47.0156
Q55.5625 47.0156 53.3125 45.9688
Q51.0781 44.9219 49.4844 42.875
Q47.9062 40.8281 47.0469 37.75
Q46.1875 34.6719 46.1875 30.6094
L46.1875 0
z
" id="LiberationSans-6d"/>
     </defs>
     <g style="fill:#262626;" transform="translate(77.07046875 195.095)scale(0.14 -0.14)">
      <use xlink:href="#LiberationSans-46"/>
      <use x="61.083984375" xlink:href="#LiberationSans-72"/>
      <use x="94.384765625" xlink:href="#LiberationSans-6f"/>
      <use x="150.0" xlink:href="#LiberationSans-6d"/>
     </g>
    </g>
   </g>
   <g id="QuadMesh_1">
    <defs>
     <path d="
M112.32 -39.6
L191.52 -39.6
L191.52 -118.8
L112.32 -118.8
L112.32 -39.6" id="C0_0_9b0aad38db"/>
     <path d="
M191.52 -39.6
L270.72 -39.6
L270.72 -118.8
L191.52 -118.8
L191.52 -39.6" id="C0_1_1c7e0a6ca3"/>
     <path d="
M270.72 -39.6
L349.92 -39.6
L349.92 -118.8
L270.72 -118.8
L270.72 -39.6" id="C0_2_6fa3ade0a0"/>
     <path d="
M349.92 -39.6
L429.12 -39.6
L429.12 -118.8
L349.92 -118.8
L349.92 -39.6" id="C0_3_ad99abd6ba"/>
     <path d="
M112.32 -118.8
L191.52 -118.8
L191.52 -198
L112.32 -198
L112.32 -118.8" id="C0_4_e141e52867"/>
     <path d="
M191.52 -118.8
L270.72 -118.8
L270.72 -198
L191.52 -198
L191.52 -118.8" id="C0_5_89134eea56"/>
     <path d="
M270.72 -118.8
L349.92 -118.8
L349.92 -198
L270.72 -198
L270.72 -118.8" id="C0_6_82a8b6a2b3"/>
     <path d="
M349.92 -118.8
L429.12 -118.8
L429.12 -198
L349.92 -198
L349.92 -118.8" id="C0_7_273038bb75"/>
     <path d="
M112.32 -198
L191.52 -198
L191.52 -277.2
L112.32 -277.2
L112.32 -198" id="C0_8_f9e3fb4cc7"/>
     <path d="
M191.52 -198
L270.72 -198
L270.72 -277.2
L191.52 -277.2
L191.52 -198" id="C0_9_3d303435c1"/>
     <path d="
M270.72 -198
L349.92 -198
L349.92 -277.2
L270.72 -277.2
L270.72 -198" id="C0_a_ad81f2a7ff"/>
     <path d="
M349.92 -198
L429.12 -198
L429.12 -277.2
L349.92 -277.2
L349.92 -198" id="C0_b_cfe3944871"/>
     <path d="
M112.32 -277.2
L191.52 -277.2
L191.52 -356.4
L112.32 -356.4
L112.32 -277.2" id="C0_c_0ff6b6e001"/>
     <path d="
M191.52 -277.2
L270.72 -277.2
L270.72 -356.4
L191.52 -356.4
L191.52 -277.2" id="C0_d_87e235790c"/>
     <path d="
M270.72 -277.2
L349.92 -277.2
L349.92 -356.4
L270.72 -356.4
L270.72 -277.2" id="C0_e_dea938f2d7"/>
     <path d="
M349.92 -277.2
L429.12 -277.2
L429.12 -356.4
L349.92 -356.4
L349.92 -277.2" id="C0_f_50c5d419b7"/>
    </defs>
    <g clip-path="url(#p026d82dfd9)">
     <use style="fill:#8fc2de;" x="0.0" xlink:href="#C0_0_9b0aad38db" y="396.0"/>
    </g>
    <g clip-path="url(#p026d82dfd9)">
     <use style="fill:#105ba4;" x="0.0" xlink:href="#C0_1_1c7e0a6ca3" y="396.0"/>
    </g>
    <g clip-path="url(#p026d82dfd9)">
     <use style="fill:#c1d9ed;" x="0.0" xlink:href="#C0_2_6fa3ade0a0" y="396.0"/>
    </g>
    <g clip-path="url(#p026d82dfd9)">
     <use style="fill:#f7fbff;" x="0.0" xlink:href="#C0_3_ad99abd6ba" y="396.0"/>
    </g>
    <g clip-path="url(#p026d82dfd9)">
     <use style="fill:#1460a8;" x="0.0" xlink:href="#C0_4_e141e52867" y="396.0"/>
    </g>
    <g clip-path="url(#p026d82dfd9)">
     <use style="fill:#81badb;" x="0.0" xlink:href="#C0_5_89134eea56" y="396.0"/>
    </g>
    <g clip-path="url(#p026d82dfd9)">
     <use style="fill:#f7fbff;" x="0.0" xlink:href="#C0_6_82a8b6a2b3" y="396.0"/>
    </g>
    <g clip-path="url(#p026d82dfd9)">
     <use style="fill:#b2d2e8;" x="0.0" xlink:href="#C0_7_273038bb75" y="396.0"/>
    </g>
    <g clip-path="url(#p026d82dfd9)">
     <use style="fill:#81badb;" x="0.0" xlink:href="#C0_8_f9e3fb4cc7" y="396.0"/>
    </g>
    <g clip-path="url(#p026d82dfd9)">
     <use style="fill:#f7fbff;" x="0.0" xlink:href="#C0_9_3d303435c1" y="396.0"/>
    </g>
    <g clip-path="url(#p026d82dfd9)">
     <use style="fill:#3c8cc3;" x="0.0" xlink:href="#C0_a_ad81f2a7ff" y="396.0"/>
    </g>
    <g clip-path="url(#p026d82dfd9)">
     <use style="fill:#4e9acb;" x="0.0" xlink:href="#C0_b_cfe3944871" y="396.0"/>
    </g>
    <g clip-path="url(#p026d82dfd9)">
     <use style="fill:#f7fbff;" x="0.0" xlink:href="#C0_c_0ff6b6e001" y="396.0"/>
    </g>
    <g clip-path="url(#p026d82dfd9)">
     <use style="fill:#c7dbef;" x="0.0" xlink:href="#C0_d_87e235790c" y="396.0"/>
    </g>
    <g clip-path="url(#p026d82dfd9)">
     <use style="fill:#08306b;" x="0.0" xlink:href="#C0_e_dea938f2d7" y="396.0"/>
    </g>
    <g clip-path="url(#p026d82dfd9)">
     <use style="fill:#c8dcf0;" x="0.0" xlink:href="#C0_f_50c5d419b7" y="396.0"/>
    </g>
   </g>
  </g>
  <g id="axes_2">
   <g id="patch_3">
    <path clip-path="url(#p504eebcf5d)" d="
M451.44 356.4
L451.44 355.162
L451.44 40.8375
L451.44 39.6
L467.28 39.6
L467.28 40.8375
L467.28 355.162
L467.28 356.4
z
" style="fill:#eaeaf2;stroke:#eaeaf2;stroke-linejoin:miter;stroke-width:0.01;"/>
   </g>
   <g id="matplotlib.axis_3"/>
   <g id="matplotlib.axis_4">
    <g id="ytick_5">
     <g id="line2d_9">
      <g>
       <use style="fill:#262626;stroke:#262626;" x="467.28" xlink:href="#m219da94a98" y="356.4"/>
      </g>
     </g>
     <g id="text_11">
      <!-- 0.00 -->
      <defs>
       <path d="
M9.125 0
L9.125 10.6875
L18.6562 10.6875
L18.6562 0
z
" id="LiberationSans-2e"/>
       <path d="
M51.7031 34.4219
Q51.7031 24.5156 49.8281 17.75
Q47.9531 10.9844 44.7031 6.8125
Q41.4531 2.64062 37.0625 0.828125
Q32.6719 -0.984375 27.6875 -0.984375
Q22.6562 -0.984375 18.3125 0.828125
Q13.9688 2.64062 10.7656 6.78125
Q7.5625 10.9375 5.73438 17.7031
Q3.90625 24.4688 3.90625 34.4219
Q3.90625 44.8281 5.73438 51.6406
Q7.5625 58.4531 10.7812 62.5
Q14.0156 66.5469 18.4062 68.1875
Q22.7969 69.8281 27.9844 69.8281
Q32.9062 69.8281 37.2188 68.1875
Q41.5469 66.5469 44.7656 62.5
Q48 58.4531 49.8438 51.6406
Q51.7031 44.8281 51.7031 34.4219
M42.7812 34.4219
Q42.7812 42.625 41.7969 48.0625
Q40.8281 53.5156 38.9219 56.7656
Q37.0156 60.0156 34.25 61.3594
Q31.5 62.7031 27.9844 62.7031
Q24.2656 62.7031 21.4375 61.3281
Q18.6094 59.9688 16.6719 56.7188
Q14.75 53.4688 13.7656 48.0156
Q12.7969 42.5781 12.7969 34.4219
Q12.7969 26.5156 13.7969 21.0938
Q14.7969 15.6719 16.7188 12.375
Q18.6562 9.07812 21.4375 7.64062
Q24.2188 6.20312 27.7812 6.20312
Q31.25 6.20312 34.0312 7.64062
Q36.8125 9.07812 38.7344 12.375
Q40.6719 15.6719 41.7188 21.0938
Q42.7812 26.5156 42.7812 34.4219" id="LiberationSans-30"/>
      </defs>
      <g style="fill:#262626;" transform="translate(474.28 358.9859375)scale(0.1 -0.1)">
       <use xlink:href="#LiberationSans-30"/>
       <use x="55.615234375" xlink:href="#LiberationSans-2e"/>
       <use x="83.3984375" xlink:href="#LiberationSans-30"/>
       <use x="139.013671875" xlink:href="#LiberationSans-30"/>
      </g>
     </g>
    </g>
    <g id="ytick_6">
     <g id="line2d_10">
      <g>
       <use style="fill:#262626;stroke:#262626;" x="467.28" xlink:href="#m219da94a98" y="296.907674633"/>
      </g>
     </g>
     <g id="text_12">
      <!-- 0.03 -->
      <defs>
       <path d="
M51.2188 19
Q51.2188 14.2656 49.6719 10.5469
Q48.1406 6.84375 45.1875 4.26562
Q42.2344 1.70312 37.8594 0.359375
Q33.5 -0.984375 27.875 -0.984375
Q21.4844 -0.984375 17.1094 0.609375
Q12.75 2.20312 9.90625 4.8125
Q7.07812 7.42188 5.65625 10.7656
Q4.25 14.1094 3.8125 17.6719
L12.8906 18.5
Q13.2812 15.7656 14.3281 13.5156
Q15.375 11.2812 17.1875 9.67188
Q19 8.0625 21.625 7.17188
Q24.2656 6.29688 27.875 6.29688
Q34.5156 6.29688 38.2969 9.5625
Q42.0938 12.8438 42.0938 19.2812
Q42.0938 23.0938 40.4062 25.4062
Q38.7188 27.7344 36.2031 29.0312
Q33.6875 30.3281 30.7344 30.7656
Q27.7812 31.2031 25.2969 31.2031
L20.3125 31.2031
L20.3125 38.8125
L25.0938 38.8125
Q27.5938 38.8125 30.2656 39.3281
Q32.9531 39.8438 35.1719 41.1875
Q37.4062 42.5312 38.8438 44.8281
Q40.2812 47.125 40.2812 50.6875
Q40.2812 56.2031 37.0312 59.3906
Q33.7969 62.5938 27.3906 62.5938
Q21.5781 62.5938 17.9844 59.6094
Q14.4062 56.6406 13.8125 51.2188
L4.98438 51.9062
Q5.51562 56.4531 7.46875 59.8125
Q9.42188 63.1875 12.4219 65.4062
Q15.4375 67.625 19.2812 68.7188
Q23.1406 69.8281 27.4844 69.8281
Q33.25 69.8281 37.3906 68.375
Q41.5469 66.9375 44.1875 64.4688
Q46.8281 62.0156 48.0625 58.6875
Q49.3125 55.375 49.3125 51.6094
Q49.3125 48.5781 48.4844 45.9375
Q47.6562 43.3125 45.8906 41.2031
Q44.1406 39.1094 41.4219 37.5938
Q38.7188 36.0781 34.9062 35.2969
L34.9062 35.1094
Q39.0625 34.6719 42.1406 33.2188
Q45.2188 31.7812 47.2188 29.625
Q49.2188 27.4844 50.2188 24.75
Q51.2188 22.0156 51.2188 19" id="LiberationSans-33"/>
      </defs>
      <g style="fill:#262626;" transform="translate(474.28 299.493612133)scale(0.1 -0.1)">
       <use xlink:href="#LiberationSans-30"/>
       <use x="55.615234375" xlink:href="#LiberationSans-2e"/>
       <use x="83.3984375" xlink:href="#LiberationSans-30"/>
       <use x="139.013671875" xlink:href="#LiberationSans-33"/>
      </g>
     </g>
    </g>
    <g id="ytick_7">
     <g id="line2d_11">
      <g>
       <use style="fill:#262626;stroke:#262626;" x="467.28" xlink:href="#m219da94a98" y="237.415349267"/>
      </g>
     </g>
     <g id="text_13">
      <!-- 0.06 -->
      <defs>
       <path d="
M51.2188 22.5156
Q51.2188 17.3281 49.7812 13
Q48.3438 8.6875 45.5312 5.57812
Q42.7188 2.48438 38.5625 0.75
Q34.4219 -0.984375 29 -0.984375
Q23 -0.984375 18.5 1.3125
Q14.0156 3.60938 11.0312 7.92188
Q8.0625 12.25 6.5625 18.5312
Q5.07812 24.8125 5.07812 32.8125
Q5.07812 42 6.76562 48.9219
Q8.45312 55.8594 11.625 60.5
Q14.7969 65.1406 19.3594 67.4844
Q23.9219 69.8281 29.6875 69.8281
Q33.2031 69.8281 36.2812 69.0938
Q39.3594 68.3594 41.875 66.7188
Q44.3906 65.0938 46.2812 62.4062
Q48.1875 59.7188 49.3125 55.8125
L40.9219 54.2969
Q39.5469 58.7344 36.5469 60.7188
Q33.5469 62.7031 29.5938 62.7031
Q25.9844 62.7031 23.0469 60.9844
Q20.125 59.2812 18.0625 55.875
Q16.0156 52.4844 14.9062 47.3594
Q13.8125 42.2344 13.8125 35.4062
Q16.2188 39.8438 20.5625 42.1562
Q24.9062 44.4844 30.5156 44.4844
Q35.2031 44.4844 39.0156 42.9688
Q42.8281 41.4531 45.5312 38.5938
Q48.25 35.75 49.7344 31.6719
Q51.2188 27.5938 51.2188 22.5156
M42.2812 22.125
Q42.2812 25.6875 41.4062 28.5625
Q40.5312 31.4531 38.7656 33.4688
Q37.0156 35.5 34.4219 36.5938
Q31.8438 37.7031 28.4219 37.7031
Q26.0312 37.7031 23.5781 36.9844
Q21.1406 36.2812 19.1562 34.6875
Q17.1875 33.1094 15.9375 30.5156
Q14.7031 27.9375 14.7031 24.2188
Q14.7031 20.4062 15.6719 17.1094
Q16.6562 13.8125 18.4844 11.375
Q20.3125 8.9375 22.8906 7.51562
Q25.4844 6.10938 28.7188 6.10938
Q31.8906 6.10938 34.4062 7.20312
Q36.9219 8.29688 38.6719 10.375
Q40.4375 12.4531 41.3594 15.4219
Q42.2812 18.4062 42.2812 22.125" id="LiberationSans-36"/>
      </defs>
      <g style="fill:#262626;" transform="translate(474.28 240.001286767)scale(0.1 -0.1)">
       <use xlink:href="#LiberationSans-30"/>
       <use x="55.615234375" xlink:href="#LiberationSans-2e"/>
       <use x="83.3984375" xlink:href="#LiberationSans-30"/>
       <use x="139.013671875" xlink:href="#LiberationSans-36"/>
      </g>
     </g>
    </g>
    <g id="ytick_8">
     <g id="line2d_12">
      <g>
       <use style="fill:#262626;stroke:#262626;" x="467.28" xlink:href="#m219da94a98" y="177.9230239"/>
      </g>
     </g>
     <g id="text_14">
      <!-- 0.09 -->
      <defs>
       <path d="
M50.875 35.7969
Q50.875 26.6094 49.1406 19.7031
Q47.4062 12.7969 44.1875 8.20312
Q40.9688 3.60938 36.3438 1.3125
Q31.7344 -0.984375 25.9844 -0.984375
Q22.0156 -0.984375 18.8438 -0.171875
Q15.6719 0.640625 13.1719 2.34375
Q10.6875 4.04688 8.92188 6.78125
Q7.17188 9.51562 6.10938 13.375
L14.5 14.7031
Q15.875 10.25 18.7812 8.17188
Q21.6875 6.10938 26.125 6.10938
Q29.6875 6.10938 32.6406 7.78125
Q35.5938 9.46875 37.6719 12.8438
Q39.75 16.2188 40.9219 21.2969
Q42.0938 26.375 42.1875 33.2031
Q41.1562 30.9062 39.375 29.0938
Q37.5938 27.2969 35.3281 26.0469
Q33.0625 24.8125 30.4219 24.1406
Q27.7812 23.4844 25.0938 23.4844
Q20.4062 23.4844 16.625 25.1719
Q12.8438 26.8594 10.2031 29.875
Q7.5625 32.9062 6.125 37.1719
Q4.6875 41.4531 4.6875 46.6875
Q4.6875 52 6.21875 56.2969
Q7.76562 60.5938 10.6875 63.5938
Q13.625 66.6094 17.8906 68.2188
Q22.1719 69.8281 27.5938 69.8281
Q39.0625 69.8281 44.9688 61.3281
Q50.875 52.8281 50.875 35.7969
M41.3125 44.2812
Q41.3125 48.0938 40.4062 51.4531
Q39.5 54.8281 37.7188 57.3125
Q35.9375 59.8125 33.3281 61.25
Q30.7188 62.7031 27.2969 62.7031
Q24.125 62.7031 21.5781 61.5781
Q19.0469 60.4531 17.2812 58.375
Q15.5312 56.2969 14.5781 53.3125
Q13.625 50.3438 13.625 46.6875
Q13.625 43.2188 14.4688 40.2344
Q15.3281 37.25 17.0312 35.0781
Q18.75 32.9062 21.2812 31.6562
Q23.8281 30.4219 27.2031 30.4219
Q29.6406 30.4219 32.1562 31.25
Q34.6719 32.0781 36.6875 33.7812
Q38.7188 35.5 40.0156 38.1094
Q41.3125 40.7188 41.3125 44.2812" id="LiberationSans-39"/>
      </defs>
      <g style="fill:#262626;" transform="translate(474.28 180.5089614)scale(0.1 -0.1)">
       <use xlink:href="#LiberationSans-30"/>
       <use x="55.615234375" xlink:href="#LiberationSans-2e"/>
       <use x="83.3984375" xlink:href="#LiberationSans-30"/>
       <use x="139.013671875" xlink:href="#LiberationSans-39"/>
      </g>
     </g>
    </g>
    <g id="ytick_9">
     <g id="line2d_13">
      <g>
       <use style="fill:#262626;stroke:#262626;" x="467.28" xlink:href="#m219da94a98" y="118.430698533"/>
      </g>
     </g>
     <g id="text_15">
      <!-- 0.12 -->
      <defs>
       <path d="
M5.03125 0
L5.03125 6.20312
Q7.51562 11.9219 11.1094 16.2812
Q14.7031 20.6562 18.6562 24.1875
Q22.6094 27.7344 26.4844 30.7656
Q30.375 33.7969 33.5 36.8125
Q36.625 39.8438 38.5469 43.1562
Q40.4844 46.4844 40.4844 50.6875
Q40.4844 53.6094 39.5938 55.8281
Q38.7188 58.0625 37.0625 59.5625
Q35.4062 61.0781 33.0781 61.8281
Q30.7656 62.5938 27.9375 62.5938
Q25.2969 62.5938 22.9688 61.8594
Q20.6562 61.1406 18.8438 59.6719
Q17.0469 58.2031 15.8906 56.0312
Q14.75 53.8594 14.4062 50.9844
L5.42188 51.8125
Q5.85938 55.5156 7.46875 58.7812
Q9.07812 62.0625 11.9062 64.5312
Q14.75 67 18.7188 68.4062
Q22.7031 69.8281 27.9375 69.8281
Q33.0625 69.8281 37.0625 68.6094
Q41.0625 67.3906 43.8125 64.9844
Q46.5781 62.5938 48.0469 59.0781
Q49.5156 55.5625 49.5156 50.9844
Q49.5156 47.5156 48.2656 44.3906
Q47.0156 41.2656 44.9375 38.4219
Q42.875 35.5938 40.1406 32.9531
Q37.4062 30.3281 34.4219 27.8125
Q31.4531 25.2969 28.4219 22.8281
Q25.3906 20.3594 22.7188 17.8594
Q20.0625 15.375 17.9688 12.8125
Q15.875 10.25 14.7031 7.46875
L50.5938 7.46875
L50.5938 0
z
" id="LiberationSans-32"/>
       <path d="
M7.625 0
L7.625 7.46875
L25.1406 7.46875
L25.1406 60.4062
L9.625 49.3125
L9.625 57.625
L25.875 68.7969
L33.9844 68.7969
L33.9844 7.46875
L50.7344 7.46875
L50.7344 0
z
" id="LiberationSans-31"/>
      </defs>
      <g style="fill:#262626;" transform="translate(474.28 121.016636033)scale(0.1 -0.1)">
       <use xlink:href="#LiberationSans-30"/>
       <use x="55.615234375" xlink:href="#LiberationSans-2e"/>
       <use x="83.3984375" xlink:href="#LiberationSans-31"/>
       <use x="139.013671875" xlink:href="#LiberationSans-32"/>
      </g>
     </g>
    </g>
    <g id="ytick_10">
     <g id="line2d_14">
      <g>
       <use style="fill:#262626;stroke:#262626;" x="467.28" xlink:href="#m219da94a98" y="58.9383731663"/>
      </g>
     </g>
     <g id="text_16">
      <!-- 0.15 -->
      <defs>
       <path d="
M51.4219 22.4062
Q51.4219 17.2344 49.8594 12.9375
Q48.2969 8.64062 45.2188 5.53125
Q42.1406 2.4375 37.5781 0.71875
Q33.0156 -0.984375 27 -0.984375
Q21.5781 -0.984375 17.5469 0.28125
Q13.5312 1.5625 10.7344 3.78125
Q7.95312 6 6.3125 8.98438
Q4.6875 11.9688 4 15.375
L12.8906 16.4062
Q13.4219 14.4531 14.3906 12.625
Q15.375 10.7969 17.0625 9.34375
Q18.75 7.90625 21.2188 7.04688
Q23.6875 6.20312 27.2031 6.20312
Q30.6094 6.20312 33.3906 7.25
Q36.1875 8.29688 38.1562 10.3438
Q40.1406 12.4062 41.2031 15.375
Q42.2812 18.3594 42.2812 22.2188
Q42.2812 25.3906 41.25 28.0469
Q40.2344 30.7188 38.3281 32.6406
Q36.4219 34.5781 33.6562 35.6406
Q30.9062 36.7188 27.3906 36.7188
Q25.2031 36.7188 23.3438 36.3281
Q21.4844 35.9375 19.8906 35.25
Q18.3125 34.5781 17.0156 33.6719
Q15.7188 32.7656 14.5938 31.7812
L6 31.7812
L8.29688 68.7969
L47.4062 68.7969
L47.4062 61.3281
L16.3125 61.3281
L14.9844 39.5
Q17.3281 41.3125 20.8438 42.5938
Q24.3594 43.8906 29.2031 43.8906
Q34.3281 43.8906 38.4219 42.3281
Q42.5312 40.7656 45.4062 37.9062
Q48.2969 35.0625 49.8594 31.1094
Q51.4219 27.1562 51.4219 22.4062" id="LiberationSans-35"/>
      </defs>
      <g style="fill:#262626;" transform="translate(474.28 61.5243106663)scale(0.1 -0.1)">
       <use xlink:href="#LiberationSans-30"/>
       <use x="55.615234375" xlink:href="#LiberationSans-2e"/>
       <use x="83.3984375" xlink:href="#LiberationSans-31"/>
       <use x="139.013671875" xlink:href="#LiberationSans-35"/>
      </g>
     </g>
    </g>
   </g>
   <g id="QuadMesh_2">
    <defs>
     <path d="
M451.44 -39.6
L467.28 -39.6
L467.28 -40.8375
L451.44 -40.8375
L451.44 -39.6" id="C1_0_d40b57ef9b"/>
     <path d="
M451.44 -40.8375
L467.28 -40.8375
L467.28 -42.075
L451.44 -42.075
L451.44 -40.8375" id="C1_1_f33ef3f7b5"/>
     <path d="
M451.44 -42.075
L467.28 -42.075
L467.28 -43.3125
L451.44 -43.3125
L451.44 -42.075" id="C1_2_e05f7b1fcd"/>
     <path d="
M451.44 -43.3125
L467.28 -43.3125
L467.28 -44.55
L451.44 -44.55
L451.44 -43.3125" id="C1_3_cc3099c41f"/>
     <path d="
M451.44 -44.55
L467.28 -44.55
L467.28 -45.7875
L451.44 -45.7875
L451.44 -44.55" id="C1_4_e0661eb9be"/>
     <path d="
M451.44 -45.7875
L467.28 -45.7875
L467.28 -47.025
L451.44 -47.025
L451.44 -45.7875" id="C1_5_d7d0beecb8"/>
     <path d="
M451.44 -47.025
L467.28 -47.025
L467.28 -48.2625
L451.44 -48.2625
L451.44 -47.025" id="C1_6_a5f95891cf"/>
     <path d="
M451.44 -48.2625
L467.28 -48.2625
L467.28 -49.5
L451.44 -49.5
L451.44 -48.2625" id="C1_7_dee2d42802"/>
     <path d="
M451.44 -49.5
L467.28 -49.5
L467.28 -50.7375
L451.44 -50.7375
L451.44 -49.5" id="C1_8_0101623b29"/>
     <path d="
M451.44 -50.7375
L467.28 -50.7375
L467.28 -51.975
L451.44 -51.975
L451.44 -50.7375" id="C1_9_9c956a5eeb"/>
     <path d="
M451.44 -51.975
L467.28 -51.975
L467.28 -53.2125
L451.44 -53.2125
L451.44 -51.975" id="C1_a_afdbad437e"/>
     <path d="
M451.44 -53.2125
L467.28 -53.2125
L467.28 -54.45
L451.44 -54.45
L451.44 -53.2125" id="C1_b_2f909facb4"/>
     <path d="
M451.44 -54.45
L467.28 -54.45
L467.28 -55.6875
L451.44 -55.6875
L451.44 -54.45" id="C1_c_8a7066131a"/>
     <path d="
M451.44 -55.6875
L467.28 -55.6875
L467.28 -56.925
L451.44 -56.925
L451.44 -55.6875" id="C1_d_28455e7682"/>
     <path d="
M451.44 -56.925
L467.28 -56.925
L467.28 -58.1625
L451.44 -58.1625
L451.44 -56.925" id="C1_e_20323ab8d8"/>
     <path d="
M451.44 -58.1625
L467.28 -58.1625
L467.28 -59.4
L451.44 -59.4
L451.44 -58.1625" id="C1_f_4228a7a671"/>
     <path d="
M451.44 -59.4
L467.28 -59.4
L467.28 -60.6375
L451.44 -60.6375
L451.44 -59.4" id="C1_10_37ca5ef489"/>
     <path d="
M451.44 -60.6375
L467.28 -60.6375
L467.28 -61.875
L451.44 -61.875
L451.44 -60.6375" id="C1_11_bcd04f8dad"/>
     <path d="
M451.44 -61.875
L467.28 -61.875
L467.28 -63.1125
L451.44 -63.1125
L451.44 -61.875" id="C1_12_2e3486b5b3"/>
     <path d="
M451.44 -63.1125
L467.28 -63.1125
L467.28 -64.35
L451.44 -64.35
L451.44 -63.1125" id="C1_13_daf3c8130c"/>
     <path d="
M451.44 -64.35
L467.28 -64.35
L467.28 -65.5875
L451.44 -65.5875
L451.44 -64.35" id="C1_14_a880300588"/>
     <path d="
M451.44 -65.5875
L467.28 -65.5875
L467.28 -66.825
L451.44 -66.825
L451.44 -65.5875" id="C1_15_c1283e2645"/>
     <path d="
M451.44 -66.825
L467.28 -66.825
L467.28 -68.0625
L451.44 -68.0625
L451.44 -66.825" id="C1_16_cf62f1e2b1"/>
     <path d="
M451.44 -68.0625
L467.28 -68.0625
L467.28 -69.3
L451.44 -69.3
L451.44 -68.0625" id="C1_17_cfec445701"/>
     <path d="
M451.44 -69.3
L467.28 -69.3
L467.28 -70.5375
L451.44 -70.5375
L451.44 -69.3" id="C1_18_f842c5464c"/>
     <path d="
M451.44 -70.5375
L467.28 -70.5375
L467.28 -71.775
L451.44 -71.775
L451.44 -70.5375" id="C1_19_c292f538b7"/>
     <path d="
M451.44 -71.775
L467.28 -71.775
L467.28 -73.0125
L451.44 -73.0125
L451.44 -71.775" id="C1_1a_e957404200"/>
     <path d="
M451.44 -73.0125
L467.28 -73.0125
L467.28 -74.25
L451.44 -74.25
L451.44 -73.0125" id="C1_1b_ce21641676"/>
     <path d="
M451.44 -74.25
L467.28 -74.25
L467.28 -75.4875
L451.44 -75.4875
L451.44 -74.25" id="C1_1c_7b4e2d1d27"/>
     <path d="
M451.44 -75.4875
L467.28 -75.4875
L467.28 -76.725
L451.44 -76.725
L451.44 -75.4875" id="C1_1d_dc1d11969a"/>
     <path d="
M451.44 -76.725
L467.28 -76.725
L467.28 -77.9625
L451.44 -77.9625
L451.44 -76.725" id="C1_1e_e7fbbd5979"/>
     <path d="
M451.44 -77.9625
L467.28 -77.9625
L467.28 -79.2
L451.44 -79.2
L451.44 -77.9625" id="C1_1f_aff9f03eaa"/>
     <path d="
M451.44 -79.2
L467.28 -79.2
L467.28 -80.4375
L451.44 -80.4375
L451.44 -79.2" id="C1_20_6efbe66ec3"/>
     <path d="
M451.44 -80.4375
L467.28 -80.4375
L467.28 -81.675
L451.44 -81.675
L451.44 -80.4375" id="C1_21_a681f75a8c"/>
     <path d="
M451.44 -81.675
L467.28 -81.675
L467.28 -82.9125
L451.44 -82.9125
L451.44 -81.675" id="C1_22_a1e2f0cc1b"/>
     <path d="
M451.44 -82.9125
L467.28 -82.9125
L467.28 -84.15
L451.44 -84.15
L451.44 -82.9125" id="C1_23_b688001c9d"/>
     <path d="
M451.44 -84.15
L467.28 -84.15
L467.28 -85.3875
L451.44 -85.3875
L451.44 -84.15" id="C1_24_da5fc9472e"/>
     <path d="
M451.44 -85.3875
L467.28 -85.3875
L467.28 -86.625
L451.44 -86.625
L451.44 -85.3875" id="C1_25_7e34bd278f"/>
     <path d="
M451.44 -86.625
L467.28 -86.625
L467.28 -87.8625
L451.44 -87.8625
L451.44 -86.625" id="C1_26_a56e1d8b1b"/>
     <path d="
M451.44 -87.8625
L467.28 -87.8625
L467.28 -89.1
L451.44 -89.1
L451.44 -87.8625" id="C1_27_53826c7338"/>
     <path d="
M451.44 -89.1
L467.28 -89.1
L467.28 -90.3375
L451.44 -90.3375
L451.44 -89.1" id="C1_28_6ee06d929b"/>
     <path d="
M451.44 -90.3375
L467.28 -90.3375
L467.28 -91.575
L451.44 -91.575
L451.44 -90.3375" id="C1_29_e34c396574"/>
     <path d="
M451.44 -91.575
L467.28 -91.575
L467.28 -92.8125
L451.44 -92.8125
L451.44 -91.575" id="C1_2a_b1613a63a1"/>
     <path d="
M451.44 -92.8125
L467.28 -92.8125
L467.28 -94.05
L451.44 -94.05
L451.44 -92.8125" id="C1_2b_1166e8093d"/>
     <path d="
M451.44 -94.05
L467.28 -94.05
L467.28 -95.2875
L451.44 -95.2875
L451.44 -94.05" id="C1_2c_ee94113155"/>
     <path d="
M451.44 -95.2875
L467.28 -95.2875
L467.28 -96.525
L451.44 -96.525
L451.44 -95.2875" id="C1_2d_8c8179b491"/>
     <path d="
M451.44 -96.525
L467.28 -96.525
L467.28 -97.7625
L451.44 -97.7625
L451.44 -96.525" id="C1_2e_463039751c"/>
     <path d="
M451.44 -97.7625
L467.28 -97.7625
L467.28 -99
L451.44 -99
L451.44 -97.7625" id="C1_2f_8de39d46e5"/>
     <path d="
M451.44 -99
L467.28 -99
L467.28 -100.238
L451.44 -100.238
L451.44 -99" id="C1_30_cec6121c73"/>
     <path d="
M451.44 -100.238
L467.28 -100.238
L467.28 -101.475
L451.44 -101.475
L451.44 -100.238" id="C1_31_c4b1f88ac5"/>
     <path d="
M451.44 -101.475
L467.28 -101.475
L467.28 -102.713
L451.44 -102.713
L451.44 -101.475" id="C1_32_8b02590412"/>
     <path d="
M451.44 -102.713
L467.28 -102.713
L467.28 -103.95
L451.44 -103.95
L451.44 -102.713" id="C1_33_e0c5c74e54"/>
     <path d="
M451.44 -103.95
L467.28 -103.95
L467.28 -105.188
L451.44 -105.188
L451.44 -103.95" id="C1_34_be6e6d5ba2"/>
     <path d="
M451.44 -105.188
L467.28 -105.188
L467.28 -106.425
L451.44 -106.425
L451.44 -105.188" id="C1_35_c3357a4ba3"/>
     <path d="
M451.44 -106.425
L467.28 -106.425
L467.28 -107.663
L451.44 -107.663
L451.44 -106.425" id="C1_36_074d6527c2"/>
     <path d="
M451.44 -107.663
L467.28 -107.663
L467.28 -108.9
L451.44 -108.9
L451.44 -107.663" id="C1_37_28f684f5dc"/>
     <path d="
M451.44 -108.9
L467.28 -108.9
L467.28 -110.138
L451.44 -110.138
L451.44 -108.9" id="C1_38_012631b547"/>
     <path d="
M451.44 -110.138
L467.28 -110.138
L467.28 -111.375
L451.44 -111.375
L451.44 -110.138" id="C1_39_c0ce7336d5"/>
     <path d="
M451.44 -111.375
L467.28 -111.375
L467.28 -112.613
L451.44 -112.613
L451.44 -111.375" id="C1_3a_fba377652b"/>
     <path d="
M451.44 -112.613
L467.28 -112.613
L467.28 -113.85
L451.44 -113.85
L451.44 -112.613" id="C1_3b_cdf5e416df"/>
     <path d="
M451.44 -113.85
L467.28 -113.85
L467.28 -115.088
L451.44 -115.088
L451.44 -113.85" id="C1_3c_20c11c9407"/>
     <path d="
M451.44 -115.088
L467.28 -115.088
L467.28 -116.325
L451.44 -116.325
L451.44 -115.088" id="C1_3d_8b50f4eb92"/>
     <path d="
M451.44 -116.325
L467.28 -116.325
L467.28 -117.563
L451.44 -117.563
L451.44 -116.325" id="C1_3e_c27271344b"/>
     <path d="
M451.44 -117.563
L467.28 -117.563
L467.28 -118.8
L451.44 -118.8
L451.44 -117.563" id="C1_3f_0b905c7f1a"/>
     <path d="
M451.44 -118.8
L467.28 -118.8
L467.28 -120.038
L451.44 -120.038
L451.44 -118.8" id="C1_40_3d2cb81471"/>
     <path d="
M451.44 -120.038
L467.28 -120.038
L467.28 -121.275
L451.44 -121.275
L451.44 -120.038" id="C1_41_0de3481673"/>
     <path d="
M451.44 -121.275
L467.28 -121.275
L467.28 -122.513
L451.44 -122.513
L451.44 -121.275" id="C1_42_7f0781218f"/>
     <path d="
M451.44 -122.513
L467.28 -122.513
L467.28 -123.75
L451.44 -123.75
L451.44 -122.513" id="C1_43_681f77328d"/>
     <path d="
M451.44 -123.75
L467.28 -123.75
L467.28 -124.988
L451.44 -124.988
L451.44 -123.75" id="C1_44_9633dbf36a"/>
     <path d="
M451.44 -124.988
L467.28 -124.988
L467.28 -126.225
L451.44 -126.225
L451.44 -124.988" id="C1_45_7d5e49fcb3"/>
     <path d="
M451.44 -126.225
L467.28 -126.225
L467.28 -127.463
L451.44 -127.463
L451.44 -126.225" id="C1_46_33c0955ffd"/>
     <path d="
M451.44 -127.463
L467.28 -127.463
L467.28 -128.7
L451.44 -128.7
L451.44 -127.463" id="C1_47_56d78515f5"/>
     <path d="
M451.44 -128.7
L467.28 -128.7
L467.28 -129.938
L451.44 -129.938
L451.44 -128.7" id="C1_48_b13fe3cb3a"/>
     <path d="
M451.44 -129.938
L467.28 -129.938
L467.28 -131.175
L451.44 -131.175
L451.44 -129.938" id="C1_49_a5d66e7872"/>
     <path d="
M451.44 -131.175
L467.28 -131.175
L467.28 -132.413
L451.44 -132.413
L451.44 -131.175" id="C1_4a_116bd96352"/>
     <path d="
M451.44 -132.413
L467.28 -132.413
L467.28 -133.65
L451.44 -133.65
L451.44 -132.413" id="C1_4b_c314771a1e"/>
     <path d="
M451.44 -133.65
L467.28 -133.65
L467.28 -134.888
L451.44 -134.888
L451.44 -133.65" id="C1_4c_7c50e0ce31"/>
     <path d="
M451.44 -134.888
L467.28 -134.888
L467.28 -136.125
L451.44 -136.125
L451.44 -134.888" id="C1_4d_be474786e9"/>
     <path d="
M451.44 -136.125
L467.28 -136.125
L467.28 -137.363
L451.44 -137.363
L451.44 -136.125" id="C1_4e_10906af87b"/>
     <path d="
M451.44 -137.363
L467.28 -137.363
L467.28 -138.6
L451.44 -138.6
L451.44 -137.363" id="C1_4f_c26f6446f2"/>
     <path d="
M451.44 -138.6
L467.28 -138.6
L467.28 -139.838
L451.44 -139.838
L451.44 -138.6" id="C1_50_eb67e52fba"/>
     <path d="
M451.44 -139.838
L467.28 -139.838
L467.28 -141.075
L451.44 -141.075
L451.44 -139.838" id="C1_51_e12b783a76"/>
     <path d="
M451.44 -141.075
L467.28 -141.075
L467.28 -142.312
L451.44 -142.312
L451.44 -141.075" id="C1_52_79e9f25b96"/>
     <path d="
M451.44 -142.312
L467.28 -142.312
L467.28 -143.55
L451.44 -143.55
L451.44 -142.312" id="C1_53_f733f55ad9"/>
     <path d="
M451.44 -143.55
L467.28 -143.55
L467.28 -144.788
L451.44 -144.788
L451.44 -143.55" id="C1_54_f42bebedc5"/>
     <path d="
M451.44 -144.788
L467.28 -144.788
L467.28 -146.025
L451.44 -146.025
L451.44 -144.788" id="C1_55_d1a24e08cc"/>
     <path d="
M451.44 -146.025
L467.28 -146.025
L467.28 -147.263
L451.44 -147.263
L451.44 -146.025" id="C1_56_5c2b3ed96e"/>
     <path d="
M451.44 -147.263
L467.28 -147.263
L467.28 -148.5
L451.44 -148.5
L451.44 -147.263" id="C1_57_ad80d1d280"/>
     <path d="
M451.44 -148.5
L467.28 -148.5
L467.28 -149.738
L451.44 -149.738
L451.44 -148.5" id="C1_58_53ad606263"/>
     <path d="
M451.44 -149.738
L467.28 -149.738
L467.28 -150.975
L451.44 -150.975
L451.44 -149.738" id="C1_59_3969836e2d"/>
     <path d="
M451.44 -150.975
L467.28 -150.975
L467.28 -152.213
L451.44 -152.213
L451.44 -150.975" id="C1_5a_656c96720f"/>
     <path d="
M451.44 -152.213
L467.28 -152.213
L467.28 -153.45
L451.44 -153.45
L451.44 -152.213" id="C1_5b_c53439342e"/>
     <path d="
M451.44 -153.45
L467.28 -153.45
L467.28 -154.688
L451.44 -154.688
L451.44 -153.45" id="C1_5c_24e625cfa0"/>
     <path d="
M451.44 -154.688
L467.28 -154.688
L467.28 -155.925
L451.44 -155.925
L451.44 -154.688" id="C1_5d_390786927c"/>
     <path d="
M451.44 -155.925
L467.28 -155.925
L467.28 -157.163
L451.44 -157.163
L451.44 -155.925" id="C1_5e_65f9b38f2a"/>
     <path d="
M451.44 -157.163
L467.28 -157.163
L467.28 -158.4
L451.44 -158.4
L451.44 -157.163" id="C1_5f_a5f5985b4d"/>
     <path d="
M451.44 -158.4
L467.28 -158.4
L467.28 -159.638
L451.44 -159.638
L451.44 -158.4" id="C1_60_02a953bd07"/>
     <path d="
M451.44 -159.638
L467.28 -159.638
L467.28 -160.875
L451.44 -160.875
L451.44 -159.638" id="C1_61_78b75c5e7d"/>
     <path d="
M451.44 -160.875
L467.28 -160.875
L467.28 -162.113
L451.44 -162.113
L451.44 -160.875" id="C1_62_514a0f19c6"/>
     <path d="
M451.44 -162.113
L467.28 -162.113
L467.28 -163.35
L451.44 -163.35
L451.44 -162.113" id="C1_63_49203c041b"/>
     <path d="
M451.44 -163.35
L467.28 -163.35
L467.28 -164.588
L451.44 -164.588
L451.44 -163.35" id="C1_64_57d792266e"/>
     <path d="
M451.44 -164.588
L467.28 -164.588
L467.28 -165.825
L451.44 -165.825
L451.44 -164.588" id="C1_65_f0aac927f3"/>
     <path d="
M451.44 -165.825
L467.28 -165.825
L467.28 -167.063
L451.44 -167.063
L451.44 -165.825" id="C1_66_0d936da8e4"/>
     <path d="
M451.44 -167.063
L467.28 -167.063
L467.28 -168.3
L451.44 -168.3
L451.44 -167.063" id="C1_67_bafcfbbf7a"/>
     <path d="
M451.44 -168.3
L467.28 -168.3
L467.28 -169.538
L451.44 -169.538
L451.44 -168.3" id="C1_68_d6c9bab919"/>
     <path d="
M451.44 -169.538
L467.28 -169.538
L467.28 -170.775
L451.44 -170.775
L451.44 -169.538" id="C1_69_f601cf68fa"/>
     <path d="
M451.44 -170.775
L467.28 -170.775
L467.28 -172.013
L451.44 -172.013
L451.44 -170.775" id="C1_6a_ae067f9ec1"/>
     <path d="
M451.44 -172.013
L467.28 -172.013
L467.28 -173.25
L451.44 -173.25
L451.44 -172.013" id="C1_6b_a655717a2d"/>
     <path d="
M451.44 -173.25
L467.28 -173.25
L467.28 -174.488
L451.44 -174.488
L451.44 -173.25" id="C1_6c_62b819378e"/>
     <path d="
M451.44 -174.488
L467.28 -174.488
L467.28 -175.725
L451.44 -175.725
L451.44 -174.488" id="C1_6d_7dd0a0767f"/>
     <path d="
M451.44 -175.725
L467.28 -175.725
L467.28 -176.963
L451.44 -176.963
L451.44 -175.725" id="C1_6e_12490395dc"/>
     <path d="
M451.44 -176.963
L467.28 -176.963
L467.28 -178.2
L451.44 -178.2
L451.44 -176.963" id="C1_6f_4a9b192995"/>
     <path d="
M451.44 -178.2
L467.28 -178.2
L467.28 -179.438
L451.44 -179.438
L451.44 -178.2" id="C1_70_070d07abc6"/>
     <path d="
M451.44 -179.438
L467.28 -179.438
L467.28 -180.675
L451.44 -180.675
L451.44 -179.438" id="C1_71_1d26a2464c"/>
     <path d="
M451.44 -180.675
L467.28 -180.675
L467.28 -181.913
L451.44 -181.913
L451.44 -180.675" id="C1_72_7f4c4334bd"/>
     <path d="
M451.44 -181.913
L467.28 -181.913
L467.28 -183.15
L451.44 -183.15
L451.44 -181.913" id="C1_73_394feda2b2"/>
     <path d="
M451.44 -183.15
L467.28 -183.15
L467.28 -184.388
L451.44 -184.388
L451.44 -183.15" id="C1_74_32d188018e"/>
     <path d="
M451.44 -184.388
L467.28 -184.388
L467.28 -185.625
L451.44 -185.625
L451.44 -184.388" id="C1_75_809c69192b"/>
     <path d="
M451.44 -185.625
L467.28 -185.625
L467.28 -186.863
L451.44 -186.863
L451.44 -185.625" id="C1_76_5b264cf5f9"/>
     <path d="
M451.44 -186.863
L467.28 -186.863
L467.28 -188.1
L451.44 -188.1
L451.44 -186.863" id="C1_77_81e57d9ebf"/>
     <path d="
M451.44 -188.1
L467.28 -188.1
L467.28 -189.338
L451.44 -189.338
L451.44 -188.1" id="C1_78_7b7073cb16"/>
     <path d="
M451.44 -189.338
L467.28 -189.338
L467.28 -190.575
L451.44 -190.575
L451.44 -189.338" id="C1_79_9e4f2908f0"/>
     <path d="
M451.44 -190.575
L467.28 -190.575
L467.28 -191.813
L451.44 -191.813
L451.44 -190.575" id="C1_7a_dc1c2d6066"/>
     <path d="
M451.44 -191.813
L467.28 -191.813
L467.28 -193.05
L451.44 -193.05
L451.44 -191.813" id="C1_7b_b09b7b18d2"/>
     <path d="
M451.44 -193.05
L467.28 -193.05
L467.28 -194.288
L451.44 -194.288
L451.44 -193.05" id="C1_7c_8423a5d156"/>
     <path d="
M451.44 -194.288
L467.28 -194.288
L467.28 -195.525
L451.44 -195.525
L451.44 -194.288" id="C1_7d_03582952c0"/>
     <path d="
M451.44 -195.525
L467.28 -195.525
L467.28 -196.763
L451.44 -196.763
L451.44 -195.525" id="C1_7e_d8f8ee9c01"/>
     <path d="
M451.44 -196.763
L467.28 -196.763
L467.28 -198
L451.44 -198
L451.44 -196.763" id="C1_7f_cd42b6f5d6"/>
     <path d="
M451.44 -198
L467.28 -198
L467.28 -199.238
L451.44 -199.238
L451.44 -198" id="C1_80_f2cd9327c5"/>
     <path d="
M451.44 -199.238
L467.28 -199.238
L467.28 -200.475
L451.44 -200.475
L451.44 -199.238" id="C1_81_e2a9194742"/>
     <path d="
M451.44 -200.475
L467.28 -200.475
L467.28 -201.713
L451.44 -201.713
L451.44 -200.475" id="C1_82_44adbef1e6"/>
     <path d="
M451.44 -201.713
L467.28 -201.713
L467.28 -202.95
L451.44 -202.95
L451.44 -201.713" id="C1_83_078e9bec5c"/>
     <path d="
M451.44 -202.95
L467.28 -202.95
L467.28 -204.188
L451.44 -204.188
L451.44 -202.95" id="C1_84_3454f8ce74"/>
     <path d="
M451.44 -204.188
L467.28 -204.188
L467.28 -205.425
L451.44 -205.425
L451.44 -204.188" id="C1_85_fcdfcd407e"/>
     <path d="
M451.44 -205.425
L467.28 -205.425
L467.28 -206.663
L451.44 -206.663
L451.44 -205.425" id="C1_86_1a9ae4aca6"/>
     <path d="
M451.44 -206.663
L467.28 -206.663
L467.28 -207.9
L451.44 -207.9
L451.44 -206.663" id="C1_87_5f7b5d36be"/>
     <path d="
M451.44 -207.9
L467.28 -207.9
L467.28 -209.138
L451.44 -209.138
L451.44 -207.9" id="C1_88_2c26bcc389"/>
     <path d="
M451.44 -209.138
L467.28 -209.138
L467.28 -210.375
L451.44 -210.375
L451.44 -209.138" id="C1_89_c9c3a4d681"/>
     <path d="
M451.44 -210.375
L467.28 -210.375
L467.28 -211.613
L451.44 -211.613
L451.44 -210.375" id="C1_8a_4d632f47a5"/>
     <path d="
M451.44 -211.613
L467.28 -211.613
L467.28 -212.85
L451.44 -212.85
L451.44 -211.613" id="C1_8b_94913ae37c"/>
     <path d="
M451.44 -212.85
L467.28 -212.85
L467.28 -214.088
L451.44 -214.088
L451.44 -212.85" id="C1_8c_371e03acbc"/>
     <path d="
M451.44 -214.088
L467.28 -214.088
L467.28 -215.325
L451.44 -215.325
L451.44 -214.088" id="C1_8d_426a36bd8d"/>
     <path d="
M451.44 -215.325
L467.28 -215.325
L467.28 -216.563
L451.44 -216.563
L451.44 -215.325" id="C1_8e_d395c42303"/>
     <path d="
M451.44 -216.563
L467.28 -216.563
L467.28 -217.8
L451.44 -217.8
L451.44 -216.563" id="C1_8f_7f6f92387b"/>
     <path d="
M451.44 -217.8
L467.28 -217.8
L467.28 -219.038
L451.44 -219.038
L451.44 -217.8" id="C1_90_82b72b0006"/>
     <path d="
M451.44 -219.038
L467.28 -219.038
L467.28 -220.275
L451.44 -220.275
L451.44 -219.038" id="C1_91_2ab1f7e0a8"/>
     <path d="
M451.44 -220.275
L467.28 -220.275
L467.28 -221.513
L451.44 -221.513
L451.44 -220.275" id="C1_92_969918fc8b"/>
     <path d="
M451.44 -221.513
L467.28 -221.513
L467.28 -222.75
L451.44 -222.75
L451.44 -221.513" id="C1_93_d17ce11bbe"/>
     <path d="
M451.44 -222.75
L467.28 -222.75
L467.28 -223.988
L451.44 -223.988
L451.44 -222.75" id="C1_94_0fe239e034"/>
     <path d="
M451.44 -223.988
L467.28 -223.988
L467.28 -225.225
L451.44 -225.225
L451.44 -223.988" id="C1_95_e0d80114ce"/>
     <path d="
M451.44 -225.225
L467.28 -225.225
L467.28 -226.463
L451.44 -226.463
L451.44 -225.225" id="C1_96_1080349809"/>
     <path d="
M451.44 -226.463
L467.28 -226.463
L467.28 -227.7
L451.44 -227.7
L451.44 -226.463" id="C1_97_8f47d64e1c"/>
     <path d="
M451.44 -227.7
L467.28 -227.7
L467.28 -228.938
L451.44 -228.938
L451.44 -227.7" id="C1_98_62cea9b2bd"/>
     <path d="
M451.44 -228.938
L467.28 -228.938
L467.28 -230.175
L451.44 -230.175
L451.44 -228.938" id="C1_99_63e442b3ac"/>
     <path d="
M451.44 -230.175
L467.28 -230.175
L467.28 -231.413
L451.44 -231.413
L451.44 -230.175" id="C1_9a_5898deafdb"/>
     <path d="
M451.44 -231.413
L467.28 -231.413
L467.28 -232.65
L451.44 -232.65
L451.44 -231.413" id="C1_9b_d3b395601f"/>
     <path d="
M451.44 -232.65
L467.28 -232.65
L467.28 -233.888
L451.44 -233.888
L451.44 -232.65" id="C1_9c_034e7d7f5d"/>
     <path d="
M451.44 -233.888
L467.28 -233.888
L467.28 -235.125
L451.44 -235.125
L451.44 -233.888" id="C1_9d_026098040e"/>
     <path d="
M451.44 -235.125
L467.28 -235.125
L467.28 -236.363
L451.44 -236.363
L451.44 -235.125" id="C1_9e_dd452009c8"/>
     <path d="
M451.44 -236.363
L467.28 -236.363
L467.28 -237.6
L451.44 -237.6
L451.44 -236.363" id="C1_9f_a5782c5410"/>
     <path d="
M451.44 -237.6
L467.28 -237.6
L467.28 -238.838
L451.44 -238.838
L451.44 -237.6" id="C1_a0_bd6fed1b2c"/>
     <path d="
M451.44 -238.838
L467.28 -238.838
L467.28 -240.075
L451.44 -240.075
L451.44 -238.838" id="C1_a1_119e433405"/>
     <path d="
M451.44 -240.075
L467.28 -240.075
L467.28 -241.313
L451.44 -241.313
L451.44 -240.075" id="C1_a2_9b4d0f34eb"/>
     <path d="
M451.44 -241.313
L467.28 -241.313
L467.28 -242.55
L451.44 -242.55
L451.44 -241.313" id="C1_a3_caf24abb4e"/>
     <path d="
M451.44 -242.55
L467.28 -242.55
L467.28 -243.788
L451.44 -243.788
L451.44 -242.55" id="C1_a4_0e7dbad4e8"/>
     <path d="
M451.44 -243.788
L467.28 -243.788
L467.28 -245.025
L451.44 -245.025
L451.44 -243.788" id="C1_a5_b5b5de556b"/>
     <path d="
M451.44 -245.025
L467.28 -245.025
L467.28 -246.263
L451.44 -246.263
L451.44 -245.025" id="C1_a6_c022db3d95"/>
     <path d="
M451.44 -246.263
L467.28 -246.263
L467.28 -247.5
L451.44 -247.5
L451.44 -246.263" id="C1_a7_5ee38f1401"/>
     <path d="
M451.44 -247.5
L467.28 -247.5
L467.28 -248.738
L451.44 -248.738
L451.44 -247.5" id="C1_a8_f4b006a443"/>
     <path d="
M451.44 -248.738
L467.28 -248.738
L467.28 -249.975
L451.44 -249.975
L451.44 -248.738" id="C1_a9_8374132d86"/>
     <path d="
M451.44 -249.975
L467.28 -249.975
L467.28 -251.213
L451.44 -251.213
L451.44 -249.975" id="C1_aa_8ae123b82f"/>
     <path d="
M451.44 -251.213
L467.28 -251.213
L467.28 -252.45
L451.44 -252.45
L451.44 -251.213" id="C1_ab_61060229dc"/>
     <path d="
M451.44 -252.45
L467.28 -252.45
L467.28 -253.688
L451.44 -253.688
L451.44 -252.45" id="C1_ac_3f6d784d2f"/>
     <path d="
M451.44 -253.688
L467.28 -253.688
L467.28 -254.925
L451.44 -254.925
L451.44 -253.688" id="C1_ad_cd6efb7234"/>
     <path d="
M451.44 -254.925
L467.28 -254.925
L467.28 -256.163
L451.44 -256.163
L451.44 -254.925" id="C1_ae_d55a3b5b48"/>
     <path d="
M451.44 -256.163
L467.28 -256.163
L467.28 -257.4
L451.44 -257.4
L451.44 -256.163" id="C1_af_981b163bcb"/>
     <path d="
M451.44 -257.4
L467.28 -257.4
L467.28 -258.638
L451.44 -258.638
L451.44 -257.4" id="C1_b0_fa14fe5f4f"/>
     <path d="
M451.44 -258.638
L467.28 -258.638
L467.28 -259.875
L451.44 -259.875
L451.44 -258.638" id="C1_b1_f2dcfa913b"/>
     <path d="
M451.44 -259.875
L467.28 -259.875
L467.28 -261.113
L451.44 -261.113
L451.44 -259.875" id="C1_b2_31564d5aed"/>
     <path d="
M451.44 -261.113
L467.28 -261.113
L467.28 -262.35
L451.44 -262.35
L451.44 -261.113" id="C1_b3_96627001f0"/>
     <path d="
M451.44 -262.35
L467.28 -262.35
L467.28 -263.588
L451.44 -263.588
L451.44 -262.35" id="C1_b4_1e9b253639"/>
     <path d="
M451.44 -263.588
L467.28 -263.588
L467.28 -264.825
L451.44 -264.825
L451.44 -263.588" id="C1_b5_356b4f447b"/>
     <path d="
M451.44 -264.825
L467.28 -264.825
L467.28 -266.063
L451.44 -266.063
L451.44 -264.825" id="C1_b6_0606ac5f9c"/>
     <path d="
M451.44 -266.063
L467.28 -266.063
L467.28 -267.3
L451.44 -267.3
L451.44 -266.063" id="C1_b7_d6462675a1"/>
     <path d="
M451.44 -267.3
L467.28 -267.3
L467.28 -268.538
L451.44 -268.538
L451.44 -267.3" id="C1_b8_f9ef6d5fdd"/>
     <path d="
M451.44 -268.538
L467.28 -268.538
L467.28 -269.775
L451.44 -269.775
L451.44 -268.538" id="C1_b9_6edf5ac935"/>
     <path d="
M451.44 -269.775
L467.28 -269.775
L467.28 -271.013
L451.44 -271.013
L451.44 -269.775" id="C1_ba_5770decbb9"/>
     <path d="
M451.44 -271.013
L467.28 -271.013
L467.28 -272.25
L451.44 -272.25
L451.44 -271.013" id="C1_bb_d50634a487"/>
     <path d="
M451.44 -272.25
L467.28 -272.25
L467.28 -273.488
L451.44 -273.488
L451.44 -272.25" id="C1_bc_4a6d6f5595"/>
     <path d="
M451.44 -273.488
L467.28 -273.488
L467.28 -274.725
L451.44 -274.725
L451.44 -273.488" id="C1_bd_07ca3e6523"/>
     <path d="
M451.44 -274.725
L467.28 -274.725
L467.28 -275.963
L451.44 -275.963
L451.44 -274.725" id="C1_be_82908cfe76"/>
     <path d="
M451.44 -275.963
L467.28 -275.963
L467.28 -277.2
L451.44 -277.2
L451.44 -275.963" id="C1_bf_6fe09f03a0"/>
     <path d="
M451.44 -277.2
L467.28 -277.2
L467.28 -278.438
L451.44 -278.438
L451.44 -277.2" id="C1_c0_ba335b7d87"/>
     <path d="
M451.44 -278.438
L467.28 -278.438
L467.28 -279.675
L451.44 -279.675
L451.44 -278.438" id="C1_c1_9ed3d38074"/>
     <path d="
M451.44 -279.675
L467.28 -279.675
L467.28 -280.913
L451.44 -280.913
L451.44 -279.675" id="C1_c2_28f38e46e7"/>
     <path d="
M451.44 -280.913
L467.28 -280.913
L467.28 -282.15
L451.44 -282.15
L451.44 -280.913" id="C1_c3_4a7319678f"/>
     <path d="
M451.44 -282.15
L467.28 -282.15
L467.28 -283.388
L451.44 -283.388
L451.44 -282.15" id="C1_c4_519619f236"/>
     <path d="
M451.44 -283.388
L467.28 -283.388
L467.28 -284.625
L451.44 -284.625
L451.44 -283.388" id="C1_c5_ab5b3a68fa"/>
     <path d="
M451.44 -284.625
L467.28 -284.625
L467.28 -285.863
L451.44 -285.863
L451.44 -284.625" id="C1_c6_fd57d30c01"/>
     <path d="
M451.44 -285.863
L467.28 -285.863
L467.28 -287.1
L451.44 -287.1
L451.44 -285.863" id="C1_c7_8f1f3b8a33"/>
     <path d="
M451.44 -287.1
L467.28 -287.1
L467.28 -288.338
L451.44 -288.338
L451.44 -287.1" id="C1_c8_290e30682d"/>
     <path d="
M451.44 -288.338
L467.28 -288.338
L467.28 -289.575
L451.44 -289.575
L451.44 -288.338" id="C1_c9_008dcc47ac"/>
     <path d="
M451.44 -289.575
L467.28 -289.575
L467.28 -290.813
L451.44 -290.813
L451.44 -289.575" id="C1_ca_d234f69dbe"/>
     <path d="
M451.44 -290.813
L467.28 -290.813
L467.28 -292.05
L451.44 -292.05
L451.44 -290.813" id="C1_cb_d2ed000cd4"/>
     <path d="
M451.44 -292.05
L467.28 -292.05
L467.28 -293.288
L451.44 -293.288
L451.44 -292.05" id="C1_cc_e84f719087"/>
     <path d="
M451.44 -293.288
L467.28 -293.288
L467.28 -294.525
L451.44 -294.525
L451.44 -293.288" id="C1_cd_a8e5115656"/>
     <path d="
M451.44 -294.525
L467.28 -294.525
L467.28 -295.763
L451.44 -295.763
L451.44 -294.525" id="C1_ce_d4a32d9bba"/>
     <path d="
M451.44 -295.763
L467.28 -295.763
L467.28 -297
L451.44 -297
L451.44 -295.763" id="C1_cf_ea48096987"/>
     <path d="
M451.44 -297
L467.28 -297
L467.28 -298.238
L451.44 -298.238
L451.44 -297" id="C1_d0_c72ed7a799"/>
     <path d="
M451.44 -298.238
L467.28 -298.238
L467.28 -299.475
L451.44 -299.475
L451.44 -298.238" id="C1_d1_048213de92"/>
     <path d="
M451.44 -299.475
L467.28 -299.475
L467.28 -300.713
L451.44 -300.713
L451.44 -299.475" id="C1_d2_da247c97f6"/>
     <path d="
M451.44 -300.713
L467.28 -300.713
L467.28 -301.95
L451.44 -301.95
L451.44 -300.713" id="C1_d3_224f83ba56"/>
     <path d="
M451.44 -301.95
L467.28 -301.95
L467.28 -303.188
L451.44 -303.188
L451.44 -301.95" id="C1_d4_af01840c49"/>
     <path d="
M451.44 -303.188
L467.28 -303.188
L467.28 -304.425
L451.44 -304.425
L451.44 -303.188" id="C1_d5_78af603c2d"/>
     <path d="
M451.44 -304.425
L467.28 -304.425
L467.28 -305.663
L451.44 -305.663
L451.44 -304.425" id="C1_d6_8cb4f2759f"/>
     <path d="
M451.44 -305.663
L467.28 -305.663
L467.28 -306.9
L451.44 -306.9
L451.44 -305.663" id="C1_d7_a0fb79453b"/>
     <path d="
M451.44 -306.9
L467.28 -306.9
L467.28 -308.138
L451.44 -308.138
L451.44 -306.9" id="C1_d8_65c4d43946"/>
     <path d="
M451.44 -308.138
L467.28 -308.138
L467.28 -309.375
L451.44 -309.375
L451.44 -308.138" id="C1_d9_18966d2d94"/>
     <path d="
M451.44 -309.375
L467.28 -309.375
L467.28 -310.613
L451.44 -310.613
L451.44 -309.375" id="C1_da_298dc1ae83"/>
     <path d="
M451.44 -310.613
L467.28 -310.613
L467.28 -311.85
L451.44 -311.85
L451.44 -310.613" id="C1_db_5d3d97f73f"/>
     <path d="
M451.44 -311.85
L467.28 -311.85
L467.28 -313.088
L451.44 -313.088
L451.44 -311.85" id="C1_dc_2e50ee0ba4"/>
     <path d="
M451.44 -313.088
L467.28 -313.088
L467.28 -314.325
L451.44 -314.325
L451.44 -313.088" id="C1_dd_38e4f114d2"/>
     <path d="
M451.44 -314.325
L467.28 -314.325
L467.28 -315.562
L451.44 -315.562
L451.44 -314.325" id="C1_de_eb811a6645"/>
     <path d="
M451.44 -315.562
L467.28 -315.562
L467.28 -316.8
L451.44 -316.8
L451.44 -315.562" id="C1_df_867ace6d6f"/>
     <path d="
M451.44 -316.8
L467.28 -316.8
L467.28 -318.038
L451.44 -318.038
L451.44 -316.8" id="C1_e0_5608730755"/>
     <path d="
M451.44 -318.038
L467.28 -318.038
L467.28 -319.275
L451.44 -319.275
L451.44 -318.038" id="C1_e1_4de7f56009"/>
     <path d="
M451.44 -319.275
L467.28 -319.275
L467.28 -320.513
L451.44 -320.513
L451.44 -319.275" id="C1_e2_35614a4250"/>
     <path d="
M451.44 -320.513
L467.28 -320.513
L467.28 -321.75
L451.44 -321.75
L451.44 -320.513" id="C1_e3_3c62ce08a0"/>
     <path d="
M451.44 -321.75
L467.28 -321.75
L467.28 -322.988
L451.44 -322.988
L451.44 -321.75" id="C1_e4_2a5b3c788f"/>
     <path d="
M451.44 -322.988
L467.28 -322.988
L467.28 -324.225
L451.44 -324.225
L451.44 -322.988" id="C1_e5_1be2cd0311"/>
     <path d="
M451.44 -324.225
L467.28 -324.225
L467.28 -325.463
L451.44 -325.463
L451.44 -324.225" id="C1_e6_c019c6a4cd"/>
     <path d="
M451.44 -325.463
L467.28 -325.463
L467.28 -326.7
L451.44 -326.7
L451.44 -325.463" id="C1_e7_78c3debe45"/>
     <path d="
M451.44 -326.7
L467.28 -326.7
L467.28 -327.938
L451.44 -327.938
L451.44 -326.7" id="C1_e8_b6cfc9d54a"/>
     <path d="
M451.44 -327.938
L467.28 -327.938
L467.28 -329.175
L451.44 -329.175
L451.44 -327.938" id="C1_e9_71141236cd"/>
     <path d="
M451.44 -329.175
L467.28 -329.175
L467.28 -330.413
L451.44 -330.413
L451.44 -329.175" id="C1_ea_8d8039b1d4"/>
     <path d="
M451.44 -330.413
L467.28 -330.413
L467.28 -331.65
L451.44 -331.65
L451.44 -330.413" id="C1_eb_8f47287918"/>
     <path d="
M451.44 -331.65
L467.28 -331.65
L467.28 -332.888
L451.44 -332.888
L451.44 -331.65" id="C1_ec_35f4960c28"/>
     <path d="
M451.44 -332.888
L467.28 -332.888
L467.28 -334.125
L451.44 -334.125
L451.44 -332.888" id="C1_ed_ec1cca0f69"/>
     <path d="
M451.44 -334.125
L467.28 -334.125
L467.28 -335.363
L451.44 -335.363
L451.44 -334.125" id="C1_ee_a4da005b4f"/>
     <path d="
M451.44 -335.363
L467.28 -335.363
L467.28 -336.6
L451.44 -336.6
L451.44 -335.363" id="C1_ef_d42ae88b12"/>
     <path d="
M451.44 -336.6
L467.28 -336.6
L467.28 -337.838
L451.44 -337.838
L451.44 -336.6" id="C1_f0_d22aa85745"/>
     <path d="
M451.44 -337.838
L467.28 -337.838
L467.28 -339.075
L451.44 -339.075
L451.44 -337.838" id="C1_f1_9b0e736891"/>
     <path d="
M451.44 -339.075
L467.28 -339.075
L467.28 -340.313
L451.44 -340.313
L451.44 -339.075" id="C1_f2_114fb30905"/>
     <path d="
M451.44 -340.313
L467.28 -340.313
L467.28 -341.55
L451.44 -341.55
L451.44 -340.313" id="C1_f3_7cc025eb65"/>
     <path d="
M451.44 -341.55
L467.28 -341.55
L467.28 -342.788
L451.44 -342.788
L451.44 -341.55" id="C1_f4_47d667ad14"/>
     <path d="
M451.44 -342.788
L467.28 -342.788
L467.28 -344.025
L451.44 -344.025
L451.44 -342.788" id="C1_f5_ae994a946c"/>
     <path d="
M451.44 -344.025
L467.28 -344.025
L467.28 -345.263
L451.44 -345.263
L451.44 -344.025" id="C1_f6_c478bef10a"/>
     <path d="
M451.44 -345.263
L467.28 -345.263
L467.28 -346.5
L451.44 -346.5
L451.44 -345.263" id="C1_f7_d5b8849248"/>
     <path d="
M451.44 -346.5
L467.28 -346.5
L467.28 -347.738
L451.44 -347.738
L451.44 -346.5" id="C1_f8_11c0df7702"/>
     <path d="
M451.44 -347.738
L467.28 -347.738
L467.28 -348.975
L451.44 -348.975
L451.44 -347.738" id="C1_f9_370e485c35"/>
     <path d="
M451.44 -348.975
L467.28 -348.975
L467.28 -350.213
L451.44 -350.213
L451.44 -348.975" id="C1_fa_77a3533a61"/>
     <path d="
M451.44 -350.213
L467.28 -350.213
L467.28 -351.45
L451.44 -351.45
L451.44 -350.213" id="C1_fb_fdea84c130"/>
     <path d="
M451.44 -351.45
L467.28 -351.45
L467.28 -352.688
L451.44 -352.688
L451.44 -351.45" id="C1_fc_31ebc99099"/>
     <path d="
M451.44 -352.688
L467.28 -352.688
L467.28 -353.925
L451.44 -353.925
L451.44 -352.688" id="C1_fd_7ae1d4a642"/>
     <path d="
M451.44 -353.925
L467.28 -353.925
L467.28 -355.163
L451.44 -355.163
L451.44 -353.925" id="C1_fe_8d30c8d84c"/>
     <path d="
M451.44 -355.163
L467.28 -355.163
L467.28 -356.4
L451.44 -356.4
L451.44 -355.163" id="C1_ff_b8ba72fd8c"/>
    </defs>
    <g clip-path="url(#p504eebcf5d)">
     <use style="fill:#f7fbff;" x="0.0" xlink:href="#C1_0_d40b57ef9b" y="396.0"/>
    </g>
    <g clip-path="url(#p504eebcf5d)">
     <use style="fill:#f6faff;" x="0.0" xlink:href="#C1_1_f33ef3f7b5" y="396.0"/>
    </g>
    <g clip-path="url(#p504eebcf5d)">
     <use style="fill:#f5fafe;" x="0.0" xlink:href="#C1_2_e05f7b1fcd" y="396.0"/>
    </g>
    <g clip-path="url(#p504eebcf5d)">
     <use style="fill:#f5f9fe;" x="0.0" xlink:href="#C1_3_cc3099c41f" y="396.0"/>
    </g>
    <g clip-path="url(#p504eebcf5d)">
     <use style="fill:#f4f9fe;" x="0.0" xlink:href="#C1_4_e0661eb9be" y="396.0"/>
    </g>
    <g clip-path="url(#p504eebcf5d)">
     <use style="fill:#f3f8fe;" x="0.0" xlink:href="#C1_5_d7d0beecb8" y="396.0"/>
    </g>
    <g clip-path="url(#p504eebcf5d)">
     <use style="fill:#f2f8fd;" x="0.0" xlink:href="#C1_6_a5f95891cf" y="396.0"/>
    </g>
    <g clip-path="url(#p504eebcf5d)">
     <use style="fill:#f2f7fd;" x="0.0" xlink:href="#C1_7_dee2d42802" y="396.0"/>
    </g>
    <g clip-path="url(#p504eebcf5d)">
     <use style="fill:#f1f7fd;" x="0.0" xlink:href="#C1_8_0101623b29" y="396.0"/>
    </g>
    <g clip-path="url(#p504eebcf5d)">
     <use style="fill:#f0f6fd;" x="0.0" xlink:href="#C1_9_9c956a5eeb" y="396.0"/>
    </g>
    <g clip-path="url(#p504eebcf5d)">
     <use style="fill:#eff6fc;" x="0.0" xlink:href="#C1_a_afdbad437e" y="396.0"/>
    </g>
    <g clip-path="url(#p504eebcf5d)">
     <use style="fill:#eef5fc;" x="0.0" xlink:href="#C1_b_2f909facb4" y="396.0"/>
    </g>
    <g clip-path="url(#p504eebcf5d)">
     <use style="fill:#eef5fc;" x="0.0" xlink:href="#C1_c_8a7066131a" y="396.0"/>
    </g>
    <g clip-path="url(#p504eebcf5d)">
     <use style="fill:#edf4fc;" x="0.0" xlink:href="#C1_d_28455e7682" y="396.0"/>
    </g>
    <g clip-path="url(#p504eebcf5d)">
     <use style="fill:#ecf4fb;" x="0.0" xlink:href="#C1_e_20323ab8d8" y="396.0"/>
    </g>
    <g clip-path="url(#p504eebcf5d)">
     <use style="fill:#ebf3fb;" x="0.0" xlink:href="#C1_f_4228a7a671" y="396.0"/>
    </g>
    <g clip-path="url(#p504eebcf5d)">
     <use style="fill:#eaf3fb;" x="0.0" xlink:href="#C1_10_37ca5ef489" y="396.0"/>
    </g>
    <g clip-path="url(#p504eebcf5d)">
     <use style="fill:#eaf2fb;" x="0.0" xlink:href="#C1_11_bcd04f8dad" y="396.0"/>
    </g>
    <g clip-path="url(#p504eebcf5d)">
     <use style="fill:#e9f2fa;" x="0.0" xlink:href="#C1_12_2e3486b5b3" y="396.0"/>
    </g>
    <g clip-path="url(#p504eebcf5d)">
     <use style="fill:#e8f1fa;" x="0.0" xlink:href="#C1_13_daf3c8130c" y="396.0"/>
    </g>
    <g clip-path="url(#p504eebcf5d)">
     <use style="fill:#e7f1fa;" x="0.0" xlink:href="#C1_14_a880300588" y="396.0"/>
    </g>
    <g clip-path="url(#p504eebcf5d)">
     <use style="fill:#e7f0fa;" x="0.0" xlink:href="#C1_15_c1283e2645" y="396.0"/>
    </g>
    <g clip-path="url(#p504eebcf5d)">
     <use style="fill:#e6f0f9;" x="0.0" xlink:href="#C1_16_cf62f1e2b1" y="396.0"/>
    </g>
    <g clip-path="url(#p504eebcf5d)">
     <use style="fill:#e5eff9;" x="0.0" xlink:href="#C1_17_cfec445701" y="396.0"/>
    </g>
    <g clip-path="url(#p504eebcf5d)">
     <use style="fill:#e4eff9;" x="0.0" xlink:href="#C1_18_f842c5464c" y="396.0"/>
    </g>
    <g clip-path="url(#p504eebcf5d)">
     <use style="fill:#e3eef9;" x="0.0" xlink:href="#C1_19_c292f538b7" y="396.0"/>
    </g>
    <g clip-path="url(#p504eebcf5d)">
     <use style="fill:#e3eef8;" x="0.0" xlink:href="#C1_1a_e957404200" y="396.0"/>
    </g>
    <g clip-path="url(#p504eebcf5d)">
     <use style="fill:#e2edf8;" x="0.0" xlink:href="#C1_1b_ce21641676" y="396.0"/>
    </g>
    <g clip-path="url(#p504eebcf5d)">
     <use style="fill:#e1edf8;" x="0.0" xlink:href="#C1_1c_7b4e2d1d27" y="396.0"/>
    </g>
    <g clip-path="url(#p504eebcf5d)">
     <use style="fill:#e0ecf8;" x="0.0" xlink:href="#C1_1d_dc1d11969a" y="396.0"/>
    </g>
    <g clip-path="url(#p504eebcf5d)">
     <use style="fill:#dfecf7;" x="0.0" xlink:href="#C1_1e_e7fbbd5979" y="396.0"/>
    </g>
    <g clip-path="url(#p504eebcf5d)">
     <use style="fill:#dfebf7;" x="0.0" xlink:href="#C1_1f_aff9f03eaa" y="396.0"/>
    </g>
    <g clip-path="url(#p504eebcf5d)">
     <use style="fill:#deebf7;" x="0.0" xlink:href="#C1_20_6efbe66ec3" y="396.0"/>
    </g>
    <g clip-path="url(#p504eebcf5d)">
     <use style="fill:#ddeaf7;" x="0.0" xlink:href="#C1_21_a681f75a8c" y="396.0"/>
    </g>
    <g clip-path="url(#p504eebcf5d)">
     <use style="fill:#dceaf6;" x="0.0" xlink:href="#C1_22_a1e2f0cc1b" y="396.0"/>
    </g>
    <g clip-path="url(#p504eebcf5d)">
     <use style="fill:#dce9f6;" x="0.0" xlink:href="#C1_23_b688001c9d" y="396.0"/>
    </g>
    <g clip-path="url(#p504eebcf5d)">
     <use style="fill:#dbe9f6;" x="0.0" xlink:href="#C1_24_da5fc9472e" y="396.0"/>
    </g>
    <g clip-path="url(#p504eebcf5d)">
     <use style="fill:#dae8f6;" x="0.0" xlink:href="#C1_25_7e34bd278f" y="396.0"/>
    </g>
    <g clip-path="url(#p504eebcf5d)">
     <use style="fill:#d9e8f5;" x="0.0" xlink:href="#C1_26_a56e1d8b1b" y="396.0"/>
    </g>
    <g clip-path="url(#p504eebcf5d)">
     <use style="fill:#d9e7f5;" x="0.0" xlink:href="#C1_27_53826c7338" y="396.0"/>
    </g>
    <g clip-path="url(#p504eebcf5d)">
     <use style="fill:#d8e7f5;" x="0.0" xlink:href="#C1_28_6ee06d929b" y="396.0"/>
    </g>
    <g clip-path="url(#p504eebcf5d)">
     <use style="fill:#d7e6f5;" x="0.0" xlink:href="#C1_29_e34c396574" y="396.0"/>
    </g>
    <g clip-path="url(#p504eebcf5d)">
     <use style="fill:#d6e6f4;" x="0.0" xlink:href="#C1_2a_b1613a63a1" y="396.0"/>
    </g>
    <g clip-path="url(#p504eebcf5d)">
     <use style="fill:#d6e5f4;" x="0.0" xlink:href="#C1_2b_1166e8093d" y="396.0"/>
    </g>
    <g clip-path="url(#p504eebcf5d)">
     <use style="fill:#d5e5f4;" x="0.0" xlink:href="#C1_2c_ee94113155" y="396.0"/>
    </g>
    <g clip-path="url(#p504eebcf5d)">
     <use style="fill:#d4e4f4;" x="0.0" xlink:href="#C1_2d_8c8179b491" y="396.0"/>
    </g>
    <g clip-path="url(#p504eebcf5d)">
     <use style="fill:#d3e4f3;" x="0.0" xlink:href="#C1_2e_463039751c" y="396.0"/>
    </g>
    <g clip-path="url(#p504eebcf5d)">
     <use style="fill:#d3e3f3;" x="0.0" xlink:href="#C1_2f_8de39d46e5" y="396.0"/>
    </g>
    <g clip-path="url(#p504eebcf5d)">
     <use style="fill:#d2e3f3;" x="0.0" xlink:href="#C1_30_cec6121c73" y="396.0"/>
    </g>
    <g clip-path="url(#p504eebcf5d)">
     <use style="fill:#d1e2f3;" x="0.0" xlink:href="#C1_31_c4b1f88ac5" y="396.0"/>
    </g>
    <g clip-path="url(#p504eebcf5d)">
     <use style="fill:#d0e2f2;" x="0.0" xlink:href="#C1_32_8b02590412" y="396.0"/>
    </g>
    <g clip-path="url(#p504eebcf5d)">
     <use style="fill:#d0e1f2;" x="0.0" xlink:href="#C1_33_e0c5c74e54" y="396.0"/>
    </g>
    <g clip-path="url(#p504eebcf5d)">
     <use style="fill:#cfe1f2;" x="0.0" xlink:href="#C1_34_be6e6d5ba2" y="396.0"/>
    </g>
    <g clip-path="url(#p504eebcf5d)">
     <use style="fill:#cee0f2;" x="0.0" xlink:href="#C1_35_c3357a4ba3" y="396.0"/>
    </g>
    <g clip-path="url(#p504eebcf5d)">
     <use style="fill:#cde0f1;" x="0.0" xlink:href="#C1_36_074d6527c2" y="396.0"/>
    </g>
    <g clip-path="url(#p504eebcf5d)">
     <use style="fill:#cddff1;" x="0.0" xlink:href="#C1_37_28f684f5dc" y="396.0"/>
    </g>
    <g clip-path="url(#p504eebcf5d)">
     <use style="fill:#ccdff1;" x="0.0" xlink:href="#C1_38_012631b547" y="396.0"/>
    </g>
    <g clip-path="url(#p504eebcf5d)">
     <use style="fill:#cbdef1;" x="0.0" xlink:href="#C1_39_c0ce7336d5" y="396.0"/>
    </g>
    <g clip-path="url(#p504eebcf5d)">
     <use style="fill:#cadef0;" x="0.0" xlink:href="#C1_3a_fba377652b" y="396.0"/>
    </g>
    <g clip-path="url(#p504eebcf5d)">
     <use style="fill:#caddf0;" x="0.0" xlink:href="#C1_3b_cdf5e416df" y="396.0"/>
    </g>
    <g clip-path="url(#p504eebcf5d)">
     <use style="fill:#c9ddf0;" x="0.0" xlink:href="#C1_3c_20c11c9407" y="396.0"/>
    </g>
    <g clip-path="url(#p504eebcf5d)">
     <use style="fill:#c8dcf0;" x="0.0" xlink:href="#C1_3d_8b50f4eb92" y="396.0"/>
    </g>
    <g clip-path="url(#p504eebcf5d)">
     <use style="fill:#c7dcef;" x="0.0" xlink:href="#C1_3e_c27271344b" y="396.0"/>
    </g>
    <g clip-path="url(#p504eebcf5d)">
     <use style="fill:#c7dbef;" x="0.0" xlink:href="#C1_3f_0b905c7f1a" y="396.0"/>
    </g>
    <g clip-path="url(#p504eebcf5d)">
     <use style="fill:#c6dbef;" x="0.0" xlink:href="#C1_40_3d2cb81471" y="396.0"/>
    </g>
    <g clip-path="url(#p504eebcf5d)">
     <use style="fill:#c4daee;" x="0.0" xlink:href="#C1_41_0de3481673" y="396.0"/>
    </g>
    <g clip-path="url(#p504eebcf5d)">
     <use style="fill:#c3daee;" x="0.0" xlink:href="#C1_42_7f0781218f" y="396.0"/>
    </g>
    <g clip-path="url(#p504eebcf5d)">
     <use style="fill:#c2d9ee;" x="0.0" xlink:href="#C1_43_681f77328d" y="396.0"/>
    </g>
    <g clip-path="url(#p504eebcf5d)">
     <use style="fill:#c1d9ed;" x="0.0" xlink:href="#C1_44_9633dbf36a" y="396.0"/>
    </g>
    <g clip-path="url(#p504eebcf5d)">
     <use style="fill:#bfd8ed;" x="0.0" xlink:href="#C1_45_7d5e49fcb3" y="396.0"/>
    </g>
    <g clip-path="url(#p504eebcf5d)">
     <use style="fill:#bed8ec;" x="0.0" xlink:href="#C1_46_33c0955ffd" y="396.0"/>
    </g>
    <g clip-path="url(#p504eebcf5d)">
     <use style="fill:#bdd7ec;" x="0.0" xlink:href="#C1_47_56d78515f5" y="396.0"/>
    </g>
    <g clip-path="url(#p504eebcf5d)">
     <use style="fill:#bcd7eb;" x="0.0" xlink:href="#C1_48_b13fe3cb3a" y="396.0"/>
    </g>
    <g clip-path="url(#p504eebcf5d)">
     <use style="fill:#bad6eb;" x="0.0" xlink:href="#C1_49_a5d66e7872" y="396.0"/>
    </g>
    <g clip-path="url(#p504eebcf5d)">
     <use style="fill:#b9d6ea;" x="0.0" xlink:href="#C1_4a_116bd96352" y="396.0"/>
    </g>
    <g clip-path="url(#p504eebcf5d)">
     <use style="fill:#b8d5ea;" x="0.0" xlink:href="#C1_4b_c314771a1e" y="396.0"/>
    </g>
    <g clip-path="url(#p504eebcf5d)">
     <use style="fill:#b7d4ea;" x="0.0" xlink:href="#C1_4c_7c50e0ce31" y="396.0"/>
    </g>
    <g clip-path="url(#p504eebcf5d)">
     <use style="fill:#b5d4e9;" x="0.0" xlink:href="#C1_4d_be474786e9" y="396.0"/>
    </g>
    <g clip-path="url(#p504eebcf5d)">
     <use style="fill:#b4d3e9;" x="0.0" xlink:href="#C1_4e_10906af87b" y="396.0"/>
    </g>
    <g clip-path="url(#p504eebcf5d)">
     <use style="fill:#b3d3e8;" x="0.0" xlink:href="#C1_4f_c26f6446f2" y="396.0"/>
    </g>
    <g clip-path="url(#p504eebcf5d)">
     <use style="fill:#b2d2e8;" x="0.0" xlink:href="#C1_50_eb67e52fba" y="396.0"/>
    </g>
    <g clip-path="url(#p504eebcf5d)">
     <use style="fill:#b0d2e7;" x="0.0" xlink:href="#C1_51_e12b783a76" y="396.0"/>
    </g>
    <g clip-path="url(#p504eebcf5d)">
     <use style="fill:#afd1e7;" x="0.0" xlink:href="#C1_52_79e9f25b96" y="396.0"/>
    </g>
    <g clip-path="url(#p504eebcf5d)">
     <use style="fill:#aed1e7;" x="0.0" xlink:href="#C1_53_f733f55ad9" y="396.0"/>
    </g>
    <g clip-path="url(#p504eebcf5d)">
     <use style="fill:#add0e6;" x="0.0" xlink:href="#C1_54_f42bebedc5" y="396.0"/>
    </g>
    <g clip-path="url(#p504eebcf5d)">
     <use style="fill:#abd0e6;" x="0.0" xlink:href="#C1_55_d1a24e08cc" y="396.0"/>
    </g>
    <g clip-path="url(#p504eebcf5d)">
     <use style="fill:#aacfe5;" x="0.0" xlink:href="#C1_56_5c2b3ed96e" y="396.0"/>
    </g>
    <g clip-path="url(#p504eebcf5d)">
     <use style="fill:#a9cfe5;" x="0.0" xlink:href="#C1_57_ad80d1d280" y="396.0"/>
    </g>
    <g clip-path="url(#p504eebcf5d)">
     <use style="fill:#a8cee4;" x="0.0" xlink:href="#C1_58_53ad606263" y="396.0"/>
    </g>
    <g clip-path="url(#p504eebcf5d)">
     <use style="fill:#a6cee4;" x="0.0" xlink:href="#C1_59_3969836e2d" y="396.0"/>
    </g>
    <g clip-path="url(#p504eebcf5d)">
     <use style="fill:#a5cde3;" x="0.0" xlink:href="#C1_5a_656c96720f" y="396.0"/>
    </g>
    <g clip-path="url(#p504eebcf5d)">
     <use style="fill:#a4cce3;" x="0.0" xlink:href="#C1_5b_c53439342e" y="396.0"/>
    </g>
    <g clip-path="url(#p504eebcf5d)">
     <use style="fill:#a3cce3;" x="0.0" xlink:href="#C1_5c_24e625cfa0" y="396.0"/>
    </g>
    <g clip-path="url(#p504eebcf5d)">
     <use style="fill:#a1cbe2;" x="0.0" xlink:href="#C1_5d_390786927c" y="396.0"/>
    </g>
    <g clip-path="url(#p504eebcf5d)">
     <use style="fill:#a0cbe2;" x="0.0" xlink:href="#C1_5e_65f9b38f2a" y="396.0"/>
    </g>
    <g clip-path="url(#p504eebcf5d)">
     <use style="fill:#9fcae1;" x="0.0" xlink:href="#C1_5f_a5f5985b4d" y="396.0"/>
    </g>
    <g clip-path="url(#p504eebcf5d)">
     <use style="fill:#9dcae1;" x="0.0" xlink:href="#C1_60_02a953bd07" y="396.0"/>
    </g>
    <g clip-path="url(#p504eebcf5d)">
     <use style="fill:#9cc9e1;" x="0.0" xlink:href="#C1_61_78b75c5e7d" y="396.0"/>
    </g>
    <g clip-path="url(#p504eebcf5d)">
     <use style="fill:#9ac8e0;" x="0.0" xlink:href="#C1_62_514a0f19c6" y="396.0"/>
    </g>
    <g clip-path="url(#p504eebcf5d)">
     <use style="fill:#99c7e0;" x="0.0" xlink:href="#C1_63_49203c041b" y="396.0"/>
    </g>
    <g clip-path="url(#p504eebcf5d)">
     <use style="fill:#97c6df;" x="0.0" xlink:href="#C1_64_57d792266e" y="396.0"/>
    </g>
    <g clip-path="url(#p504eebcf5d)">
     <use style="fill:#95c5df;" x="0.0" xlink:href="#C1_65_f0aac927f3" y="396.0"/>
    </g>
    <g clip-path="url(#p504eebcf5d)">
     <use style="fill:#94c4df;" x="0.0" xlink:href="#C1_66_0d936da8e4" y="396.0"/>
    </g>
    <g clip-path="url(#p504eebcf5d)">
     <use style="fill:#92c4de;" x="0.0" xlink:href="#C1_67_bafcfbbf7a" y="396.0"/>
    </g>
    <g clip-path="url(#p504eebcf5d)">
     <use style="fill:#91c3de;" x="0.0" xlink:href="#C1_68_d6c9bab919" y="396.0"/>
    </g>
    <g clip-path="url(#p504eebcf5d)">
     <use style="fill:#8fc2de;" x="0.0" xlink:href="#C1_69_f601cf68fa" y="396.0"/>
    </g>
    <g clip-path="url(#p504eebcf5d)">
     <use style="fill:#8dc1dd;" x="0.0" xlink:href="#C1_6a_ae067f9ec1" y="396.0"/>
    </g>
    <g clip-path="url(#p504eebcf5d)">
     <use style="fill:#8cc0dd;" x="0.0" xlink:href="#C1_6b_a655717a2d" y="396.0"/>
    </g>
    <g clip-path="url(#p504eebcf5d)">
     <use style="fill:#8abfdd;" x="0.0" xlink:href="#C1_6c_62b819378e" y="396.0"/>
    </g>
    <g clip-path="url(#p504eebcf5d)">
     <use style="fill:#89bedc;" x="0.0" xlink:href="#C1_6d_7dd0a0767f" y="396.0"/>
    </g>
    <g clip-path="url(#p504eebcf5d)">
     <use style="fill:#87bddc;" x="0.0" xlink:href="#C1_6e_12490395dc" y="396.0"/>
    </g>
    <g clip-path="url(#p504eebcf5d)">
     <use style="fill:#85bcdc;" x="0.0" xlink:href="#C1_6f_4a9b192995" y="396.0"/>
    </g>
    <g clip-path="url(#p504eebcf5d)">
     <use style="fill:#84bcdb;" x="0.0" xlink:href="#C1_70_070d07abc6" y="396.0"/>
    </g>
    <g clip-path="url(#p504eebcf5d)">
     <use style="fill:#82bbdb;" x="0.0" xlink:href="#C1_71_1d26a2464c" y="396.0"/>
    </g>
    <g clip-path="url(#p504eebcf5d)">
     <use style="fill:#81badb;" x="0.0" xlink:href="#C1_72_7f4c4334bd" y="396.0"/>
    </g>
    <g clip-path="url(#p504eebcf5d)">
     <use style="fill:#7fb9da;" x="0.0" xlink:href="#C1_73_394feda2b2" y="396.0"/>
    </g>
    <g clip-path="url(#p504eebcf5d)">
     <use style="fill:#7db8da;" x="0.0" xlink:href="#C1_74_32d188018e" y="396.0"/>
    </g>
    <g clip-path="url(#p504eebcf5d)">
     <use style="fill:#7cb7da;" x="0.0" xlink:href="#C1_75_809c69192b" y="396.0"/>
    </g>
    <g clip-path="url(#p504eebcf5d)">
     <use style="fill:#7ab6d9;" x="0.0" xlink:href="#C1_76_5b264cf5f9" y="396.0"/>
    </g>
    <g clip-path="url(#p504eebcf5d)">
     <use style="fill:#79b5d9;" x="0.0" xlink:href="#C1_77_81e57d9ebf" y="396.0"/>
    </g>
    <g clip-path="url(#p504eebcf5d)">
     <use style="fill:#77b5d9;" x="0.0" xlink:href="#C1_78_7b7073cb16" y="396.0"/>
    </g>
    <g clip-path="url(#p504eebcf5d)">
     <use style="fill:#75b4d8;" x="0.0" xlink:href="#C1_79_9e4f2908f0" y="396.0"/>
    </g>
    <g clip-path="url(#p504eebcf5d)">
     <use style="fill:#74b3d8;" x="0.0" xlink:href="#C1_7a_dc1c2d6066" y="396.0"/>
    </g>
    <g clip-path="url(#p504eebcf5d)">
     <use style="fill:#72b2d8;" x="0.0" xlink:href="#C1_7b_b09b7b18d2" y="396.0"/>
    </g>
    <g clip-path="url(#p504eebcf5d)">
     <use style="fill:#71b1d7;" x="0.0" xlink:href="#C1_7c_8423a5d156" y="396.0"/>
    </g>
    <g clip-path="url(#p504eebcf5d)">
     <use style="fill:#6fb0d7;" x="0.0" xlink:href="#C1_7d_03582952c0" y="396.0"/>
    </g>
    <g clip-path="url(#p504eebcf5d)">
     <use style="fill:#6dafd7;" x="0.0" xlink:href="#C1_7e_d8f8ee9c01" y="396.0"/>
    </g>
    <g clip-path="url(#p504eebcf5d)">
     <use style="fill:#6caed6;" x="0.0" xlink:href="#C1_7f_cd42b6f5d6" y="396.0"/>
    </g>
    <g clip-path="url(#p504eebcf5d)">
     <use style="fill:#6aaed6;" x="0.0" xlink:href="#C1_80_f2cd9327c5" y="396.0"/>
    </g>
    <g clip-path="url(#p504eebcf5d)">
     <use style="fill:#69add5;" x="0.0" xlink:href="#C1_81_e2a9194742" y="396.0"/>
    </g>
    <g clip-path="url(#p504eebcf5d)">
     <use style="fill:#68acd5;" x="0.0" xlink:href="#C1_82_44adbef1e6" y="396.0"/>
    </g>
    <g clip-path="url(#p504eebcf5d)">
     <use style="fill:#66abd4;" x="0.0" xlink:href="#C1_83_078e9bec5c" y="396.0"/>
    </g>
    <g clip-path="url(#p504eebcf5d)">
     <use style="fill:#65aad4;" x="0.0" xlink:href="#C1_84_3454f8ce74" y="396.0"/>
    </g>
    <g clip-path="url(#p504eebcf5d)">
     <use style="fill:#64a9d3;" x="0.0" xlink:href="#C1_85_fcdfcd407e" y="396.0"/>
    </g>
    <g clip-path="url(#p504eebcf5d)">
     <use style="fill:#63a8d3;" x="0.0" xlink:href="#C1_86_1a9ae4aca6" y="396.0"/>
    </g>
    <g clip-path="url(#p504eebcf5d)">
     <use style="fill:#61a7d2;" x="0.0" xlink:href="#C1_87_5f7b5d36be" y="396.0"/>
    </g>
    <g clip-path="url(#p504eebcf5d)">
     <use style="fill:#60a7d2;" x="0.0" xlink:href="#C1_88_2c26bcc389" y="396.0"/>
    </g>
    <g clip-path="url(#p504eebcf5d)">
     <use style="fill:#5fa6d1;" x="0.0" xlink:href="#C1_89_c9c3a4d681" y="396.0"/>
    </g>
    <g clip-path="url(#p504eebcf5d)">
     <use style="fill:#5da5d1;" x="0.0" xlink:href="#C1_8a_4d632f47a5" y="396.0"/>
    </g>
    <g clip-path="url(#p504eebcf5d)">
     <use style="fill:#5ca4d0;" x="0.0" xlink:href="#C1_8b_94913ae37c" y="396.0"/>
    </g>
    <g clip-path="url(#p504eebcf5d)">
     <use style="fill:#5ba3d0;" x="0.0" xlink:href="#C1_8c_371e03acbc" y="396.0"/>
    </g>
    <g clip-path="url(#p504eebcf5d)">
     <use style="fill:#5aa2cf;" x="0.0" xlink:href="#C1_8d_426a36bd8d" y="396.0"/>
    </g>
    <g clip-path="url(#p504eebcf5d)">
     <use style="fill:#58a1cf;" x="0.0" xlink:href="#C1_8e_d395c42303" y="396.0"/>
    </g>
    <g clip-path="url(#p504eebcf5d)">
     <use style="fill:#57a0ce;" x="0.0" xlink:href="#C1_8f_7f6f92387b" y="396.0"/>
    </g>
    <g clip-path="url(#p504eebcf5d)">
     <use style="fill:#56a0ce;" x="0.0" xlink:href="#C1_90_82b72b0006" y="396.0"/>
    </g>
    <g clip-path="url(#p504eebcf5d)">
     <use style="fill:#549fcd;" x="0.0" xlink:href="#C1_91_2ab1f7e0a8" y="396.0"/>
    </g>
    <g clip-path="url(#p504eebcf5d)">
     <use style="fill:#539ecd;" x="0.0" xlink:href="#C1_92_969918fc8b" y="396.0"/>
    </g>
    <g clip-path="url(#p504eebcf5d)">
     <use style="fill:#529dcc;" x="0.0" xlink:href="#C1_93_d17ce11bbe" y="396.0"/>
    </g>
    <g clip-path="url(#p504eebcf5d)">
     <use style="fill:#519ccc;" x="0.0" xlink:href="#C1_94_0fe239e034" y="396.0"/>
    </g>
    <g clip-path="url(#p504eebcf5d)">
     <use style="fill:#4f9bcb;" x="0.0" xlink:href="#C1_95_e0d80114ce" y="396.0"/>
    </g>
    <g clip-path="url(#p504eebcf5d)">
     <use style="fill:#4e9acb;" x="0.0" xlink:href="#C1_96_1080349809" y="396.0"/>
    </g>
    <g clip-path="url(#p504eebcf5d)">
     <use style="fill:#4d99ca;" x="0.0" xlink:href="#C1_97_8f47d64e1c" y="396.0"/>
    </g>
    <g clip-path="url(#p504eebcf5d)">
     <use style="fill:#4b98ca;" x="0.0" xlink:href="#C1_98_62cea9b2bd" y="396.0"/>
    </g>
    <g clip-path="url(#p504eebcf5d)">
     <use style="fill:#4a98c9;" x="0.0" xlink:href="#C1_99_63e442b3ac" y="396.0"/>
    </g>
    <g clip-path="url(#p504eebcf5d)">
     <use style="fill:#4997c9;" x="0.0" xlink:href="#C1_9a_5898deafdb" y="396.0"/>
    </g>
    <g clip-path="url(#p504eebcf5d)">
     <use style="fill:#4896c8;" x="0.0" xlink:href="#C1_9b_d3b395601f" y="396.0"/>
    </g>
    <g clip-path="url(#p504eebcf5d)">
     <use style="fill:#4695c8;" x="0.0" xlink:href="#C1_9c_034e7d7f5d" y="396.0"/>
    </g>
    <g clip-path="url(#p504eebcf5d)">
     <use style="fill:#4594c7;" x="0.0" xlink:href="#C1_9d_026098040e" y="396.0"/>
    </g>
    <g clip-path="url(#p504eebcf5d)">
     <use style="fill:#4493c7;" x="0.0" xlink:href="#C1_9e_dd452009c8" y="396.0"/>
    </g>
    <g clip-path="url(#p504eebcf5d)">
     <use style="fill:#4292c6;" x="0.0" xlink:href="#C1_9f_a5782c5410" y="396.0"/>
    </g>
    <g clip-path="url(#p504eebcf5d)">
     <use style="fill:#4191c6;" x="0.0" xlink:href="#C1_a0_bd6fed1b2c" y="396.0"/>
    </g>
    <g clip-path="url(#p504eebcf5d)">
     <use style="fill:#4090c5;" x="0.0" xlink:href="#C1_a1_119e433405" y="396.0"/>
    </g>
    <g clip-path="url(#p504eebcf5d)">
     <use style="fill:#3f8fc5;" x="0.0" xlink:href="#C1_a2_9b4d0f34eb" y="396.0"/>
    </g>
    <g clip-path="url(#p504eebcf5d)">
     <use style="fill:#3e8ec4;" x="0.0" xlink:href="#C1_a3_caf24abb4e" y="396.0"/>
    </g>
    <g clip-path="url(#p504eebcf5d)">
     <use style="fill:#3d8dc4;" x="0.0" xlink:href="#C1_a4_0e7dbad4e8" y="396.0"/>
    </g>
    <g clip-path="url(#p504eebcf5d)">
     <use style="fill:#3c8cc3;" x="0.0" xlink:href="#C1_a5_b5b5de556b" y="396.0"/>
    </g>
    <g clip-path="url(#p504eebcf5d)">
     <use style="fill:#3b8bc2;" x="0.0" xlink:href="#C1_a6_c022db3d95" y="396.0"/>
    </g>
    <g clip-path="url(#p504eebcf5d)">
     <use style="fill:#3a8ac2;" x="0.0" xlink:href="#C1_a7_5ee38f1401" y="396.0"/>
    </g>
    <g clip-path="url(#p504eebcf5d)">
     <use style="fill:#3989c1;" x="0.0" xlink:href="#C1_a8_f4b006a443" y="396.0"/>
    </g>
    <g clip-path="url(#p504eebcf5d)">
     <use style="fill:#3888c1;" x="0.0" xlink:href="#C1_a9_8374132d86" y="396.0"/>
    </g>
    <g clip-path="url(#p504eebcf5d)">
     <use style="fill:#3787c0;" x="0.0" xlink:href="#C1_aa_8ae123b82f" y="396.0"/>
    </g>
    <g clip-path="url(#p504eebcf5d)">
     <use style="fill:#3686c0;" x="0.0" xlink:href="#C1_ab_61060229dc" y="396.0"/>
    </g>
    <g clip-path="url(#p504eebcf5d)">
     <use style="fill:#3585bf;" x="0.0" xlink:href="#C1_ac_3f6d784d2f" y="396.0"/>
    </g>
    <g clip-path="url(#p504eebcf5d)">
     <use style="fill:#3484bf;" x="0.0" xlink:href="#C1_ad_cd6efb7234" y="396.0"/>
    </g>
    <g clip-path="url(#p504eebcf5d)">
     <use style="fill:#3383be;" x="0.0" xlink:href="#C1_ae_d55a3b5b48" y="396.0"/>
    </g>
    <g clip-path="url(#p504eebcf5d)">
     <use style="fill:#3282be;" x="0.0" xlink:href="#C1_af_981b163bcb" y="396.0"/>
    </g>
    <g clip-path="url(#p504eebcf5d)">
     <use style="fill:#3181bd;" x="0.0" xlink:href="#C1_b0_fa14fe5f4f" y="396.0"/>
    </g>
    <g clip-path="url(#p504eebcf5d)">
     <use style="fill:#3080bd;" x="0.0" xlink:href="#C1_b1_f2dcfa913b" y="396.0"/>
    </g>
    <g clip-path="url(#p504eebcf5d)">
     <use style="fill:#2f7fbc;" x="0.0" xlink:href="#C1_b2_31564d5aed" y="396.0"/>
    </g>
    <g clip-path="url(#p504eebcf5d)">
     <use style="fill:#2e7ebc;" x="0.0" xlink:href="#C1_b3_96627001f0" y="396.0"/>
    </g>
    <g clip-path="url(#p504eebcf5d)">
     <use style="fill:#2d7dbb;" x="0.0" xlink:href="#C1_b4_1e9b253639" y="396.0"/>
    </g>
    <g clip-path="url(#p504eebcf5d)">
     <use style="fill:#2c7cba;" x="0.0" xlink:href="#C1_b5_356b4f447b" y="396.0"/>
    </g>
    <g clip-path="url(#p504eebcf5d)">
     <use style="fill:#2b7bba;" x="0.0" xlink:href="#C1_b6_0606ac5f9c" y="396.0"/>
    </g>
    <g clip-path="url(#p504eebcf5d)">
     <use style="fill:#2a7ab9;" x="0.0" xlink:href="#C1_b7_d6462675a1" y="396.0"/>
    </g>
    <g clip-path="url(#p504eebcf5d)">
     <use style="fill:#2979b9;" x="0.0" xlink:href="#C1_b8_f9ef6d5fdd" y="396.0"/>
    </g>
    <g clip-path="url(#p504eebcf5d)">
     <use style="fill:#2777b8;" x="0.0" xlink:href="#C1_b9_6edf5ac935" y="396.0"/>
    </g>
    <g clip-path="url(#p504eebcf5d)">
     <use style="fill:#2676b8;" x="0.0" xlink:href="#C1_ba_5770decbb9" y="396.0"/>
    </g>
    <g clip-path="url(#p504eebcf5d)">
     <use style="fill:#2575b7;" x="0.0" xlink:href="#C1_bb_d50634a487" y="396.0"/>
    </g>
    <g clip-path="url(#p504eebcf5d)">
     <use style="fill:#2474b7;" x="0.0" xlink:href="#C1_bc_4a6d6f5595" y="396.0"/>
    </g>
    <g clip-path="url(#p504eebcf5d)">
     <use style="fill:#2373b6;" x="0.0" xlink:href="#C1_bd_07ca3e6523" y="396.0"/>
    </g>
    <g clip-path="url(#p504eebcf5d)">
     <use style="fill:#2272b6;" x="0.0" xlink:href="#C1_be_82908cfe76" y="396.0"/>
    </g>
    <g clip-path="url(#p504eebcf5d)">
     <use style="fill:#2171b5;" x="0.0" xlink:href="#C1_bf_6fe09f03a0" y="396.0"/>
    </g>
    <g clip-path="url(#p504eebcf5d)">
     <use style="fill:#2070b4;" x="0.0" xlink:href="#C1_c0_ba335b7d87" y="396.0"/>
    </g>
    <g clip-path="url(#p504eebcf5d)">
     <use style="fill:#206fb4;" x="0.0" xlink:href="#C1_c1_9ed3d38074" y="396.0"/>
    </g>
    <g clip-path="url(#p504eebcf5d)">
     <use style="fill:#1f6eb3;" x="0.0" xlink:href="#C1_c2_28f38e46e7" y="396.0"/>
    </g>
    <g clip-path="url(#p504eebcf5d)">
     <use style="fill:#1e6db2;" x="0.0" xlink:href="#C1_c3_4a7319678f" y="396.0"/>
    </g>
    <g clip-path="url(#p504eebcf5d)">
     <use style="fill:#1d6cb1;" x="0.0" xlink:href="#C1_c4_519619f236" y="396.0"/>
    </g>
    <g clip-path="url(#p504eebcf5d)">
     <use style="fill:#1c6bb0;" x="0.0" xlink:href="#C1_c5_ab5b3a68fa" y="396.0"/>
    </g>
    <g clip-path="url(#p504eebcf5d)">
     <use style="fill:#1c6ab0;" x="0.0" xlink:href="#C1_c6_fd57d30c01" y="396.0"/>
    </g>
    <g clip-path="url(#p504eebcf5d)">
     <use style="fill:#1b69af;" x="0.0" xlink:href="#C1_c7_8f1f3b8a33" y="396.0"/>
    </g>
    <g clip-path="url(#p504eebcf5d)">
     <use style="fill:#1a68ae;" x="0.0" xlink:href="#C1_c8_290e30682d" y="396.0"/>
    </g>
    <g clip-path="url(#p504eebcf5d)">
     <use style="fill:#1967ad;" x="0.0" xlink:href="#C1_c9_008dcc47ac" y="396.0"/>
    </g>
    <g clip-path="url(#p504eebcf5d)">
     <use style="fill:#1966ad;" x="0.0" xlink:href="#C1_ca_d234f69dbe" y="396.0"/>
    </g>
    <g clip-path="url(#p504eebcf5d)">
     <use style="fill:#1865ac;" x="0.0" xlink:href="#C1_cb_d2ed000cd4" y="396.0"/>
    </g>
    <g clip-path="url(#p504eebcf5d)">
     <use style="fill:#1764ab;" x="0.0" xlink:href="#C1_cc_e84f719087" y="396.0"/>
    </g>
    <g clip-path="url(#p504eebcf5d)">
     <use style="fill:#1663aa;" x="0.0" xlink:href="#C1_cd_a8e5115656" y="396.0"/>
    </g>
    <g clip-path="url(#p504eebcf5d)">
     <use style="fill:#1562a9;" x="0.0" xlink:href="#C1_ce_d4a32d9bba" y="396.0"/>
    </g>
    <g clip-path="url(#p504eebcf5d)">
     <use style="fill:#1561a9;" x="0.0" xlink:href="#C1_cf_ea48096987" y="396.0"/>
    </g>
    <g clip-path="url(#p504eebcf5d)">
     <use style="fill:#1460a8;" x="0.0" xlink:href="#C1_d0_c72ed7a799" y="396.0"/>
    </g>
    <g clip-path="url(#p504eebcf5d)">
     <use style="fill:#135fa7;" x="0.0" xlink:href="#C1_d1_048213de92" y="396.0"/>
    </g>
    <g clip-path="url(#p504eebcf5d)">
     <use style="fill:#125ea6;" x="0.0" xlink:href="#C1_d2_da247c97f6" y="396.0"/>
    </g>
    <g clip-path="url(#p504eebcf5d)">
     <use style="fill:#125da6;" x="0.0" xlink:href="#C1_d3_224f83ba56" y="396.0"/>
    </g>
    <g clip-path="url(#p504eebcf5d)">
     <use style="fill:#115ca5;" x="0.0" xlink:href="#C1_d4_af01840c49" y="396.0"/>
    </g>
    <g clip-path="url(#p504eebcf5d)">
     <use style="fill:#105ba4;" x="0.0" xlink:href="#C1_d5_78af603c2d" y="396.0"/>
    </g>
    <g clip-path="url(#p504eebcf5d)">
     <use style="fill:#0f5aa3;" x="0.0" xlink:href="#C1_d6_8cb4f2759f" y="396.0"/>
    </g>
    <g clip-path="url(#p504eebcf5d)">
     <use style="fill:#0e59a2;" x="0.0" xlink:href="#C1_d7_a0fb79453b" y="396.0"/>
    </g>
    <g clip-path="url(#p504eebcf5d)">
     <use style="fill:#0e58a2;" x="0.0" xlink:href="#C1_d8_65c4d43946" y="396.0"/>
    </g>
    <g clip-path="url(#p504eebcf5d)">
     <use style="fill:#0d57a1;" x="0.0" xlink:href="#C1_d9_18966d2d94" y="396.0"/>
    </g>
    <g clip-path="url(#p504eebcf5d)">
     <use style="fill:#0c56a0;" x="0.0" xlink:href="#C1_da_298dc1ae83" y="396.0"/>
    </g>
    <g clip-path="url(#p504eebcf5d)">
     <use style="fill:#0b559f;" x="0.0" xlink:href="#C1_db_5d3d97f73f" y="396.0"/>
    </g>
    <g clip-path="url(#p504eebcf5d)">
     <use style="fill:#0a549e;" x="0.0" xlink:href="#C1_dc_2e50ee0ba4" y="396.0"/>
    </g>
    <g clip-path="url(#p504eebcf5d)">
     <use style="fill:#0a539e;" x="0.0" xlink:href="#C1_dd_38e4f114d2" y="396.0"/>
    </g>
    <g clip-path="url(#p504eebcf5d)">
     <use style="fill:#09529d;" x="0.0" xlink:href="#C1_de_eb811a6645" y="396.0"/>
    </g>
    <g clip-path="url(#p504eebcf5d)">
     <use style="fill:#08519c;" x="0.0" xlink:href="#C1_df_867ace6d6f" y="396.0"/>
    </g>
    <g clip-path="url(#p504eebcf5d)">
     <use style="fill:#08509b;" x="0.0" xlink:href="#C1_e0_5608730755" y="396.0"/>
    </g>
    <g clip-path="url(#p504eebcf5d)">
     <use style="fill:#084f99;" x="0.0" xlink:href="#C1_e1_4de7f56009" y="396.0"/>
    </g>
    <g clip-path="url(#p504eebcf5d)">
     <use style="fill:#084e98;" x="0.0" xlink:href="#C1_e2_35614a4250" y="396.0"/>
    </g>
    <g clip-path="url(#p504eebcf5d)">
     <use style="fill:#084d96;" x="0.0" xlink:href="#C1_e3_3c62ce08a0" y="396.0"/>
    </g>
    <g clip-path="url(#p504eebcf5d)">
     <use style="fill:#084c95;" x="0.0" xlink:href="#C1_e4_2a5b3c788f" y="396.0"/>
    </g>
    <g clip-path="url(#p504eebcf5d)">
     <use style="fill:#084b93;" x="0.0" xlink:href="#C1_e5_1be2cd0311" y="396.0"/>
    </g>
    <g clip-path="url(#p504eebcf5d)">
     <use style="fill:#084a91;" x="0.0" xlink:href="#C1_e6_c019c6a4cd" y="396.0"/>
    </g>
    <g clip-path="url(#p504eebcf5d)">
     <use style="fill:#084990;" x="0.0" xlink:href="#C1_e7_78c3debe45" y="396.0"/>
    </g>
    <g clip-path="url(#p504eebcf5d)">
     <use style="fill:#08488e;" x="0.0" xlink:href="#C1_e8_b6cfc9d54a" y="396.0"/>
    </g>
    <g clip-path="url(#p504eebcf5d)">
     <use style="fill:#08478d;" x="0.0" xlink:href="#C1_e9_71141236cd" y="396.0"/>
    </g>
    <g clip-path="url(#p504eebcf5d)">
     <use style="fill:#08468b;" x="0.0" xlink:href="#C1_ea_8d8039b1d4" y="396.0"/>
    </g>
    <g clip-path="url(#p504eebcf5d)">
     <use style="fill:#08458a;" x="0.0" xlink:href="#C1_eb_8f47287918" y="396.0"/>
    </g>
    <g clip-path="url(#p504eebcf5d)">
     <use style="fill:#084488;" x="0.0" xlink:href="#C1_ec_35f4960c28" y="396.0"/>
    </g>
    <g clip-path="url(#p504eebcf5d)">
     <use style="fill:#084387;" x="0.0" xlink:href="#C1_ed_ec1cca0f69" y="396.0"/>
    </g>
    <g clip-path="url(#p504eebcf5d)">
     <use style="fill:#084285;" x="0.0" xlink:href="#C1_ee_a4da005b4f" y="396.0"/>
    </g>
    <g clip-path="url(#p504eebcf5d)">
     <use style="fill:#084184;" x="0.0" xlink:href="#C1_ef_d42ae88b12" y="396.0"/>
    </g>
    <g clip-path="url(#p504eebcf5d)">
     <use style="fill:#084082;" x="0.0" xlink:href="#C1_f0_d22aa85745" y="396.0"/>
    </g>
    <g clip-path="url(#p504eebcf5d)">
     <use style="fill:#083e81;" x="0.0" xlink:href="#C1_f1_9b0e736891" y="396.0"/>
    </g>
    <g clip-path="url(#p504eebcf5d)">
     <use style="fill:#083d7f;" x="0.0" xlink:href="#C1_f2_114fb30905" y="396.0"/>
    </g>
    <g clip-path="url(#p504eebcf5d)">
     <use style="fill:#083c7d;" x="0.0" xlink:href="#C1_f3_7cc025eb65" y="396.0"/>
    </g>
    <g clip-path="url(#p504eebcf5d)">
     <use style="fill:#083b7c;" x="0.0" xlink:href="#C1_f4_47d667ad14" y="396.0"/>
    </g>
    <g clip-path="url(#p504eebcf5d)">
     <use style="fill:#083a7a;" x="0.0" xlink:href="#C1_f5_ae994a946c" y="396.0"/>
    </g>
    <g clip-path="url(#p504eebcf5d)">
     <use style="fill:#083979;" x="0.0" xlink:href="#C1_f6_c478bef10a" y="396.0"/>
    </g>
    <g clip-path="url(#p504eebcf5d)">
     <use style="fill:#083877;" x="0.0" xlink:href="#C1_f7_d5b8849248" y="396.0"/>
    </g>
    <g clip-path="url(#p504eebcf5d)">
     <use style="fill:#083776;" x="0.0" xlink:href="#C1_f8_11c0df7702" y="396.0"/>
    </g>
    <g clip-path="url(#p504eebcf5d)">
     <use style="fill:#083674;" x="0.0" xlink:href="#C1_f9_370e485c35" y="396.0"/>
    </g>
    <g clip-path="url(#p504eebcf5d)">
     <use style="fill:#083573;" x="0.0" xlink:href="#C1_fa_77a3533a61" y="396.0"/>
    </g>
    <g clip-path="url(#p504eebcf5d)">
     <use style="fill:#083471;" x="0.0" xlink:href="#C1_fb_fdea84c130" y="396.0"/>
    </g>
    <g clip-path="url(#p504eebcf5d)">
     <use style="fill:#083370;" x="0.0" xlink:href="#C1_fc_31ebc99099" y="396.0"/>
    </g>
    <g clip-path="url(#p504eebcf5d)">
     <use style="fill:#08326e;" x="0.0" xlink:href="#C1_fd_7ae1d4a642" y="396.0"/>
    </g>
    <g clip-path="url(#p504eebcf5d)">
     <use style="fill:#08316d;" x="0.0" xlink:href="#C1_fe_8d30c8d84c" y="396.0"/>
    </g>
    <g clip-path="url(#p504eebcf5d)">
     <use style="fill:#08306b;" x="0.0" xlink:href="#C1_ff_b8ba72fd8c" y="396.0"/>
    </g>
   </g>
   <g id="patch_4">
    <path d="
M451.44 356.4
L451.44 355.162
L451.44 40.8375
L451.44 39.6
L467.28 39.6
L467.28 40.8375
L467.28 355.162
L467.28 356.4
z
" style="fill:none;"/>
   </g>
  </g>
 </g>
 <defs>
  <clipPath id="p026d82dfd9">
   <rect height="316.8" width="316.8" x="112.32" y="39.6"/>
  </clipPath>
  <clipPath id="p504eebcf5d">
   <rect height="316.8" width="15.84" x="451.44" y="39.6"/>
  </clipPath>
 </defs>
</svg>
