<?xml version="1.0" encoding="utf-8" standalone="no"?>
<!DOCTYPE svg PUBLIC "-//W3C//DTD SVG 1.1//EN"
  "http://www.w3.org/Graphics/SVG/1.1/DTD/svg11.dtd">
<!-- Created with matplotlib (http://matplotlib.org/) -->
<svg height="576pt" version="1.1" viewBox="0 0 576 576" width="576pt" xmlns="http://www.w3.org/2000/svg" xmlns:xlink="http://www.w3.org/1999/xlink">
 <defs>
  <style type="text/css">
*{stroke-linecap:butt;stroke-linejoin:round;}
  </style>
 </defs>
 <g id="figure_1">
  <g id="patch_1">
   <path d="
M0 576
L576 576
L576 0
L0 0
z
" style="fill:#ffffff;"/>
  </g>
  <g id="axes_1">
   <g id="patch_2">
    <path d="
M72 518.4
L518.4 518.4
L518.4 57.6
L72 57.6
z
" style="fill:#eaeaf2;"/>
   </g>
   <g id="matplotlib.axis_1">
    <g id="xtick_1">
     <g id="line2d_1">
      <path clip-path="url(#p4f6257ca6d)" d="
M72 518.4
L72 57.6" style="fill:none;stroke:#ffffff;stroke-linecap:round;"/>
     </g>
     <g id="line2d_2">
      <defs>
       <path d="
M0 0
L0 0" id="m219da94a98" style="stroke:#262626;"/>
      </defs>
      <g>
       <use style="fill:#262626;stroke:#262626;" x="72.0" xlink:href="#m219da94a98" y="518.4"/>
      </g>
     </g>
     <g id="line2d_3">
      <g>
       <use style="fill:#262626;stroke:#262626;" x="72.0" xlink:href="#m219da94a98" y="57.6"/>
      </g>
     </g>
     <g id="text_1">
      <!-- 0 -->
      <defs>
       <path d="
M51.7031 34.4219
Q51.7031 24.5156 49.8281 17.75
Q47.9531 10.9844 44.7031 6.8125
Q41.4531 2.64062 37.0625 0.828125
Q32.6719 -0.984375 27.6875 -0.984375
Q22.6562 -0.984375 18.3125 0.828125
Q13.9688 2.64062 10.7656 6.78125
Q7.5625 10.9375 5.73438 17.7031
Q3.90625 24.4688 3.90625 34.4219
Q3.90625 44.8281 5.73438 51.6406
Q7.5625 58.4531 10.7812 62.5
Q14.0156 66.5469 18.4062 68.1875
Q22.7969 69.8281 27.9844 69.8281
Q32.9062 69.8281 37.2188 68.1875
Q41.5469 66.5469 44.7656 62.5
Q48 58.4531 49.8438 51.6406
Q51.7031 44.8281 51.7031 34.4219
M42.7812 34.4219
Q42.7812 42.625 41.7969 48.0625
Q40.8281 53.5156 38.9219 56.7656
Q37.0156 60.0156 34.25 61.3594
Q31.5 62.7031 27.9844 62.7031
Q24.2656 62.7031 21.4375 61.3281
Q18.6094 59.9688 16.6719 56.7188
Q14.75 53.4688 13.7656 48.0156
Q12.7969 42.5781 12.7969 34.4219
Q12.7969 26.5156 13.7969 21.0938
Q14.7969 15.6719 16.7188 12.375
Q18.6562 9.07812 21.4375 7.64062
Q24.2188 6.20312 27.7812 6.20312
Q31.25 6.20312 34.0312 7.64062
Q36.8125 9.07812 38.7344 12.375
Q40.6719 15.6719 41.7188 21.0938
Q42.7812 26.5156 42.7812 34.4219" id="LiberationSans-30"/>
      </defs>
      <g style="fill:#262626;" transform="translate(68.65421875 535.545625)scale(0.14 -0.14)">
       <use xlink:href="#LiberationSans-30"/>
      </g>
     </g>
    </g>
    <g id="xtick_2">
     <g id="line2d_4">
      <path clip-path="url(#p4f6257ca6d)" d="
M161.28 518.4
L161.28 57.6" style="fill:none;stroke:#ffffff;stroke-linecap:round;"/>
     </g>
     <g id="line2d_5">
      <g>
       <use style="fill:#262626;stroke:#262626;" x="161.28" xlink:href="#m219da94a98" y="518.4"/>
      </g>
     </g>
     <g id="line2d_6">
      <g>
       <use style="fill:#262626;stroke:#262626;" x="161.28" xlink:href="#m219da94a98" y="57.6"/>
      </g>
     </g>
     <g id="text_2">
      <!-- 20 -->
      <defs>
       <path d="
M5.03125 0
L5.03125 6.20312
Q7.51562 11.9219 11.1094 16.2812
Q14.7031 20.6562 18.6562 24.1875
Q22.6094 27.7344 26.4844 30.7656
Q30.375 33.7969 33.5 36.8125
Q36.625 39.8438 38.5469 43.1562
Q40.4844 46.4844 40.4844 50.6875
Q40.4844 53.6094 39.5938 55.8281
Q38.7188 58.0625 37.0625 59.5625
Q35.4062 61.0781 33.0781 61.8281
Q30.7656 62.5938 27.9375 62.5938
Q25.2969 62.5938 22.9688 61.8594
Q20.6562 61.1406 18.8438 59.6719
Q17.0469 58.2031 15.8906 56.0312
Q14.75 53.8594 14.4062 50.9844
L5.42188 51.8125
Q5.85938 55.5156 7.46875 58.7812
Q9.07812 62.0625 11.9062 64.5312
Q14.75 67 18.7188 68.4062
Q22.7031 69.8281 27.9375 69.8281
Q33.0625 69.8281 37.0625 68.6094
Q41.0625 67.3906 43.8125 64.9844
Q46.5781 62.5938 48.0469 59.0781
Q49.5156 55.5625 49.5156 50.9844
Q49.5156 47.5156 48.2656 44.3906
Q47.0156 41.2656 44.9375 38.4219
Q42.875 35.5938 40.1406 32.9531
Q37.4062 30.3281 34.4219 27.8125
Q31.4531 25.2969 28.4219 22.8281
Q25.3906 20.3594 22.7188 17.8594
Q20.0625 15.375 17.9688 12.8125
Q15.875 10.25 14.7031 7.46875
L50.5938 7.46875
L50.5938 0
z
" id="LiberationSans-32"/>
      </defs>
      <g style="fill:#262626;" transform="translate(154.1203125 535.545625)scale(0.14 -0.14)">
       <use xlink:href="#LiberationSans-32"/>
       <use x="55.615234375" xlink:href="#LiberationSans-30"/>
      </g>
     </g>
    </g>
    <g id="xtick_3">
     <g id="line2d_7">
      <path clip-path="url(#p4f6257ca6d)" d="
M250.56 518.4
L250.56 57.6" style="fill:none;stroke:#ffffff;stroke-linecap:round;"/>
     </g>
     <g id="line2d_8">
      <g>
       <use style="fill:#262626;stroke:#262626;" x="250.56" xlink:href="#m219da94a98" y="518.4"/>
      </g>
     </g>
     <g id="line2d_9">
      <g>
       <use style="fill:#262626;stroke:#262626;" x="250.56" xlink:href="#m219da94a98" y="57.6"/>
      </g>
     </g>
     <g id="text_3">
      <!-- 40 -->
      <defs>
       <path d="
M43.0156 15.5781
L43.0156 0
L34.7188 0
L34.7188 15.5781
L2.29688 15.5781
L2.29688 22.4062
L33.7969 68.7969
L43.0156 68.7969
L43.0156 22.5156
L52.6875 22.5156
L52.6875 15.5781
z

M34.7188 58.8906
Q34.625 58.6406 34.2344 57.9375
Q33.8438 57.2344 33.3438 56.3438
Q32.8594 55.4688 32.3438 54.5625
Q31.8438 53.6562 31.4531 53.0781
L13.8125 27.0938
Q13.5781 26.7031 13.1094 26.0625
Q12.6406 25.4375 12.1562 24.7812
Q11.6719 24.125 11.1719 23.4844
Q10.6875 22.8594 10.4062 22.5156
L34.7188 22.5156
z
" id="LiberationSans-34"/>
      </defs>
      <g style="fill:#262626;" transform="translate(243.20890625 535.545625)scale(0.14 -0.14)">
       <use xlink:href="#LiberationSans-34"/>
       <use x="55.615234375" xlink:href="#LiberationSans-30"/>
      </g>
     </g>
    </g>
    <g id="xtick_4">
     <g id="line2d_10">
      <path clip-path="url(#p4f6257ca6d)" d="
M339.84 518.4
L339.84 57.6" style="fill:none;stroke:#ffffff;stroke-linecap:round;"/>
     </g>
     <g id="line2d_11">
      <g>
       <use style="fill:#262626;stroke:#262626;" x="339.84" xlink:href="#m219da94a98" y="518.4"/>
      </g>
     </g>
     <g id="line2d_12">
      <g>
       <use style="fill:#262626;stroke:#262626;" x="339.84" xlink:href="#m219da94a98" y="57.6"/>
      </g>
     </g>
     <g id="text_4">
      <!-- 60 -->
      <defs>
       <path d="
M51.2188 22.5156
Q51.2188 17.3281 49.7812 13
Q48.3438 8.6875 45.5312 5.57812
Q42.7188 2.48438 38.5625 0.75
Q34.4219 -0.984375 29 -0.984375
Q23 -0.984375 18.5 1.3125
Q14.0156 3.60938 11.0312 7.92188
Q8.0625 12.25 6.5625 18.5312
Q5.07812 24.8125 5.07812 32.8125
Q5.07812 42 6.76562 48.9219
Q8.45312 55.8594 11.625 60.5
Q14.7969 65.1406 19.3594 67.4844
Q23.9219 69.8281 29.6875 69.8281
Q33.2031 69.8281 36.2812 69.0938
Q39.3594 68.3594 41.875 66.7188
Q44.3906 65.0938 46.2812 62.4062
Q48.1875 59.7188 49.3125 55.8125
L40.9219 54.2969
Q39.5469 58.7344 36.5469 60.7188
Q33.5469 62.7031 29.5938 62.7031
Q25.9844 62.7031 23.0469 60.9844
Q20.125 59.2812 18.0625 55.875
Q16.0156 52.4844 14.9062 47.3594
Q13.8125 42.2344 13.8125 35.4062
Q16.2188 39.8438 20.5625 42.1562
Q24.9062 44.4844 30.5156 44.4844
Q35.2031 44.4844 39.0156 42.9688
Q42.8281 41.4531 45.5312 38.5938
Q48.25 35.75 49.7344 31.6719
Q51.2188 27.5938 51.2188 22.5156
M42.2812 22.125
Q42.2812 25.6875 41.4062 28.5625
Q40.5312 31.4531 38.7656 33.4688
Q37.0156 35.5 34.4219 36.5938
Q31.8438 37.7031 28.4219 37.7031
Q26.0312 37.7031 23.5781 36.9844
Q21.1406 36.2812 19.1562 34.6875
Q17.1875 33.1094 15.9375 30.5156
Q14.7031 27.9375 14.7031 24.2188
Q14.7031 20.4062 15.6719 17.1094
Q16.6562 13.8125 18.4844 11.375
Q20.3125 8.9375 22.8906 7.51562
Q25.4844 6.10938 28.7188 6.10938
Q31.8906 6.10938 34.4062 7.20312
Q36.9219 8.29688 38.6719 10.375
Q40.4375 12.4531 41.3594 15.4219
Q42.2812 18.4062 42.2812 22.125" id="LiberationSans-36"/>
      </defs>
      <g style="fill:#262626;" transform="translate(332.68359375 535.545625)scale(0.14 -0.14)">
       <use xlink:href="#LiberationSans-36"/>
       <use x="55.615234375" xlink:href="#LiberationSans-30"/>
      </g>
     </g>
    </g>
    <g id="xtick_5">
     <g id="line2d_13">
      <path clip-path="url(#p4f6257ca6d)" d="
M429.12 518.4
L429.12 57.6" style="fill:none;stroke:#ffffff;stroke-linecap:round;"/>
     </g>
     <g id="line2d_14">
      <g>
       <use style="fill:#262626;stroke:#262626;" x="429.12" xlink:href="#m219da94a98" y="518.4"/>
      </g>
     </g>
     <g id="line2d_15">
      <g>
       <use style="fill:#262626;stroke:#262626;" x="429.12" xlink:href="#m219da94a98" y="57.6"/>
      </g>
     </g>
     <g id="text_5">
      <!-- 80 -->
      <defs>
       <path d="
M51.2656 19.1875
Q51.2656 14.7969 49.875 11.1094
Q48.4844 7.42188 45.625 4.73438
Q42.7812 2.04688 38.3281 0.53125
Q33.8906 -0.984375 27.8281 -0.984375
Q21.7812 -0.984375 17.3594 0.53125
Q12.9375 2.04688 10.0312 4.70312
Q7.125 7.375 5.73438 11.0625
Q4.34375 14.75 4.34375 19.0938
Q4.34375 22.8594 5.48438 25.7812
Q6.64062 28.7188 8.5625 30.8281
Q10.5 32.9531 12.9688 34.25
Q15.4375 35.5469 18.0625 35.9844
L18.0625 36.1875
Q15.1875 36.8594 12.9062 38.375
Q10.6406 39.8906 9.09375 42.0156
Q7.5625 44.1406 6.75 46.7188
Q5.95312 49.3125 5.95312 52.2031
Q5.95312 55.8125 7.34375 59
Q8.73438 62.2031 11.4688 64.625
Q14.2031 67.0469 18.25 68.4375
Q22.3125 69.8281 27.6406 69.8281
Q33.25 69.8281 37.375 68.4062
Q41.5 67 44.2031 64.5781
Q46.9219 62.1562 48.2344 58.9375
Q49.5625 55.7188 49.5625 52.0938
Q49.5625 49.2656 48.75 46.6719
Q47.9531 44.0938 46.4062 41.9688
Q44.875 39.8438 42.5938 38.3438
Q40.3281 36.8594 37.3594 36.2812
L37.3594 36.0781
Q40.3281 35.5938 42.8594 34.2969
Q45.4062 33.0156 47.2656 30.8906
Q49.125 28.7656 50.1875 25.8281
Q51.2656 22.9062 51.2656 19.1875
M40.4375 51.6094
Q40.4375 54.2031 39.7656 56.3438
Q39.1094 58.5 37.5938 60.0312
Q36.0781 61.5781 33.6406 62.4219
Q31.2031 63.2812 27.6406 63.2812
Q24.1719 63.2812 21.7812 62.4219
Q19.3906 61.5781 17.8438 60.0312
Q16.3125 58.5 15.625 56.3438
Q14.9375 54.2031 14.9375 51.6094
Q14.9375 49.5625 15.4688 47.4062
Q16.0156 45.2656 17.4219 43.5
Q18.8438 41.75 21.3281 40.625
Q23.8281 39.5 27.7344 39.5
Q31.8906 39.5 34.4062 40.625
Q36.9219 41.75 38.25 43.5
Q39.5938 45.2656 40.0156 47.4062
Q40.4375 49.5625 40.4375 51.6094
M42.1406 20.0156
Q42.1406 22.5156 41.4531 24.8281
Q40.7656 27.1562 39.1094 28.9375
Q37.4531 30.7188 34.6406 31.8125
Q31.8438 32.9062 27.6406 32.9062
Q23.7812 32.9062 21.0625 31.8125
Q18.3594 30.7188 16.6719 28.9062
Q14.9844 27.0938 14.2031 24.7188
Q13.4219 22.3594 13.4219 19.8281
Q13.4219 16.6562 14.2031 14.0312
Q14.9844 11.4219 16.6875 9.54688
Q18.4062 7.67188 21.1875 6.64062
Q23.9688 5.60938 27.9375 5.60938
Q31.9375 5.60938 34.6719 6.64062
Q37.4062 7.67188 39.0625 9.54688
Q40.7188 11.4219 41.4219 14.0781
Q42.1406 16.75 42.1406 20.0156" id="LiberationSans-38"/>
      </defs>
      <g style="fill:#262626;" transform="translate(421.9121875 535.545625)scale(0.14 -0.14)">
       <use xlink:href="#LiberationSans-38"/>
       <use x="55.615234375" xlink:href="#LiberationSans-30"/>
      </g>
     </g>
    </g>
    <g id="xtick_6">
     <g id="line2d_16">
      <path clip-path="url(#p4f6257ca6d)" d="
M518.4 518.4
L518.4 57.6" style="fill:none;stroke:#ffffff;stroke-linecap:round;"/>
     </g>
     <g id="line2d_17">
      <g>
       <use style="fill:#262626;stroke:#262626;" x="518.4" xlink:href="#m219da94a98" y="518.4"/>
      </g>
     </g>
     <g id="line2d_18">
      <g>
       <use style="fill:#262626;stroke:#262626;" x="518.4" xlink:href="#m219da94a98" y="57.6"/>
      </g>
     </g>
     <g id="text_6">
      <!-- 100 -->
      <defs>
       <path d="
M7.625 0
L7.625 7.46875
L25.1406 7.46875
L25.1406 60.4062
L9.625 49.3125
L9.625 57.625
L25.875 68.7969
L33.9844 68.7969
L33.9844 7.46875
L50.7344 7.46875
L50.7344 0
z
" id="LiberationSans-31"/>
      </defs>
      <g style="fill:#262626;" transform="translate(507.52921875 535.545625)scale(0.14 -0.14)">
       <use xlink:href="#LiberationSans-31"/>
       <use x="55.615234375" xlink:href="#LiberationSans-30"/>
       <use x="111.23046875" xlink:href="#LiberationSans-30"/>
      </g>
     </g>
    </g>
    <g id="text_7">
     <!-- IGK CDR3 length -->
     <defs>
      <path d="
M13.4844 24.5625
Q13.4844 20.4062 14.3281 16.9062
Q15.1875 13.4219 16.9688 10.9062
Q18.75 8.40625 21.5312 7
Q24.3125 5.60938 28.2188 5.60938
Q33.9375 5.60938 37.375 7.90625
Q40.8281 10.2031 42.0469 13.7188
L49.75 11.5312
Q48.9219 9.32812 47.4375 7.10938
Q45.9531 4.89062 43.4531 3.09375
Q40.9688 1.3125 37.2344 0.15625
Q33.5 -0.984375 28.2188 -0.984375
Q16.5 -0.984375 10.375 6
Q4.25 12.9844 4.25 26.7656
Q4.25 34.1875 6.09375 39.3281
Q7.95312 44.4844 11.1719 47.7031
Q14.4062 50.9219 18.7031 52.3594
Q23 53.8125 27.875 53.8125
Q34.5156 53.8125 38.9844 51.6562
Q43.4531 49.5156 46.1562 45.7188
Q48.875 41.9375 50.0156 36.8125
Q51.1719 31.6875 51.1719 25.7344
L51.1719 24.5625
z

M42.0938 31.2969
Q41.3594 39.6562 37.8438 43.4844
Q34.3281 47.3125 27.7344 47.3125
Q25.5312 47.3125 23.1094 46.6094
Q20.7031 45.9062 18.6562 44.0938
Q16.6094 42.2812 15.1875 39.1719
Q13.7656 36.0781 13.5781 31.2969
z
" id="LiberationSans-65"/>
      <path d="
M26.7656 -20.75
Q22.2188 -20.75 18.7031 -19.8125
Q15.1875 -18.8906 12.6875 -17.1562
Q10.2031 -15.4375 8.64062 -13.0312
Q7.07812 -10.6406 6.39062 -7.71875
L15.2344 -6.45312
Q16.1094 -10.1094 19.1094 -12.0781
Q22.125 -14.0625 27 -14.0625
Q29.9844 -14.0625 32.4219 -13.2344
Q34.8594 -12.4062 36.5625 -10.5625
Q38.2812 -8.73438 39.2031 -5.79688
Q40.1406 -2.875 40.1406 1.3125
L40.1406 9.8125
L40.0469 9.8125
Q39.0625 7.8125 37.625 5.98438
Q36.1875 4.15625 34.1094 2.73438
Q32.0312 1.3125 29.2969 0.453125
Q26.5625 -0.390625 23.0469 -0.390625
Q18.0156 -0.390625 14.4219 1.29688
Q10.8438 2.98438 8.5625 6.34375
Q6.29688 9.71875 5.25 14.7188
Q4.20312 19.7344 4.20312 26.3125
Q4.20312 32.6719 5.25 37.75
Q6.29688 42.8281 8.65625 46.3594
Q11.0312 49.9062 14.8125 51.7812
Q18.6094 53.6562 24.0312 53.6562
Q29.6406 53.6562 33.7656 51.0938
Q37.8906 48.5312 40.1406 43.7969
L40.2344 43.7969
Q40.2344 45.0156 40.2969 46.5312
Q40.375 48.0469 40.4531 49.3906
Q40.5312 50.7344 40.625 51.7031
Q40.7188 52.6875 40.8281 52.8281
L49.1719 52.8281
Q49.125 52.3906 49.0781 51.3438
Q49.0312 50.2969 48.9688 48.8281
Q48.9219 47.3594 48.8906 45.5781
Q48.875 43.7969 48.875 41.8906
L48.875 1.51562
Q48.875 -9.57812 43.4219 -15.1562
Q37.9844 -20.75 26.7656 -20.75
M40.1406 26.4219
Q40.1406 31.9375 38.9375 35.8594
Q37.75 39.7969 35.7969 42.2812
Q33.8438 44.7812 31.3281 45.9531
Q28.8125 47.125 26.1719 47.125
Q22.7969 47.125 20.375 45.9531
Q17.9688 44.7812 16.375 42.2656
Q14.7969 39.75 14.0312 35.8125
Q13.2812 31.8906 13.2812 26.4219
Q13.2812 20.7031 14.0312 16.8125
Q14.7969 12.9375 16.3594 10.5469
Q17.9219 8.15625 20.3125 7.125
Q22.7031 6.10938 26.0312 6.10938
Q28.6562 6.10938 31.1719 7.21875
Q33.6875 8.34375 35.6875 10.7812
Q37.7031 13.2344 38.9219 17.0938
Q40.1406 20.9531 40.1406 26.4219" id="LiberationSans-67"/>
      <path d="
M27.0469 0.390625
Q25.0469 -0.140625 22.9688 -0.453125
Q20.9062 -0.78125 18.1719 -0.78125
Q7.625 -0.78125 7.625 11.1875
L7.625 46.4375
L1.51562 46.4375
L1.51562 52.8281
L7.95312 52.8281
L10.5469 64.6562
L16.4062 64.6562
L16.4062 52.8281
L26.1719 52.8281
L26.1719 46.4375
L16.4062 46.4375
L16.4062 13.0938
Q16.4062 9.28125 17.6406 7.73438
Q18.8906 6.20312 21.9688 6.20312
Q23.25 6.20312 24.4375 6.39062
Q25.6406 6.59375 27.0469 6.89062
z
" id="LiberationSans-74"/>
      <path d="
M15.4844 43.7969
Q16.9375 46.4844 18.6406 48.3594
Q20.3594 50.25 22.4062 51.4688
Q24.4688 52.6875 26.9062 53.25
Q29.3438 53.8125 32.375 53.8125
Q37.4531 53.8125 40.7031 52.4375
Q43.9531 51.0781 45.8281 48.6094
Q47.7031 46.1406 48.4062 42.7188
Q49.125 39.3125 49.125 35.2031
L49.125 0
L40.2812 0
L40.2812 33.5
Q40.2812 36.8594 39.8594 39.3906
Q39.4531 41.9375 38.2812 43.625
Q37.1094 45.3125 34.9531 46.1562
Q32.8125 47.0156 29.3906 47.0156
Q26.2656 47.0156 23.75 45.8906
Q21.2344 44.7812 19.4531 42.7188
Q17.6719 40.6719 16.6875 37.7344
Q15.7188 34.8125 15.7188 31.1562
L15.7188 0
L6.9375 0
L6.9375 72.4688
L15.7188 72.4688
L15.7188 53.6094
Q15.7188 52 15.6719 50.3906
Q15.625 48.7812 15.5469 47.4062
Q15.4844 46.0469 15.4219 45.0938
Q15.375 44.1406 15.3281 43.7969
z
" id="LiberationSans-68"/>
      <path d="
M6.73438 0
L6.73438 72.4688
L15.5312 72.4688
L15.5312 0
z
" id="LiberationSans-6c"/>
      <path d="
M54 0
L26.5156 33.2031
L17.5312 26.375
L17.5312 0
L8.20312 0
L8.20312 68.7969
L17.5312 68.7969
L17.5312 34.3281
L50.6875 68.7969
L61.6719 68.7969
L32.375 38.9219
L65.5781 0
z
" id="LiberationSans-4b"/>
      <path d="
M40.2812 0
L40.2812 33.5
Q40.2812 37.3594 39.7188 39.9375
Q39.1562 42.5312 37.8906 44.1094
Q36.625 45.7031 34.5469 46.3594
Q32.4688 47.0156 29.3906 47.0156
Q26.2656 47.0156 23.75 45.9219
Q21.2344 44.8281 19.4531 42.75
Q17.6719 40.6719 16.6875 37.625
Q15.7188 34.5781 15.7188 30.6094
L15.7188 0
L6.9375 0
L6.9375 41.5469
Q6.9375 43.2188 6.90625 45.0469
Q6.89062 46.875 6.82812 48.5
Q6.78125 50.1406 6.73438 51.3125
Q6.6875 52.4844 6.64062 52.8281
L14.9375 52.8281
Q14.9844 52.5938 15.0312 51.5156
Q15.0938 50.4375 15.1562 49.0469
Q15.2344 47.6562 15.2812 46.2188
Q15.3281 44.7812 15.3281 43.7969
L15.4844 43.7969
Q16.75 46.0938 18.2656 47.9531
Q19.7812 49.8125 21.7812 51.0938
Q23.7812 52.3906 26.3594 53.0938
Q28.9531 53.8125 32.375 53.8125
Q36.7656 53.8125 39.9375 52.7344
Q43.1094 51.6562 45.1562 49.4062
Q47.2188 47.1719 48.1719 43.625
Q49.125 40.0938 49.125 35.2031
L49.125 0
z
" id="LiberationSans-6e"/>
      <path d="
M51.2188 19
Q51.2188 14.2656 49.6719 10.5469
Q48.1406 6.84375 45.1875 4.26562
Q42.2344 1.70312 37.8594 0.359375
Q33.5 -0.984375 27.875 -0.984375
Q21.4844 -0.984375 17.1094 0.609375
Q12.75 2.20312 9.90625 4.8125
Q7.07812 7.42188 5.65625 10.7656
Q4.25 14.1094 3.8125 17.6719
L12.8906 18.5
Q13.2812 15.7656 14.3281 13.5156
Q15.375 11.2812 17.1875 9.67188
Q19 8.0625 21.625 7.17188
Q24.2656 6.29688 27.875 6.29688
Q34.5156 6.29688 38.2969 9.5625
Q42.0938 12.8438 42.0938 19.2812
Q42.0938 23.0938 40.4062 25.4062
Q38.7188 27.7344 36.2031 29.0312
Q33.6875 30.3281 30.7344 30.7656
Q27.7812 31.2031 25.2969 31.2031
L20.3125 31.2031
L20.3125 38.8125
L25.0938 38.8125
Q27.5938 38.8125 30.2656 39.3281
Q32.9531 39.8438 35.1719 41.1875
Q37.4062 42.5312 38.8438 44.8281
Q40.2812 47.125 40.2812 50.6875
Q40.2812 56.2031 37.0312 59.3906
Q33.7969 62.5938 27.3906 62.5938
Q21.5781 62.5938 17.9844 59.6094
Q14.4062 56.6406 13.8125 51.2188
L4.98438 51.9062
Q5.51562 56.4531 7.46875 59.8125
Q9.42188 63.1875 12.4219 65.4062
Q15.4375 67.625 19.2812 68.7188
Q23.1406 69.8281 27.4844 69.8281
Q33.25 69.8281 37.3906 68.375
Q41.5469 66.9375 44.1875 64.4688
Q46.8281 62.0156 48.0625 58.6875
Q49.3125 55.375 49.3125 51.6094
Q49.3125 48.5781 48.4844 45.9375
Q47.6562 43.3125 45.8906 41.2031
Q44.1406 39.1094 41.4219 37.5938
Q38.7188 36.0781 34.9062 35.2969
L34.9062 35.1094
Q39.0625 34.6719 42.1406 33.2188
Q45.2188 31.7812 47.2188 29.625
Q49.2188 27.4844 50.2188 24.75
Q51.2188 22.0156 51.2188 19" id="LiberationSans-33"/>
      <path d="
M9.23438 0
L9.23438 68.7969
L18.5625 68.7969
L18.5625 0
z
" id="LiberationSans-49"/>
      <path id="LiberationSans-20"/>
      <path d="
M5.03125 34.7188
Q5.03125 42.7812 7.20312 49.2656
Q9.375 55.7656 13.6875 60.3281
Q18.0156 64.8906 24.4062 67.3594
Q30.8125 69.8281 39.2656 69.8281
Q45.6094 69.8281 50.3906 68.7031
Q55.1719 67.5781 58.6875 65.4688
Q62.2031 63.375 64.6406 60.375
Q67.0938 57.375 68.7969 53.6094
L59.9062 50.9844
Q58.6406 53.5156 56.8594 55.5938
Q55.0781 57.6719 52.5312 59.125
Q50 60.5938 46.6562 61.3906
Q43.3125 62.2031 39.0156 62.2031
Q32.7656 62.2031 28.1406 60.25
Q23.5312 58.2969 20.5 54.6875
Q17.4844 51.0781 15.9844 46
Q14.5 40.9219 14.5 34.7188
Q14.5 28.5156 16.1094 23.3594
Q17.7188 18.2188 20.8906 14.4844
Q24.0781 10.75 28.7812 8.67188
Q33.5 6.59375 39.7031 6.59375
Q43.75 6.59375 47.1719 7.26562
Q50.5938 7.95312 53.3438 9.04688
Q56.1094 10.1562 58.2031 11.5
Q60.2969 12.8438 61.7188 14.2031
L61.7188 26.6094
L41.1562 26.6094
L41.1562 34.4219
L70.3125 34.4219
L70.3125 10.6875
Q68.0156 8.34375 64.9062 6.21875
Q61.8125 4.10938 57.9531 2.48438
Q54.1094 0.875 49.5156 -0.046875
Q44.9219 -0.984375 39.7031 -0.984375
Q31 -0.984375 24.5 1.67188
Q18.0156 4.34375 13.6875 9.10938
Q9.375 13.875 7.20312 20.4062
Q5.03125 26.9531 5.03125 34.7188" id="LiberationSans-47"/>
      <path d="
M67.4375 35.1094
Q67.4375 26.5156 64.8438 19.9375
Q62.25 13.375 57.75 8.95312
Q53.2656 4.54688 47.1406 2.26562
Q41.0156 0 33.9375 0
L8.20312 0
L8.20312 68.7969
L30.9531 68.7969
Q38.9219 68.7969 45.625 66.8125
Q52.3438 64.8438 57.1719 60.7188
Q62.0156 56.5938 64.7188 50.2344
Q67.4375 43.8906 67.4375 35.1094
M58.0625 35.1094
Q58.0625 42.0938 56.0469 47.0469
Q54.0469 52 50.4375 55.1719
Q46.8281 58.3438 41.7969 59.8281
Q36.7656 61.3281 30.7656 61.3281
L17.5312 61.3281
L17.5312 7.46875
L32.8594 7.46875
Q38.2812 7.46875 42.8906 9.21875
Q47.5156 10.9844 50.875 14.4531
Q54.25 17.9219 56.1562 23.0938
Q58.0625 28.2656 58.0625 35.1094" id="LiberationSans-44"/>
      <path d="
M38.6719 62.2031
Q32.8125 62.2031 28.2969 60.25
Q23.7812 58.2969 20.7188 54.6875
Q17.6719 51.0781 16.1094 46
Q14.5469 40.9219 14.5469 34.7188
Q14.5469 28.5156 16.2344 23.3594
Q17.9219 18.2188 21.0625 14.5
Q24.2188 10.7969 28.7812 8.73438
Q33.3438 6.6875 39.0625 6.6875
Q43.0625 6.6875 46.3594 7.73438
Q49.6562 8.79688 52.3125 10.6875
Q54.9844 12.5938 57.0781 15.2031
Q59.1875 17.8281 60.7969 21
L68.4062 17.1875
Q66.5469 13.3281 63.8125 10
Q61.0781 6.6875 57.3906 4.25
Q53.7188 1.8125 49.0469 0.40625
Q44.3906 -0.984375 38.625 -0.984375
Q30.2812 -0.984375 24 1.67188
Q17.7188 4.34375 13.5 9.10938
Q9.28125 13.875 7.17188 20.4062
Q5.07812 26.9531 5.07812 34.7188
Q5.07812 42.7812 7.29688 49.2656
Q9.51562 55.7656 13.7812 60.3281
Q18.0625 64.8906 24.3125 67.3594
Q30.5625 69.8281 38.5781 69.8281
Q49.5625 69.8281 56.9375 65.5312
Q64.3125 61.2344 67.7812 52.7812
L58.9375 49.8594
Q57.9531 52.2969 56.2969 54.5156
Q54.6406 56.7344 52.1406 58.4375
Q49.6562 60.1562 46.3125 61.1719
Q42.9688 62.2031 38.6719 62.2031" id="LiberationSans-43"/>
      <path d="
M56.8438 0
L38.9688 28.5625
L17.5312 28.5625
L17.5312 0
L8.20312 0
L8.20312 68.7969
L40.5781 68.7969
Q46.4375 68.7969 50.9531 67.4531
Q55.4688 66.1094 58.5469 63.5625
Q61.625 61.0312 63.2344 57.375
Q64.8438 53.7188 64.8438 49.125
Q64.8438 45.8438 63.8906 42.6719
Q62.9375 39.5 60.8906 36.8594
Q58.8438 34.2344 55.6562 32.3281
Q52.4844 30.4219 48.0469 29.6406
L67.5781 0
z

M55.4688 49.0312
Q55.4688 52.1562 54.3906 54.4375
Q53.3281 56.7344 51.2656 58.2656
Q49.2188 59.8125 46.2812 60.5625
Q43.3594 61.3281 39.6562 61.3281
L17.5312 61.3281
L17.5312 35.9375
L40.0469 35.9375
Q44.0469 35.9375 46.9688 36.9375
Q49.9062 37.9375 51.7812 39.6875
Q53.6562 41.4531 54.5625 43.8438
Q55.4688 46.2344 55.4688 49.0312" id="LiberationSans-52"/>
     </defs>
     <g style="fill:#262626;" transform="translate(233.91625 555.045625)scale(0.16 -0.16)">
      <use xlink:href="#LiberationSans-49"/>
      <use x="27.783203125" xlink:href="#LiberationSans-47"/>
      <use x="105.56640625" xlink:href="#LiberationSans-4b"/>
      <use x="172.265625" xlink:href="#LiberationSans-20"/>
      <use x="200.048828125" xlink:href="#LiberationSans-43"/>
      <use x="272.265625" xlink:href="#LiberationSans-44"/>
      <use x="344.482421875" xlink:href="#LiberationSans-52"/>
      <use x="416.69921875" xlink:href="#LiberationSans-33"/>
      <use x="472.314453125" xlink:href="#LiberationSans-20"/>
      <use x="500.09765625" xlink:href="#LiberationSans-6c"/>
      <use x="522.314453125" xlink:href="#LiberationSans-65"/>
      <use x="577.9296875" xlink:href="#LiberationSans-6e"/>
      <use x="633.544921875" xlink:href="#LiberationSans-67"/>
      <use x="689.16015625" xlink:href="#LiberationSans-74"/>
      <use x="716.943359375" xlink:href="#LiberationSans-68"/>
     </g>
    </g>
   </g>
   <g id="matplotlib.axis_2">
    <g id="ytick_1">
     <g id="line2d_19">
      <path clip-path="url(#p4f6257ca6d)" d="
M72 518.4
L518.4 518.4" style="fill:none;stroke:#ffffff;stroke-linecap:round;"/>
     </g>
     <g id="line2d_20">
      <g>
       <use style="fill:#262626;stroke:#262626;" x="72.0" xlink:href="#m219da94a98" y="518.4"/>
      </g>
     </g>
     <g id="line2d_21">
      <g>
       <use style="fill:#262626;stroke:#262626;" x="518.4" xlink:href="#m219da94a98" y="518.4"/>
      </g>
     </g>
     <g id="text_8">
      <!-- 0 -->
      <g style="fill:#262626;" transform="translate(58.3084375 522.0203125)scale(0.14 -0.14)">
       <use xlink:href="#LiberationSans-30"/>
      </g>
     </g>
    </g>
    <g id="ytick_2">
     <g id="line2d_22">
      <path clip-path="url(#p4f6257ca6d)" d="
M72 452.571
L518.4 452.571" style="fill:none;stroke:#ffffff;stroke-linecap:round;"/>
     </g>
     <g id="line2d_23">
      <g>
       <use style="fill:#262626;stroke:#262626;" x="72.0" xlink:href="#m219da94a98" y="452.571428571"/>
      </g>
     </g>
     <g id="line2d_24">
      <g>
       <use style="fill:#262626;stroke:#262626;" x="518.4" xlink:href="#m219da94a98" y="452.571428571"/>
      </g>
     </g>
     <g id="text_9">
      <!-- 10000 -->
      <g style="fill:#262626;" transform="translate(27.6878125 456.191741071)scale(0.14 -0.14)">
       <use xlink:href="#LiberationSans-31"/>
       <use x="55.615234375" xlink:href="#LiberationSans-30"/>
       <use x="111.23046875" xlink:href="#LiberationSans-30"/>
       <use x="166.845703125" xlink:href="#LiberationSans-30"/>
       <use x="222.4609375" xlink:href="#LiberationSans-30"/>
      </g>
     </g>
    </g>
    <g id="ytick_3">
     <g id="line2d_25">
      <path clip-path="url(#p4f6257ca6d)" d="
M72 386.743
L518.4 386.743" style="fill:none;stroke:#ffffff;stroke-linecap:round;"/>
     </g>
     <g id="line2d_26">
      <g>
       <use style="fill:#262626;stroke:#262626;" x="72.0" xlink:href="#m219da94a98" y="386.742857143"/>
      </g>
     </g>
     <g id="line2d_27">
      <g>
       <use style="fill:#262626;stroke:#262626;" x="518.4" xlink:href="#m219da94a98" y="386.742857143"/>
      </g>
     </g>
     <g id="text_10">
      <!-- 20000 -->
      <g style="fill:#262626;" transform="translate(27.3246875 390.363169643)scale(0.14 -0.14)">
       <use xlink:href="#LiberationSans-32"/>
       <use x="55.615234375" xlink:href="#LiberationSans-30"/>
       <use x="111.23046875" xlink:href="#LiberationSans-30"/>
       <use x="166.845703125" xlink:href="#LiberationSans-30"/>
       <use x="222.4609375" xlink:href="#LiberationSans-30"/>
      </g>
     </g>
    </g>
    <g id="ytick_4">
     <g id="line2d_28">
      <path clip-path="url(#p4f6257ca6d)" d="
M72 320.914
L518.4 320.914" style="fill:none;stroke:#ffffff;stroke-linecap:round;"/>
     </g>
     <g id="line2d_29">
      <g>
       <use style="fill:#262626;stroke:#262626;" x="72.0" xlink:href="#m219da94a98" y="320.914285714"/>
      </g>
     </g>
     <g id="line2d_30">
      <g>
       <use style="fill:#262626;stroke:#262626;" x="518.4" xlink:href="#m219da94a98" y="320.914285714"/>
      </g>
     </g>
     <g id="text_11">
      <!-- 30000 -->
      <g style="fill:#262626;" transform="translate(27.1540625 324.534598214)scale(0.14 -0.14)">
       <use xlink:href="#LiberationSans-33"/>
       <use x="55.615234375" xlink:href="#LiberationSans-30"/>
       <use x="111.23046875" xlink:href="#LiberationSans-30"/>
       <use x="166.845703125" xlink:href="#LiberationSans-30"/>
       <use x="222.4609375" xlink:href="#LiberationSans-30"/>
      </g>
     </g>
    </g>
    <g id="ytick_5">
     <g id="line2d_31">
      <path clip-path="url(#p4f6257ca6d)" d="
M72 255.086
L518.4 255.086" style="fill:none;stroke:#ffffff;stroke-linecap:round;"/>
     </g>
     <g id="line2d_32">
      <g>
       <use style="fill:#262626;stroke:#262626;" x="72.0" xlink:href="#m219da94a98" y="255.085714286"/>
      </g>
     </g>
     <g id="line2d_33">
      <g>
       <use style="fill:#262626;stroke:#262626;" x="518.4" xlink:href="#m219da94a98" y="255.085714286"/>
      </g>
     </g>
     <g id="text_12">
      <!-- 40000 -->
      <g style="fill:#262626;" transform="translate(26.941875 258.706026786)scale(0.14 -0.14)">
       <use xlink:href="#LiberationSans-34"/>
       <use x="55.615234375" xlink:href="#LiberationSans-30"/>
       <use x="111.23046875" xlink:href="#LiberationSans-30"/>
       <use x="166.845703125" xlink:href="#LiberationSans-30"/>
       <use x="222.4609375" xlink:href="#LiberationSans-30"/>
      </g>
     </g>
    </g>
    <g id="ytick_6">
     <g id="line2d_34">
      <path clip-path="url(#p4f6257ca6d)" d="
M72 189.257
L518.4 189.257" style="fill:none;stroke:#ffffff;stroke-linecap:round;"/>
     </g>
     <g id="line2d_35">
      <g>
       <use style="fill:#262626;stroke:#262626;" x="72.0" xlink:href="#m219da94a98" y="189.257142857"/>
      </g>
     </g>
     <g id="line2d_36">
      <g>
       <use style="fill:#262626;stroke:#262626;" x="518.4" xlink:href="#m219da94a98" y="189.257142857"/>
      </g>
     </g>
     <g id="text_13">
      <!-- 50000 -->
      <defs>
       <path d="
M51.4219 22.4062
Q51.4219 17.2344 49.8594 12.9375
Q48.2969 8.64062 45.2188 5.53125
Q42.1406 2.4375 37.5781 0.71875
Q33.0156 -0.984375 27 -0.984375
Q21.5781 -0.984375 17.5469 0.28125
Q13.5312 1.5625 10.7344 3.78125
Q7.95312 6 6.3125 8.98438
Q4.6875 11.9688 4 15.375
L12.8906 16.4062
Q13.4219 14.4531 14.3906 12.625
Q15.375 10.7969 17.0625 9.34375
Q18.75 7.90625 21.2188 7.04688
Q23.6875 6.20312 27.2031 6.20312
Q30.6094 6.20312 33.3906 7.25
Q36.1875 8.29688 38.1562 10.3438
Q40.1406 12.4062 41.2031 15.375
Q42.2812 18.3594 42.2812 22.2188
Q42.2812 25.3906 41.25 28.0469
Q40.2344 30.7188 38.3281 32.6406
Q36.4219 34.5781 33.6562 35.6406
Q30.9062 36.7188 27.3906 36.7188
Q25.2031 36.7188 23.3438 36.3281
Q21.4844 35.9375 19.8906 35.25
Q18.3125 34.5781 17.0156 33.6719
Q15.7188 32.7656 14.5938 31.7812
L6 31.7812
L8.29688 68.7969
L47.4062 68.7969
L47.4062 61.3281
L16.3125 61.3281
L14.9844 39.5
Q17.3281 41.3125 20.8438 42.5938
Q24.3594 43.8906 29.2031 43.8906
Q34.3281 43.8906 38.4219 42.3281
Q42.5312 40.7656 45.4062 37.9062
Q48.2969 35.0625 49.8594 31.1094
Q51.4219 27.1562 51.4219 22.4062" id="LiberationSans-35"/>
      </defs>
      <g style="fill:#262626;" transform="translate(27.1803125 192.877455357)scale(0.14 -0.14)">
       <use xlink:href="#LiberationSans-35"/>
       <use x="55.615234375" xlink:href="#LiberationSans-30"/>
       <use x="111.23046875" xlink:href="#LiberationSans-30"/>
       <use x="166.845703125" xlink:href="#LiberationSans-30"/>
       <use x="222.4609375" xlink:href="#LiberationSans-30"/>
      </g>
     </g>
    </g>
    <g id="ytick_7">
     <g id="line2d_37">
      <path clip-path="url(#p4f6257ca6d)" d="
M72 123.429
L518.4 123.429" style="fill:none;stroke:#ffffff;stroke-linecap:round;"/>
     </g>
     <g id="line2d_38">
      <g>
       <use style="fill:#262626;stroke:#262626;" x="72.0" xlink:href="#m219da94a98" y="123.428571429"/>
      </g>
     </g>
     <g id="line2d_39">
      <g>
       <use style="fill:#262626;stroke:#262626;" x="518.4" xlink:href="#m219da94a98" y="123.428571429"/>
      </g>
     </g>
     <g id="text_14">
      <!-- 60000 -->
      <g style="fill:#262626;" transform="translate(27.33125 127.048883929)scale(0.14 -0.14)">
       <use xlink:href="#LiberationSans-36"/>
       <use x="55.615234375" xlink:href="#LiberationSans-30"/>
       <use x="111.23046875" xlink:href="#LiberationSans-30"/>
       <use x="166.845703125" xlink:href="#LiberationSans-30"/>
       <use x="222.4609375" xlink:href="#LiberationSans-30"/>
      </g>
     </g>
    </g>
    <g id="ytick_8">
     <g id="line2d_40">
      <path clip-path="url(#p4f6257ca6d)" d="
M72 57.6
L518.4 57.6" style="fill:none;stroke:#ffffff;stroke-linecap:round;"/>
     </g>
     <g id="line2d_41">
      <g>
       <use style="fill:#262626;stroke:#262626;" x="72.0" xlink:href="#m219da94a98" y="57.6"/>
      </g>
     </g>
     <g id="line2d_42">
      <g>
       <use style="fill:#262626;stroke:#262626;" x="518.4" xlink:href="#m219da94a98" y="57.6"/>
      </g>
     </g>
     <g id="text_15">
      <!-- 70000 -->
      <defs>
       <path d="
M50.5938 61.6719
Q45.4062 53.7656 41.0625 46.4531
Q36.7188 39.1562 33.5938 31.75
Q30.4688 24.3594 28.7344 16.5781
Q27 8.79688 27 0
L17.8281 0
Q17.8281 8.25 19.7812 16.1875
Q21.7344 24.125 25.0469 31.7656
Q28.375 39.4062 32.7656 46.7812
Q37.1562 54.1562 42.0938 61.3281
L5.125 61.3281
L5.125 68.7969
L50.5938 68.7969
z
" id="LiberationSans-37"/>
      </defs>
      <g style="fill:#262626;" transform="translate(27.3378125 61.2203125)scale(0.14 -0.14)">
       <use xlink:href="#LiberationSans-37"/>
       <use x="55.615234375" xlink:href="#LiberationSans-30"/>
       <use x="111.23046875" xlink:href="#LiberationSans-30"/>
       <use x="166.845703125" xlink:href="#LiberationSans-30"/>
       <use x="222.4609375" xlink:href="#LiberationSans-30"/>
      </g>
     </g>
    </g>
    <g id="text_16">
     <!-- # IGK CDR3s -->
     <defs>
      <path d="
M46.3906 14.5938
Q46.3906 10.8906 44.9375 7.98438
Q43.5 5.07812 40.7656 3.09375
Q38.0312 1.125 34.0469 0.0625
Q30.0781 -0.984375 24.9531 -0.984375
Q20.3594 -0.984375 16.6719 -0.265625
Q12.9844 0.4375 10.2031 2
Q7.42188 3.5625 5.53125 6.125
Q3.65625 8.6875 2.78125 12.4062
L10.5469 13.9219
Q11.6719 9.67188 15.1875 7.6875
Q18.7031 5.71875 24.9531 5.71875
Q27.7812 5.71875 30.1406 6.10938
Q32.5156 6.5 34.2188 7.45312
Q35.9375 8.40625 36.8906 9.98438
Q37.8438 11.5781 37.8438 13.9219
Q37.8438 16.3125 36.7188 17.8438
Q35.5938 19.3906 33.5938 20.4062
Q31.5938 21.4375 28.7344 22.1875
Q25.875 22.9531 22.4688 23.875
Q19.2812 24.7031 16.1562 25.7344
Q13.0312 26.7656 10.5156 28.4375
Q8.01562 30.125 6.45312 32.6094
Q4.89062 35.1094 4.89062 38.875
Q4.89062 46.0938 10.0312 49.875
Q15.1875 53.6562 25.0469 53.6562
Q33.7969 53.6562 38.9375 50.5781
Q44.0938 47.5156 45.4531 40.7188
L37.5469 39.75
Q37.1094 41.7969 35.9375 43.1875
Q34.7656 44.5781 33.1094 45.4375
Q31.4531 46.2969 29.375 46.6562
Q27.2969 47.0156 25.0469 47.0156
Q19.0938 47.0156 16.25 45.2031
Q13.4219 43.4062 13.4219 39.75
Q13.4219 37.5938 14.4688 36.2031
Q15.5312 34.8125 17.4062 33.8594
Q19.2812 32.9062 21.9219 32.2031
Q24.5625 31.5 27.7344 30.7188
Q29.8281 30.1719 32.0312 29.5625
Q34.2344 28.9531 36.2969 28.0938
Q38.375 27.25 40.2031 26.0938
Q42.0469 24.9531 43.4062 23.3438
Q44.7812 21.7344 45.5781 19.5781
Q46.3906 17.4375 46.3906 14.5938" id="LiberationSans-73"/>
      <path d="
M43.75 43.2188
L39.9375 25.2031
L52.6406 25.2031
L52.6406 19.9219
L38.8125 19.9219
L34.5156 0
L29.1562 0
L33.3438 19.9219
L15.625 19.9219
L11.5312 0
L6.15625 0
L10.25 19.9219
L0.4375 19.9219
L0.4375 25.2031
L11.4219 25.2031
L15.2344 43.2188
L2.9375 43.2188
L2.9375 48.4844
L16.3125 48.4844
L20.6562 68.4062
L26.0312 68.4062
L21.7344 48.4844
L39.4531 48.4844
L43.75 68.4062
L49.125 68.4062
L44.8281 48.4844
L55.125 48.4844
L55.125 43.2188
z

M20.75 43.2188
L16.8438 25.2031
L34.5156 25.2031
L38.3281 43.2188
z
" id="LiberationSans-23"/>
     </defs>
     <g style="fill:#262626;" transform="translate(18.621875 336.1675)rotate(-90.0)scale(0.16 -0.16)">
      <use xlink:href="#LiberationSans-23"/>
      <use x="55.615234375" xlink:href="#LiberationSans-20"/>
      <use x="83.3984375" xlink:href="#LiberationSans-49"/>
      <use x="111.181640625" xlink:href="#LiberationSans-47"/>
      <use x="188.96484375" xlink:href="#LiberationSans-4b"/>
      <use x="255.6640625" xlink:href="#LiberationSans-20"/>
      <use x="283.447265625" xlink:href="#LiberationSans-43"/>
      <use x="355.6640625" xlink:href="#LiberationSans-44"/>
      <use x="427.880859375" xlink:href="#LiberationSans-52"/>
      <use x="500.09765625" xlink:href="#LiberationSans-33"/>
      <use x="555.712890625" xlink:href="#LiberationSans-73"/>
     </g>
    </g>
   </g>
   <g id="patch_3">
    <path clip-path="url(#p4f6257ca6d)" d="
M94.32 518.4
L109.498 518.4
L109.498 518.361
L94.32 518.361
z
" style="fill:#4c72b0;opacity:0.4;stroke:#1a1a1a;stroke-linejoin:miter;stroke-width:0.3;"/>
   </g>
   <g id="patch_4">
    <path clip-path="url(#p4f6257ca6d)" d="
M109.498 518.4
L124.675 518.4
L124.675 518.328
L109.498 518.328
z
" style="fill:#4c72b0;opacity:0.4;stroke:#1a1a1a;stroke-linejoin:miter;stroke-width:0.3;"/>
   </g>
   <g id="patch_5">
    <path clip-path="url(#p4f6257ca6d)" d="
M124.675 518.4
L139.853 518.4
L139.853 514.055
L124.675 514.055
z
" style="fill:#4c72b0;opacity:0.4;stroke:#1a1a1a;stroke-linejoin:miter;stroke-width:0.3;"/>
   </g>
   <g id="patch_6">
    <path clip-path="url(#p4f6257ca6d)" d="
M139.853 518.4
L155.03 518.4
L155.03 515.504
L139.853 515.504
z
" style="fill:#4c72b0;opacity:0.4;stroke:#1a1a1a;stroke-linejoin:miter;stroke-width:0.3;"/>
   </g>
   <g id="patch_7">
    <path clip-path="url(#p4f6257ca6d)" d="
M155.03 518.4
L170.208 518.4
L170.208 516.089
L155.03 516.089
z
" style="fill:#4c72b0;opacity:0.4;stroke:#1a1a1a;stroke-linejoin:miter;stroke-width:0.3;"/>
   </g>
   <g id="patch_8">
    <path clip-path="url(#p4f6257ca6d)" d="
M170.208 518.4
L185.386 518.4
L185.386 439.425
L170.208 439.425
z
" style="fill:#4c72b0;opacity:0.4;stroke:#1a1a1a;stroke-linejoin:miter;stroke-width:0.3;"/>
   </g>
   <g id="patch_9">
    <path clip-path="url(#p4f6257ca6d)" d="
M185.386 518.4
L200.563 518.4
L200.563 63.9722
L185.386 63.9722
z
" style="fill:#4c72b0;opacity:0.4;stroke:#1a1a1a;stroke-linejoin:miter;stroke-width:0.3;"/>
   </g>
   <g id="patch_10">
    <path clip-path="url(#p4f6257ca6d)" d="
M200.563 518.4
L215.741 518.4
L215.741 376.783
L200.563 376.783
z
" style="fill:#4c72b0;opacity:0.4;stroke:#1a1a1a;stroke-linejoin:miter;stroke-width:0.3;"/>
   </g>
   <g id="patch_11">
    <path clip-path="url(#p4f6257ca6d)" d="
M215.741 518.4
L230.918 518.4
L230.918 475.019
L215.741 475.019
z
" style="fill:#4c72b0;opacity:0.4;stroke:#1a1a1a;stroke-linejoin:miter;stroke-width:0.3;"/>
   </g>
   <g id="patch_12">
    <path clip-path="url(#p4f6257ca6d)" d="
M230.918 518.4
L246.096 518.4
L246.096 517.123
L230.918 517.123
z
" style="fill:#4c72b0;opacity:0.4;stroke:#1a1a1a;stroke-linejoin:miter;stroke-width:0.3;"/>
   </g>
   <g id="patch_13">
    <path clip-path="url(#p4f6257ca6d)" d="
M246.096 518.4
L261.274 518.4
L261.274 517.281
L246.096 517.281
z
" style="fill:#4c72b0;opacity:0.4;stroke:#1a1a1a;stroke-linejoin:miter;stroke-width:0.3;"/>
   </g>
   <g id="patch_14">
    <path clip-path="url(#p4f6257ca6d)" d="
M261.274 518.4
L276.451 518.4
L276.451 518.4
L261.274 518.4
z
" style="fill:#4c72b0;opacity:0.4;stroke:#1a1a1a;stroke-linejoin:miter;stroke-width:0.3;"/>
   </g>
   <g id="patch_15">
    <path clip-path="url(#p4f6257ca6d)" d="
M276.451 518.4
L291.629 518.4
L291.629 518.4
L276.451 518.4
z
" style="fill:#4c72b0;opacity:0.4;stroke:#1a1a1a;stroke-linejoin:miter;stroke-width:0.3;"/>
   </g>
   <g id="patch_16">
    <path clip-path="url(#p4f6257ca6d)" d="
M291.629 518.4
L306.806 518.4
L306.806 518.4
L291.629 518.4
z
" style="fill:#4c72b0;opacity:0.4;stroke:#1a1a1a;stroke-linejoin:miter;stroke-width:0.3;"/>
   </g>
   <g id="patch_17">
    <path clip-path="url(#p4f6257ca6d)" d="
M306.806 518.4
L321.984 518.4
L321.984 518.4
L306.806 518.4
z
" style="fill:#4c72b0;opacity:0.4;stroke:#1a1a1a;stroke-linejoin:miter;stroke-width:0.3;"/>
   </g>
   <g id="patch_18">
    <path clip-path="url(#p4f6257ca6d)" d="
M321.984 518.4
L337.162 518.4
L337.162 518.4
L321.984 518.4
z
" style="fill:#4c72b0;opacity:0.4;stroke:#1a1a1a;stroke-linejoin:miter;stroke-width:0.3;"/>
   </g>
   <g id="patch_19">
    <path clip-path="url(#p4f6257ca6d)" d="
M337.162 518.4
L352.339 518.4
L352.339 518.4
L337.162 518.4
z
" style="fill:#4c72b0;opacity:0.4;stroke:#1a1a1a;stroke-linejoin:miter;stroke-width:0.3;"/>
   </g>
   <g id="patch_20">
    <path clip-path="url(#p4f6257ca6d)" d="
M352.339 518.4
L367.517 518.4
L367.517 518.387
L352.339 518.387
z
" style="fill:#4c72b0;opacity:0.4;stroke:#1a1a1a;stroke-linejoin:miter;stroke-width:0.3;"/>
   </g>
   <g id="patch_21">
    <path clip-path="url(#p4f6257ca6d)" d="
M367.517 518.4
L382.694 518.4
L382.694 518.275
L367.517 518.275
z
" style="fill:#4c72b0;opacity:0.4;stroke:#1a1a1a;stroke-linejoin:miter;stroke-width:0.3;"/>
   </g>
   <g id="patch_22">
    <path clip-path="url(#p4f6257ca6d)" d="
M382.694 518.4
L397.872 518.4
L397.872 518.4
L382.694 518.4
z
" style="fill:#4c72b0;opacity:0.4;stroke:#1a1a1a;stroke-linejoin:miter;stroke-width:0.3;"/>
   </g>
   <g id="patch_23">
    <path clip-path="url(#p4f6257ca6d)" d="
M397.872 518.4
L413.05 518.4
L413.05 518.387
L397.872 518.387
z
" style="fill:#4c72b0;opacity:0.4;stroke:#1a1a1a;stroke-linejoin:miter;stroke-width:0.3;"/>
   </g>
   <g id="patch_24">
    <path clip-path="url(#p4f6257ca6d)" d="
M413.05 518.4
L428.227 518.4
L428.227 518.4
L413.05 518.4
z
" style="fill:#4c72b0;opacity:0.4;stroke:#1a1a1a;stroke-linejoin:miter;stroke-width:0.3;"/>
   </g>
   <g id="patch_25">
    <path clip-path="url(#p4f6257ca6d)" d="
M428.227 518.4
L443.405 518.4
L443.405 518.288
L428.227 518.288
z
" style="fill:#4c72b0;opacity:0.4;stroke:#1a1a1a;stroke-linejoin:miter;stroke-width:0.3;"/>
   </g>
   <g id="patch_26">
    <path clip-path="url(#p4f6257ca6d)" d="
M443.405 518.4
L458.582 518.4
L458.582 517.933
L443.405 517.933
z
" style="fill:#4c72b0;opacity:0.4;stroke:#1a1a1a;stroke-linejoin:miter;stroke-width:0.3;"/>
   </g>
   <g id="patch_27">
    <path clip-path="url(#p4f6257ca6d)" d="
M458.582 518.4
L473.76 518.4
L473.76 518.196
L458.582 518.196
z
" style="fill:#4c72b0;opacity:0.4;stroke:#1a1a1a;stroke-linejoin:miter;stroke-width:0.3;"/>
   </g>
   <g id="patch_28">
    <path clip-path="url(#p4f6257ca6d)" d="
M473.76 518.4
L488.938 518.4
L488.938 518.387
L473.76 518.387
z
" style="fill:#4c72b0;opacity:0.4;stroke:#1a1a1a;stroke-linejoin:miter;stroke-width:0.3;"/>
   </g>
   <g id="patch_29">
    <path clip-path="url(#p4f6257ca6d)" d="
M488.938 518.4
L504.115 518.4
L504.115 518.393
L488.938 518.393
z
" style="fill:#4c72b0;opacity:0.4;stroke:#1a1a1a;stroke-linejoin:miter;stroke-width:0.3;"/>
   </g>
   <g id="patch_30">
    <path clip-path="url(#p4f6257ca6d)" d="
M504.115 518.4
L519.293 518.4
L519.293 518.4
L504.115 518.4
z
" style="fill:#4c72b0;opacity:0.4;stroke:#1a1a1a;stroke-linejoin:miter;stroke-width:0.3;"/>
   </g>
   <g id="patch_31">
    <path clip-path="url(#p4f6257ca6d)" d="
M519.293 518.4
L534.47 518.4
L534.47 518.4
L519.293 518.4
z
" style="fill:#4c72b0;opacity:0.4;stroke:#1a1a1a;stroke-linejoin:miter;stroke-width:0.3;"/>
   </g>
   <g id="patch_32">
    <path clip-path="url(#p4f6257ca6d)" d="
M534.47 518.4
L549.648 518.4
L549.648 518.4
L534.47 518.4
z
" style="fill:#4c72b0;opacity:0.4;stroke:#1a1a1a;stroke-linejoin:miter;stroke-width:0.3;"/>
   </g>
   <g id="patch_33">
    <path clip-path="url(#p4f6257ca6d)" d="
M549.648 518.4
L564.826 518.4
L564.826 518.4
L549.648 518.4
z
" style="fill:#4c72b0;opacity:0.4;stroke:#1a1a1a;stroke-linejoin:miter;stroke-width:0.3;"/>
   </g>
   <g id="patch_34">
    <path clip-path="url(#p4f6257ca6d)" d="
M564.826 518.4
L580.003 518.4
L580.003 518.4
L564.826 518.4
z
" style="fill:#4c72b0;opacity:0.4;stroke:#1a1a1a;stroke-linejoin:miter;stroke-width:0.3;"/>
   </g>
   <g id="patch_35">
    <path clip-path="url(#p4f6257ca6d)" d="
M580.003 518.4
L595.181 518.4
L595.181 518.4
L580.003 518.4
z
" style="fill:#4c72b0;opacity:0.4;stroke:#1a1a1a;stroke-linejoin:miter;stroke-width:0.3;"/>
   </g>
   <g id="patch_36">
    <path clip-path="url(#p4f6257ca6d)" d="
M595.181 518.4
L610.358 518.4
L610.358 518.4
L595.181 518.4
z
" style="fill:#4c72b0;opacity:0.4;stroke:#1a1a1a;stroke-linejoin:miter;stroke-width:0.3;"/>
   </g>
   <g id="patch_37">
    <path clip-path="url(#p4f6257ca6d)" d="
M610.358 518.4
L625.536 518.4
L625.536 518.4
L610.358 518.4
z
" style="fill:#4c72b0;opacity:0.4;stroke:#1a1a1a;stroke-linejoin:miter;stroke-width:0.3;"/>
   </g>
   <g id="patch_38">
    <path clip-path="url(#p4f6257ca6d)" d="
M625.536 518.4
L640.714 518.4
L640.714 518.4
L625.536 518.4
z
" style="fill:#4c72b0;opacity:0.4;stroke:#1a1a1a;stroke-linejoin:miter;stroke-width:0.3;"/>
   </g>
   <g id="patch_39">
    <path clip-path="url(#p4f6257ca6d)" d="
M640.714 518.4
L655.891 518.4
L655.891 518.4
L640.714 518.4
z
" style="fill:#4c72b0;opacity:0.4;stroke:#1a1a1a;stroke-linejoin:miter;stroke-width:0.3;"/>
   </g>
   <g id="patch_40">
    <path clip-path="url(#p4f6257ca6d)" d="
M655.891 518.4
L671.069 518.4
L671.069 518.4
L655.891 518.4
z
" style="fill:#4c72b0;opacity:0.4;stroke:#1a1a1a;stroke-linejoin:miter;stroke-width:0.3;"/>
   </g>
   <g id="patch_41">
    <path clip-path="url(#p4f6257ca6d)" d="
M671.069 518.4
L686.246 518.4
L686.246 518.393
L671.069 518.393
z
" style="fill:#4c72b0;opacity:0.4;stroke:#1a1a1a;stroke-linejoin:miter;stroke-width:0.3;"/>
   </g>
   <g id="patch_42">
    <path clip-path="url(#p4f6257ca6d)" d="
M686.246 518.4
L701.424 518.4
L701.424 518.387
L686.246 518.387
z
" style="fill:#4c72b0;opacity:0.4;stroke:#1a1a1a;stroke-linejoin:miter;stroke-width:0.3;"/>
   </g>
   <g id="patch_43">
    <path clip-path="url(#p4f6257ca6d)" d="
M701.424 518.4
L716.602 518.4
L716.602 518.209
L701.424 518.209
z
" style="fill:#4c72b0;opacity:0.4;stroke:#1a1a1a;stroke-linejoin:miter;stroke-width:0.3;"/>
   </g>
   <g id="patch_44">
    <path clip-path="url(#p4f6257ca6d)" d="
M716.602 518.4
L731.779 518.4
L731.779 518.321
L716.602 518.321
z
" style="fill:#4c72b0;opacity:0.4;stroke:#1a1a1a;stroke-linejoin:miter;stroke-width:0.3;"/>
   </g>
   <g id="patch_45">
    <path clip-path="url(#p4f6257ca6d)" d="
M731.779 518.4
L746.957 518.4
L746.957 518.393
L731.779 518.393
z
" style="fill:#4c72b0;opacity:0.4;stroke:#1a1a1a;stroke-linejoin:miter;stroke-width:0.3;"/>
   </g>
   <g id="patch_46">
    <path clip-path="url(#p4f6257ca6d)" d="
M746.957 518.4
L762.134 518.4
L762.134 518.4
L746.957 518.4
z
" style="fill:#4c72b0;opacity:0.4;stroke:#1a1a1a;stroke-linejoin:miter;stroke-width:0.3;"/>
   </g>
   <g id="patch_47">
    <path clip-path="url(#p4f6257ca6d)" d="
M762.134 518.4
L777.312 518.4
L777.312 518.4
L762.134 518.4
z
" style="fill:#4c72b0;opacity:0.4;stroke:#1a1a1a;stroke-linejoin:miter;stroke-width:0.3;"/>
   </g>
   <g id="patch_48">
    <path clip-path="url(#p4f6257ca6d)" d="
M777.312 518.4
L792.49 518.4
L792.49 518.4
L777.312 518.4
z
" style="fill:#4c72b0;opacity:0.4;stroke:#1a1a1a;stroke-linejoin:miter;stroke-width:0.3;"/>
   </g>
   <g id="patch_49">
    <path clip-path="url(#p4f6257ca6d)" d="
M792.49 518.4
L807.667 518.4
L807.667 518.4
L792.49 518.4
z
" style="fill:#4c72b0;opacity:0.4;stroke:#1a1a1a;stroke-linejoin:miter;stroke-width:0.3;"/>
   </g>
   <g id="patch_50">
    <path clip-path="url(#p4f6257ca6d)" d="
M807.667 518.4
L822.845 518.4
L822.845 518.4
L807.667 518.4
z
" style="fill:#4c72b0;opacity:0.4;stroke:#1a1a1a;stroke-linejoin:miter;stroke-width:0.3;"/>
   </g>
   <g id="patch_51">
    <path clip-path="url(#p4f6257ca6d)" d="
M822.845 518.4
L838.022 518.4
L838.022 518.4
L822.845 518.4
z
" style="fill:#4c72b0;opacity:0.4;stroke:#1a1a1a;stroke-linejoin:miter;stroke-width:0.3;"/>
   </g>
   <g id="patch_52">
    <path clip-path="url(#p4f6257ca6d)" d="
M838.022 518.4
L853.2 518.4
L853.2 518.393
L838.022 518.393
z
" style="fill:#4c72b0;opacity:0.4;stroke:#1a1a1a;stroke-linejoin:miter;stroke-width:0.3;"/>
   </g>
   <g id="patch_53">
    <path d="
M72 57.6
L518.4 57.6" style="fill:none;"/>
   </g>
   <g id="patch_54">
    <path d="
M518.4 518.4
L518.4 57.6" style="fill:none;"/>
   </g>
   <g id="patch_55">
    <path d="
M72 518.4
L518.4 518.4" style="fill:none;"/>
   </g>
   <g id="patch_56">
    <path d="
M72 518.4
L72 57.6" style="fill:none;"/>
   </g>
  </g>
 </g>
 <defs>
  <clipPath id="p4f6257ca6d">
   <rect height="460.8" width="446.4" x="72.0" y="57.6"/>
  </clipPath>
 </defs>
</svg>
