<?xml version="1.0" standalone="yes"?>

<svg version="1.1" viewBox="0.0 0.0 701.3097112860893 589.488188976378" fill="none" stroke="none" stroke-linecap="square" stroke-miterlimit="10" xmlns="http://www.w3.org/2000/svg" xmlns:xlink="http://www.w3.org/1999/xlink"><clipPath id="p.0"><path d="m0 0l701.3097 0l0 589.48816l-701.3097 0l0 -589.48816z" clip-rule="nonzero"></path></clipPath><g clip-path="url(#p.0)"><path fill="#000000" fill-opacity="0.0" d="m0 0l701.3097 0l0 589.48816l-701.3097 0z" fill-rule="evenodd"></path><path fill="#e06666" d="m34.17848 68.87533l284.53543 0l0 25.984253l-284.53543 0z" fill-rule="evenodd"></path><path stroke="#000000" stroke-width="1.0" stroke-linejoin="round" stroke-linecap="butt" d="m34.17848 68.87533l284.53543 0l0 25.984253l-284.53543 0z" fill-rule="evenodd"></path><path fill="#93c47d" d="m34.17848 118.038055l284.53543 0l0 25.984253l-284.53543 0z" fill-rule="evenodd"></path><path stroke="#000000" stroke-width="1.0" stroke-linejoin="round" stroke-linecap="butt" d="m34.17848 118.038055l284.53543 0l0 25.984253l-284.53543 0z" fill-rule="evenodd"></path><path fill="#e06666" d="m34.17848 167.12993l284.53543 0l0 25.984238l-284.53543 0z" fill-rule="evenodd"></path><path stroke="#000000" stroke-width="1.0" stroke-linejoin="round" stroke-linecap="butt" d="m34.17848 167.12993l284.53543 0l0 25.984238l-284.53543 0z" fill-rule="evenodd"></path><path fill="#93c47d" d="m34.149605 216.22179l284.53543 0l0 25.984253l-284.53543 0z" fill-rule="evenodd"></path><path stroke="#000000" stroke-width="1.0" stroke-linejoin="round" stroke-linecap="butt" d="m34.149605 216.22179l284.53543 0l0 25.984253l-284.53543 0z" fill-rule="evenodd"></path><path fill="#93c47d" d="m34.17848 265.1719l284.53543 0l0 25.984253l-284.53543 0z" fill-rule="evenodd"></path><path stroke="#000000" stroke-width="1.0" stroke-linejoin="round" stroke-linecap="butt" d="m34.17848 265.1719l284.53543 0l0 25.984253l-284.53543 0z" fill-rule="evenodd"></path><path fill="#e06666" d="m34.17848 314.12204l284.53543 0l0 25.984253l-284.53543 0z" fill-rule="evenodd"></path><path stroke="#000000" stroke-width="1.0" stroke-linejoin="round" stroke-linecap="butt" d="m34.17848 314.12204l284.53543 0l0 25.984253l-284.53543 0z" fill-rule="evenodd"></path><path fill="#93c47d" d="m34.17848 363.07217l284.53543 0l0 25.984253l-284.53543 0z" fill-rule="evenodd"></path><path stroke="#000000" stroke-width="1.0" stroke-linejoin="round" stroke-linecap="butt" d="m34.17848 363.07217l284.53543 0l0 25.984253l-284.53543 0z" fill-rule="evenodd"></path><path fill="#93c47d" d="m381.30972 90.28871l284.53543 0l0 25.984253l-284.53543 0z" fill-rule="evenodd"></path><path stroke="#000000" stroke-width="1.0" stroke-linejoin="round" stroke-linecap="butt" d="m381.30972 90.28871l284.53543 0l0 25.984253l-284.53543 0z" fill-rule="evenodd"></path><path fill="#93c47d" d="m381.30972 139.51968l284.53543 0l0 25.984253l-284.53543 0z" fill-rule="evenodd"></path><path stroke="#000000" stroke-width="1.0" stroke-linejoin="round" stroke-linecap="butt" d="m381.30972 139.51968l284.53543 0l0 25.984253l-284.53543 0z" fill-rule="evenodd"></path><path fill="#6d9eeb" d="m381.30972 188.59842l284.53543 0l0 25.984253l-284.53543 0z" fill-rule="evenodd"></path><path stroke="#000000" stroke-width="1.0" stroke-linejoin="round" stroke-linecap="butt" d="m381.30972 188.59842l284.53543 0l0 25.984253l-284.53543 0z" fill-rule="evenodd"></path><path fill="#93c47d" d="m381.30972 237.61679l284.53543 0l0 25.984253l-284.53543 0z" fill-rule="evenodd"></path><path stroke="#000000" stroke-width="1.0" stroke-linejoin="round" stroke-linecap="butt" d="m381.30972 237.61679l284.53543 0l0 25.984253l-284.53543 0z" fill-rule="evenodd"></path><path fill="#93c47d" d="m381.30972 286.6378l284.53543 0l0 25.984253l-284.53543 0z" fill-rule="evenodd"></path><path stroke="#000000" stroke-width="1.0" stroke-linejoin="round" stroke-linecap="butt" d="m381.30972 286.6378l284.53543 0l0 25.984253l-284.53543 0z" fill-rule="evenodd"></path><path fill="#6d9eeb" d="m381.30972 335.6299l284.53543 0l0 25.984253l-284.53543 0z" fill-rule="evenodd"></path><path stroke="#000000" stroke-width="1.0" stroke-linejoin="round" stroke-linecap="butt" d="m381.30972 335.6299l284.53543 0l0 25.984253l-284.53543 0z" fill-rule="evenodd"></path><path fill="#000000" fill-opacity="0.0" d="m34.149605 16.543306l284.53543 0l0 34.519684l-284.53543 0z" fill-rule="evenodd"></path><path fill="#000000" d="m63.051994 25.121897l0 6.1875l-0.5 0q-0.59375 -2.421875 -2.171875 -3.703125q-1.578125 -1.296875 -3.578125 -1.296875q-1.6875 0 -3.078125 0.96875q-1.390625 0.953125 -2.046875 2.5q-0.828125 2.0 -0.828125 4.437502q0 2.390625 0.609375 4.375q0.609375 1.96875 1.890625 2.984375q1.296875 1.0 3.359375 1.0q1.6875 0 3.078125 -0.734375q1.40625 -0.75 2.96875 -2.546875l0 1.53125q-1.5 1.578125 -3.140625 2.28125q-1.625 0.703125 -3.796875 0.703125q-2.859375 0 -5.078125 -1.140625q-2.21875 -1.15625 -3.4375 -3.296875q-1.203125 -2.15625 -1.203125 -4.578125q0 -2.5625 1.34375 -4.843752q1.34375 -2.296875 3.609375 -3.5625q2.28125 -1.265625 4.828125 -1.265625q1.890625 0 3.984375 0.8125q1.21875 0.46875 1.546875 0.46875q0.421875 0 0.734375 -0.296875q0.3125 -0.3125 0.40625 -0.984375l0.5 0zm7.953415 5.578125q1.609375 0 2.984375 0.84375q1.390625 0.8281269 2.109375 2.359377q0.71875 1.53125 0.71875 3.34375q0 2.625 -1.328125 4.390625q-1.609375 2.140625 -4.4375 2.140625q-2.78125 0 -4.296875 -1.953125q-1.5 -1.953125 -1.5 -4.53125q0 -2.640625 1.53125 -4.609375q1.546875 -1.9843769 4.21875 -1.9843769zm0.0625 0.9375q-0.671875 0 -1.15625 0.5156269q-0.484375 0.5 -0.640625 2.0q-0.140625 1.5 -0.140625 4.15625q0 1.421875 0.171875 2.640625q0.15625 0.9375 0.625 1.421875q0.484375 0.484375 1.078125 0.484375q0.59375 0 1.0 -0.328125q0.515625 -0.4375 0.671875 -1.25q0.265625 -1.25 0.265625 -5.0625q0 -2.234375 -0.25 -3.0625q-0.25 -0.84375 -0.734375 -1.2343769q-0.34375 -0.28125 -0.890625 -0.28125zm12.5 -0.5625l0 1.5937519q0.9375 -1.0312519 1.8125 -1.5000019q0.875 -0.46875 1.875 -0.46875q1.203125 0 1.984375 0.671875q0.796875 0.6718769 1.0625 1.6562519q0.203125 0.75 0.203125 2.890625l0 4.796875q0 1.421875 0.25 1.78125q0.265625 0.34375 1.078125 0.4375l0 0.46875l-6.234375 0l0 -0.46875q0.703125 -0.09375 1.0 -0.59375q0.21875 -0.328125 0.21875 -1.625l0 -5.484375q0 -1.515625 -0.125 -1.90625q-0.109375 -0.40625 -0.40625 -0.625q-0.28125 -0.21875 -0.609375 -0.21875q-1.140625 0 -2.109375 1.625l0 6.609375q0 1.375 0.25 1.75q0.25 0.375 0.953125 0.46875l0 0.46875l-6.234375 0l0 -0.46875q0.78125 -0.078125 1.109375 -0.5q0.21875 -0.296875 0.21875 -1.71875l0 -6.96875q0 -1.390625 -0.265625 -1.734375q-0.25 -0.3437519 -1.0625 -0.4531269l0 -0.484375l5.03125 0zm17.574936 -0.34375l0.203125 4.203127l-0.453125 0q-0.8125 -1.875 -1.671875 -2.546875q-0.859375 -0.6875019 -1.71875 -0.6875019q-0.546875 0 -0.9375 0.3593769q-0.375 0.359375 -0.375 0.84375q0 0.34375 0.265625 0.671875q0.421875 0.546875 2.359375 1.859375q1.9375 1.3125 2.546875 2.234375q0.625 0.90625 0.625 2.046875q0 1.03125 -0.515625 2.015625q-0.515625 0.984375 -1.453125 1.515625q-0.9375 0.53125 -2.0625 0.53125q-0.890625 0 -2.359375 -0.5625q-0.40625 -0.140625 -0.546875 -0.140625q-0.4375 0 -0.71875 0.65625l-0.4375 0l-0.21875 -4.421875l0.453125 0q0.59375 1.734375 1.625 2.609375q1.03125 0.859375 1.96875 0.859375q0.625 0 1.015625 -0.375q0.40625 -0.390625 0.40625 -0.953125q0 -0.625 -0.390625 -1.078125q-0.390625 -0.46875 -1.765625 -1.40625q-2.015625 -1.40625 -2.609375 -2.140625q-0.875 -1.078125 -0.875 -2.390625q0 -1.421875 0.984375 -2.578127q0.984375 -1.15625 2.84375 -1.15625q1.0 0 1.9375 0.5q0.359375 0.1875 0.578125 0.1875q0.234375 0 0.375 -0.09375q0.15625 -0.09375 0.46875 -0.5625l0.453125 0zm7.4673004 -4.15625l0 4.5l2.9375 0l0 1.3125019l-2.9375 0l0 7.59375q0 1.078125 0.09375 1.390625q0.109375 0.296875 0.359375 0.5q0.25 0.1875 0.453125 0.1875q0.859375 0 1.625 -1.3125l0.40625 0.296875q-1.078125 2.53125 -3.46875 2.53125q-1.171875 0 -1.984375 -0.65625q-0.8125 -0.65625 -1.046875 -1.453125q-0.125 -0.453125 -0.125 -2.421875l0 -6.65625l-1.609375 0l0 -0.4687519q1.65625 -1.171875 2.828125 -2.453125q1.171875 -1.296875 2.03125 -2.890625l0.4375 0zm9.1111145 4.5l0 2.796877q1.21875 -1.9062519 2.140625 -2.531252q0.921875 -0.640625 1.78125 -0.640625q0.734375 0 1.171875 0.46875q0.453125 0.453125 0.453125 1.2812519q0 0.875 -0.4375 1.375q-0.421875 0.484375 -1.03125 0.484375q-0.703125 0 -1.21875 -0.453125q-0.5 -0.453125 -0.59375 -0.5q-0.140625 -0.078125 -0.3125 -0.078125q-0.375 0 -0.71875 0.296875q-0.546875 0.4375 -0.8125 1.265625q-0.421875 1.28125 -0.421875 2.828125l0 2.828125l0 0.75q0 0.75 0.09375 0.953125q0.15625 0.359375 0.46875 0.53125q0.3125 0.15625 1.046875 0.203125l0 0.46875l-6.65625 0l0 -0.46875q0.8125 -0.078125 1.09375 -0.453125q0.28125 -0.375 0.28125 -1.984375l0 -6.8125q0 -1.046875 -0.109375 -1.34375q-0.125 -0.3750019 -0.375 -0.5312519q-0.25 -0.171875 -0.890625 -0.25l0 -0.484375l5.046875 0zm18.612572 0l0 9.656252q0 1.40625 0.265625 1.765625q0.265625 0.34375 1.0625 0.4375l0 0.46875l-5.015625 0l0 -1.640625q-0.890625 1.046875 -1.78125 1.53125q-0.875 0.484375 -1.96875 0.484375q-1.0312576 0 -1.8437576 -0.640625q-0.8125 -0.640625 -1.09375 -1.5q-0.28125 -0.859375 -0.28125 -3.0l0 -4.890625q0 -1.390625 -0.265625 -1.734375q-0.25 -0.3437519 -1.0625 -0.4531269l0 -0.484375l5.0312576 0l0 8.421877q0 1.328125 0.125 1.71875q0.125 0.375 0.390625 0.578125q0.265625 0.1875 0.625 0.1875q0.46875 0 0.859375 -0.25q0.53125 -0.34375 1.265625 -1.390625l0 -6.59375q0 -1.390625 -0.265625 -1.734375q-0.25 -0.3437519 -1.0625 -0.4531269l0 -0.484375l5.015625 0zm12.981186 9.156252l0.40625 0.3125q-0.875 1.640625 -2.171875 2.4375q-1.296875 0.796875 -2.75 0.796875q-2.46875 0 -3.953125 -1.859375q-1.46875 -1.859375 -1.46875 -4.46875q0 -2.53125 1.34375 -4.4375q1.625 -2.312502 4.46875 -2.312502q1.90625 0 3.03125 0.96875q1.140625 0.9687519 1.140625 2.156252q0 0.75 -0.46875 1.203125q-0.453125 0.4375 -1.1875 0.4375q-0.78125 0 -1.296875 -0.515625q-0.5 -0.515625 -0.609375 -1.828125q-0.078125 -0.828125 -0.390625 -1.1562519q-0.296875 -0.328125 -0.703125 -0.328125q-0.640625 0 -1.078125 0.6718769q-0.6875 1.015625 -0.6875 3.109375q0 1.734375 0.546875 3.328125q0.5625 1.578125 1.515625 2.359375q0.734375 0.5625 1.71875 0.5625q0.640625 0 1.21875 -0.296875q0.578125 -0.296875 1.375 -1.140625zm6.659439 -13.656252l0 4.5l2.9375 0l0 1.3125019l-2.9375 0l0 7.59375q0 1.078125 0.09375 1.390625q0.109375 0.296875 0.359375 0.5q0.25 0.1875 0.453125 0.1875q0.859375 0 1.625 -1.3125l0.40625 0.296875q-1.078125 2.53125 -3.46875 2.53125q-1.171875 0 -1.984375 -0.65625q-0.8125 -0.65625 -1.046875 -1.453125q-0.125 -0.453125 -0.125 -2.421875l0 -6.65625l-1.609375 0l0 -0.4687519q1.65625 -1.171875 2.828125 -2.453125q1.171875 -1.296875 2.03125 -2.890625l0.4375 0zm14.4236145 10.218752l-6.75 0q0.109375 2.453125 1.296875 3.875q0.90625 1.09375 2.1875 1.09375q0.796875 0 1.4375 -0.4375q0.65625 -0.4375 1.390625 -1.59375l0.4375 0.296875q-1.0 2.046875 -2.21875 2.90625q-1.203125 0.84375 -2.796875 0.84375q-2.734375 0 -4.15625 -2.109375q-1.125 -1.703125 -1.125 -4.21875q0 -3.09375 1.65625 -4.921875q1.671875 -1.8281269 3.921875 -1.8281269q1.859375 0 3.234375 1.5468769q1.390625 1.53125 1.484375 4.546875zm-3.234375 -0.875q0 -2.125 -0.234375 -2.90625q-0.234375 -0.796875 -0.71875 -1.2187519q-0.28125 -0.234375 -0.734375 -0.234375q-0.6875 0 -1.125 0.6718769q-0.78125 1.171875 -0.78125 3.21875l0 0.46875l3.59375 0zm16.612564 -10.390627l0 14.187502q0 1.4375 0.078125 1.703125q0.109375 0.421875 0.40625 0.640625q0.296875 0.203125 1.03125 0.265625l0 0.4375l-5.203125 1.015625l0 -1.953125q-0.9375 1.125 -1.671875 1.546875q-0.734375 0.40625 -1.65625 0.40625q-2.359375 0 -3.71875 -2.109375q-1.109375 -1.71875 -1.109375 -4.21875q0 -1.984375 0.671875 -3.5625q0.6875 -1.578125 1.875 -2.375002q1.203125 -0.8125 2.578125 -0.8125q0.875 0 1.5625 0.34375q0.6875 0.34375 1.46875 1.2031269l0 -3.718752q0 -1.40625 -0.125 -1.703125q-0.15625 -0.375 -0.46875 -0.5625q-0.3125 -0.1875 -1.1875 -0.1875l0 -0.546875l5.46875 0zm-3.6875 8.359377q-0.96875 -1.875 -2.390625 -1.875q-0.484375 0 -0.796875 0.265625q-0.484375 0.40625 -0.796875 1.4375q-0.3125 1.03125 -0.3125 3.140625q0 2.34375 0.34375 3.46875q0.34375 1.109375 0.9375 1.609375q0.296875 0.25 0.828125 0.25q1.15625 0 2.1875 -1.8125l0 -6.484375zm18.317123 -2.812502l0 2.796877q1.21875 -1.9062519 2.140625 -2.531252q0.921875 -0.640625 1.78125 -0.640625q0.734375 0 1.171875 0.46875q0.453125 0.453125 0.453125 1.2812519q0 0.875 -0.4375 1.375q-0.421875 0.484375 -1.03125 0.484375q-0.703125 0 -1.21875 -0.453125q-0.5 -0.453125 -0.59375 -0.5q-0.140625 -0.078125 -0.3125 -0.078125q-0.375 0 -0.71875 0.296875q-0.546875 0.4375 -0.8125 1.265625q-0.421875 1.28125 -0.421875 2.828125l0 2.828125l0 0.75q0 0.75 0.09375 0.953125q0.15625 0.359375 0.46875 0.53125q0.3125 0.15625 1.046875 0.203125l0 0.46875l-6.65625 0l0 -0.46875q0.8125 -0.078125 1.09375 -0.453125q0.28125 -0.375 0.28125 -1.984375l0 -6.8125q0 -1.046875 -0.109375 -1.34375q-0.125 -0.3750019 -0.375 -0.5312519q-0.25 -0.171875 -0.890625 -0.25l0 -0.484375l5.046875 0zm17.143814 5.718752l-6.75 0q0.109375 2.453125 1.296875 3.875q0.90625 1.09375 2.1875 1.09375q0.796875 0 1.4375 -0.4375q0.65625 -0.4375 1.390625 -1.59375l0.4375 0.296875q-1.0 2.046875 -2.21875 2.90625q-1.203125 0.84375 -2.796875 0.84375q-2.734375 0 -4.15625 -2.109375q-1.125 -1.703125 -1.125 -4.21875q0 -3.09375 1.65625 -4.921875q1.671875 -1.8281269 3.921875 -1.8281269q1.859375 0 3.234375 1.5468769q1.390625 1.53125 1.484375 4.546875zm-3.234375 -0.875q0 -2.125 -0.234375 -2.90625q-0.234375 -0.796875 -0.71875 -1.2187519q-0.28125 -0.234375 -0.734375 -0.234375q-0.6875 0 -1.125 0.6718769q-0.78125 1.171875 -0.78125 3.21875l0 0.46875l3.59375 0zm9.409439 6.234375l0 4.578125q0 0.953125 0.140625 1.296875q0.15625 0.34375 0.46875 0.5q0.328125 0.15625 1.25 0.15625l0 0.5l-7.03125 0l0 -0.5q0.8125 -0.015625 1.21875 -0.453125q0.25 -0.3125 0.25 -1.578125l0 -13.0q0 -1.3125 -0.296875 -1.6718769q-0.296875 -0.359375 -1.171875 -0.421875l0 -0.484375l5.171875 0l0 1.6250019q0.640625 -0.9531269 1.3125 -1.3750019q0.96875 -0.625 2.09375 -0.625q1.359375 0 2.46875 0.859375q1.125 0.8593769 1.703125 2.375002q0.578125 1.5 0.578125 3.25q0 1.875 -0.609375 3.421875q-0.59375 1.546875 -1.734375 2.359375q-1.140625 0.8125 -2.53125 0.8125q-1.015625 0 -1.90625 -0.453125q-0.65625 -0.34375 -1.375 -1.171875zm0 -1.328125q1.125 1.609375 2.421875 1.609375q0.703125 0 1.171875 -0.765625q0.6875 -1.09375 0.6875 -4.21875q0 -3.1875 -0.75 -4.359375q-0.5 -0.78125 -1.34375 -0.78125q-1.328125 0 -2.1875 1.9375l0 6.578125zm20.481186 -4.03125l-6.75 0q0.109375 2.453125 1.296875 3.875q0.90625 1.09375 2.1875 1.09375q0.796875 0 1.4375 -0.4375q0.65625 -0.4375 1.390625 -1.59375l0.4375 0.296875q-1.0 2.046875 -2.21875 2.90625q-1.203125 0.84375 -2.796875 0.84375q-2.734375 0 -4.15625 -2.109375q-1.125 -1.703125 -1.125 -4.21875q0 -3.09375 1.65625 -4.921875q1.671875 -1.8281269 3.921875 -1.8281269q1.859375 0 3.234375 1.5468769q1.390625 1.53125 1.484375 4.546875zm-3.234375 -0.875q0 -2.125 -0.234375 -2.90625q-0.234375 -0.796875 -0.71875 -1.2187519q-0.28125 -0.234375 -0.734375 -0.234375q-0.6875 0 -1.125 0.6718769q-0.78125 1.171875 -0.78125 3.21875l0 0.46875l3.59375 0zm9.753189 -4.843752l0 2.796877q1.21875 -1.9062519 2.140625 -2.531252q0.921875 -0.640625 1.78125 -0.640625q0.734375 0 1.171875 0.46875q0.453125 0.453125 0.453125 1.2812519q0 0.875 -0.4375 1.375q-0.421875 0.484375 -1.03125 0.484375q-0.703125 0 -1.21875 -0.453125q-0.5 -0.453125 -0.59375 -0.5q-0.140625 -0.078125 -0.3125 -0.078125q-0.375 0 -0.71875 0.296875q-0.546875 0.4375 -0.8125 1.265625q-0.421875 1.28125 -0.421875 2.828125l0 2.828125l0 0.75q0 0.75 0.09375 0.953125q0.15625 0.359375 0.46875 0.53125q0.3125 0.15625 1.046875 0.203125l0 0.46875l-6.65625 0l0 -0.46875q0.8125 -0.078125 1.09375 -0.453125q0.28125 -0.375 0.28125 -1.984375l0 -6.8125q0 -1.046875 -0.109375 -1.34375q-0.125 -0.3750019 -0.375 -0.5312519q-0.25 -0.171875 -0.890625 -0.25l0 -0.484375l5.046875 0zm11.596924 -4.5l0 4.5l2.9375 0l0 1.3125019l-2.9375 0l0 7.59375q0 1.078125 0.09375 1.390625q0.109375 0.296875 0.359375 0.5q0.25 0.1875 0.453125 0.1875q0.859375 0 1.625 -1.3125l0.40625 0.296875q-1.078125 2.53125 -3.46875 2.53125q-1.171875 0 -1.984375 -0.65625q-0.8125 -0.65625 -1.046875 -1.453125q-0.125 -0.453125 -0.125 -2.421875l0 -6.65625l-1.6093597 0l0 -0.4687519q1.6562347 -1.171875 2.8281097 -2.453125q1.171875 -1.296875 2.03125 -2.890625l0.4375 0zm9.7986145 4.125q1.609375 0 2.984375 0.84375q1.390625 0.8281269 2.109375 2.359377q0.71875 1.53125 0.71875 3.34375q0 2.625 -1.328125 4.390625q-1.609375 2.140625 -4.4375 2.140625q-2.78125 0 -4.296875 -1.953125q-1.5 -1.953125 -1.5 -4.53125q0 -2.640625 1.53125 -4.609375q1.546875 -1.9843769 4.21875 -1.9843769zm0.0625 0.9375q-0.671875 0 -1.15625 0.5156269q-0.484375 0.5 -0.640625 2.0q-0.140625 1.5 -0.140625 4.15625q0 1.421875 0.171875 2.640625q0.15625 0.9375 0.625 1.421875q0.484375 0.484375 1.078125 0.484375q0.59375 0 1.0 -0.328125q0.515625 -0.4375 0.671875 -1.25q0.265625 -1.25 0.265625 -5.0625q0 -2.234375 -0.25 -3.0625q-0.25 -0.84375 -0.734375 -1.2343769q-0.34375 -0.28125 -0.890625 -0.28125zm10.421875 -6.53125q0.859375 0 1.453125 0.609375q0.59375 0.59375 0.59375 1.4375q0 0.84375 -0.609375 1.4375q-0.59375 0.59375 -1.4375 0.59375q-0.84375 0 -1.4375 -0.59375q-0.59375 -0.59375 -0.59375 -1.4375q0 -0.84375 0.59375 -1.4375q0.59375 -0.609375 1.4375 -0.609375zm1.84375 5.96875l0 9.765627q0 1.3125 0.296875 1.671875q0.3125 0.359375 1.203125 0.421875l0 0.46875l-6.671875 0l0 -0.46875q0.828125 -0.03125 1.21875 -0.484375q0.265625 -0.296875 0.265625 -1.609375l0 -7.1875q0 -1.3125 -0.3125 -1.6718769q-0.296875 -0.359375 -1.171875 -0.421875l0 -0.484375l5.171875 0zm7.718445 0l0 2.796877q1.21875 -1.9062519 2.140625 -2.531252q0.921875 -0.640625 1.78125 -0.640625q0.734375 0 1.171875 0.46875q0.453125 0.453125 0.453125 1.2812519q0 0.875 -0.4375 1.375q-0.421875 0.484375 -1.03125 0.484375q-0.703125 0 -1.21875 -0.453125q-0.5 -0.453125 -0.59375 -0.5q-0.140625 -0.078125 -0.3125 -0.078125q-0.375 0 -0.71875 0.296875q-0.546875 0.4375 -0.8125 1.265625q-0.421875 1.28125 -0.421875 2.828125l0 2.828125l0 0.75q0 0.75 0.09375 0.953125q0.15625 0.359375 0.46875 0.53125q0.3125 0.15625 1.046875 0.203125l0 0.46875l-6.6562195 0l0 -0.46875q0.8125 -0.078125 1.09375 -0.453125q0.28125 -0.375 0.28125 -1.984375l0 -6.8125q0 -1.046875 -0.109375 -1.34375q-0.125 -0.3750019 -0.375 -0.5312519q-0.25 -0.171875 -0.890625 -0.25l0 -0.484375l5.0468445 0zm17.14383 5.718752l-6.75 0q0.109375 2.453125 1.296875 3.875q0.90625 1.09375 2.1875 1.09375q0.796875 0 1.4375 -0.4375q0.65625 -0.4375 1.390625 -1.59375l0.4375 0.296875q-1.0 2.046875 -2.21875 2.90625q-1.203125 0.84375 -2.796875 0.84375q-2.734375 0 -4.15625 -2.109375q-1.125 -1.703125 -1.125 -4.21875q0 -3.09375 1.65625 -4.921875q1.671875 -1.8281269 3.921875 -1.8281269q1.859375 0 3.234375 1.5468769q1.390625 1.53125 1.484375 4.546875zm-3.234375 -0.875q0 -2.125 -0.234375 -2.90625q-0.234375 -0.796875 -0.71875 -1.2187519q-0.28125 -0.234375 -0.734375 -0.234375q-0.6875 0 -1.125 0.6718769q-0.78125 1.171875 -0.78125 3.21875l0 0.46875l3.59375 0z" fill-rule="nonzero"></path><path fill="#000000" fill-opacity="0.0" d="m381.30972 16.543306l284.53543 0l0 34.519684l-284.53543 0z" fill-rule="evenodd"></path><path fill="#000000" d="m412.73553 35.262524l0 5.0q0 1.453125 0.171875 1.828125q0.1875 0.375 0.625 0.609375q0.453125 0.21875 1.6875 0.21875l0 0.484375l-9.15625 0l0 -0.484375q1.234375 0 1.671875 -0.234375q0.453125 -0.234375 0.625 -0.59375q0.1875 -0.375 0.1875 -1.828125l0 -11.593752q0 -1.453125 -0.1875 -1.828125q-0.171875 -0.375 -0.625 -0.59375q-0.4375 -0.234375 -1.671875 -0.234375l0 -0.484375l8.3125 0q3.234375 0 4.734375 0.453125q1.515625 0.4375 2.453125 1.65625q0.953125 1.203125 0.953125 2.8125q0 1.9843769 -1.421875 3.281252q-0.90625 0.8125 -2.546875 1.21875l4.296875 6.046875q0.84375 1.1875 1.203125 1.46875q0.546875 0.40625 1.25 0.453125l0 0.484375l-5.625 0l-5.765625 -8.140625l-1.171875 0zm0 -8.781252l0 7.843752l0.75 0q1.828125 0 2.734375 -0.328125q0.921875 -0.34375 1.4375 -1.21875q0.515625 -0.8906269 0.515625 -2.296877q0 -2.046875 -0.953125 -3.015625q-0.953125 -0.984375 -3.078125 -0.984375l-1.40625 0zm23.42215 10.312502l-6.75 0q0.109375 2.453125 1.296875 3.875q0.90625 1.09375 2.1875 1.09375q0.796875 0 1.4375 -0.4375q0.65625 -0.4375 1.390625 -1.59375l0.4375 0.296875q-1.0 2.046875 -2.21875 2.90625q-1.203125 0.84375 -2.796875 0.84375q-2.734375 0 -4.15625 -2.109375q-1.125 -1.703125 -1.125 -4.21875q0 -3.09375 1.65625 -4.921875q1.671875 -1.8281269 3.921875 -1.8281269q1.859375 0 3.234375 1.5468769q1.390625 1.53125 1.484375 4.546875zm-3.234375 -0.875q0 -2.125 -0.234375 -2.90625q-0.234375 -0.796875 -0.71875 -1.2187519q-0.28125 -0.234375 -0.734375 -0.234375q-0.6875 0 -1.125 0.6718769q-0.78125 1.171875 -0.78125 3.21875l0 0.46875l3.59375 0zm10.034454 -3.546875l0 8.546875q0 1.25 0.265625 1.5625q0.421875 0.484375 1.5625 0.453125l0 0.46875l-7.265625 0l0 -0.46875q0.828125 -0.015625 1.171875 -0.1875q0.359375 -0.1875 0.484375 -0.5q0.125 -0.328125 0.125 -1.328125l0 -8.546875l-1.78125 0l0 -1.2968769l1.78125 0l0 -0.90625l0 -0.625q0 -1.890625 1.390625 -3.15625q1.390625 -1.265625 3.765625 -1.265625q1.609375 0 2.390625 0.609375q0.796875 0.59375 0.796875 1.34375q0 0.59375 -0.5 1.03125q-0.484375 0.421875 -1.28125 0.421875q-0.6875 0 -1.09375 -0.34375q-0.40625 -0.359375 -0.40625 -0.796875q0 -0.125 0.09375 -0.484375q0.046875 -0.234375 0.046875 -0.421875q0 -0.28125 -0.15625 -0.421875q-0.21875 -0.1875 -0.515625 -0.1875q-0.390625 0 -0.65625 0.3125q-0.25 0.3125 -0.25 1.015625l0.03125 2.3125l0 1.5625l1.828125 0l0 1.2968769l-1.828125 0zm13.9079895 4.421875l-6.75 0q0.109375 2.453125 1.296875 3.875q0.90625 1.09375 2.1875 1.09375q0.796875 0 1.4375 -0.4375q0.65625 -0.4375 1.390625 -1.59375l0.4375 0.296875q-1.0 2.046875 -2.21875 2.90625q-1.203125 0.84375 -2.796875 0.84375q-2.734375 0 -4.15625 -2.109375q-1.125 -1.703125 -1.125 -4.21875q0 -3.09375 1.65625 -4.921875q1.671875 -1.8281269 3.921875 -1.8281269q1.859375 0 3.234375 1.5468769q1.390625 1.53125 1.484375 4.546875zm-3.234375 -0.875q0 -2.125 -0.234375 -2.90625q-0.234375 -0.796875 -0.71875 -1.2187519q-0.28125 -0.234375 -0.734375 -0.234375q-0.6875 0 -1.125 0.6718769q-0.78125 1.171875 -0.78125 3.21875l0 0.46875l3.59375 0zm9.753174 -4.843752l0 2.796877q1.21875 -1.9062519 2.140625 -2.531252q0.921875 -0.640625 1.78125 -0.640625q0.734375 0 1.171875 0.46875q0.453125 0.453125 0.453125 1.2812519q0 0.875 -0.4375 1.375q-0.421875 0.484375 -1.03125 0.484375q-0.703125 0 -1.21875 -0.453125q-0.5 -0.453125 -0.59375 -0.5q-0.140625 -0.078125 -0.3125 -0.078125q-0.375 0 -0.71875 0.296875q-0.546875 0.4375 -0.8125 1.265625q-0.421875 1.28125 -0.421875 2.828125l0 2.828125l0 0.75q0 0.75 0.09375 0.953125q0.15625 0.359375 0.46875 0.53125q0.3125 0.15625 1.046875 0.203125l0 0.46875l-6.65625 0l0 -0.46875q0.8125 -0.078125 1.09375 -0.453125q0.28125 -0.375 0.28125 -1.984375l0 -6.8125q0 -1.046875 -0.109375 -1.34375q-0.125 -0.3750019 -0.375 -0.5312519q-0.25 -0.171875 -0.890625 -0.25l0 -0.484375l5.046875 0zm17.14383 5.718752l-6.75 0q0.109375 2.453125 1.296875 3.875q0.90625 1.09375 2.1875 1.09375q0.796875 0 1.4375 -0.4375q0.65625 -0.4375 1.390625 -1.59375l0.4375 0.296875q-1.0 2.046875 -2.21875 2.90625q-1.203125 0.84375 -2.796875 0.84375q-2.734375 0 -4.15625 -2.109375q-1.125 -1.703125 -1.125 -4.21875q0 -3.09375 1.65625 -4.921875q1.671875 -1.8281269 3.921875 -1.8281269q1.859375 0 3.234375 1.5468769q1.390625 1.53125 1.484375 4.546875zm-3.234375 -0.875q0 -2.125 -0.234375 -2.90625q-0.234375 -0.796875 -0.71875 -1.2187519q-0.28125 -0.234375 -0.734375 -0.234375q-0.6875 0 -1.125 0.6718769q-0.78125 1.171875 -0.78125 3.21875l0 0.46875l3.59375 0zm9.675049 -4.843752l0 1.5937519q0.9375 -1.0312519 1.8125 -1.5000019q0.875 -0.46875 1.875 -0.46875q1.203125 0 1.984375 0.671875q0.796875 0.6718769 1.0625 1.6562519q0.203125 0.75 0.203125 2.890625l0 4.796875q0 1.421875 0.25 1.78125q0.265625 0.34375 1.078125 0.4375l0 0.46875l-6.234375 0l0 -0.46875q0.703125 -0.09375 1.0 -0.59375q0.21875 -0.328125 0.21875 -1.625l0 -5.484375q0 -1.515625 -0.125 -1.90625q-0.109375 -0.40625 -0.40625 -0.625q-0.28125 -0.21875 -0.609375 -0.21875q-1.140625 0 -2.109375 1.625l0 6.609375q0 1.375 0.25 1.75q0.25 0.375 0.953125 0.46875l0 0.46875l-6.234375 0l0 -0.46875q0.78125 -0.078125 1.109375 -0.5q0.21875 -0.296875 0.21875 -1.71875l0 -6.96875q0 -1.390625 -0.265625 -1.734375q-0.25 -0.3437519 -1.0625 -0.4531269l0 -0.484375l5.03125 0zm19.840576 9.156252l0.40625 0.3125q-0.875 1.640625 -2.171875 2.4375q-1.296875 0.796875 -2.75 0.796875q-2.46875 0 -3.953125 -1.859375q-1.46875 -1.859375 -1.46875 -4.46875q0 -2.53125 1.34375 -4.4375q1.625 -2.312502 4.46875 -2.312502q1.90625 0 3.03125 0.96875q1.140625 0.9687519 1.140625 2.156252q0 0.75 -0.46875 1.203125q-0.453125 0.4375 -1.1875 0.4375q-0.78125 0 -1.296875 -0.515625q-0.5 -0.515625 -0.609375 -1.828125q-0.078125 -0.828125 -0.390625 -1.1562519q-0.296875 -0.328125 -0.703125 -0.328125q-0.640625 0 -1.078125 0.6718769q-0.6875 1.015625 -0.6875 3.109375q0 1.734375 0.546875 3.328125q0.5625 1.578125 1.515625 2.359375q0.734375 0.5625 1.71875 0.5625q0.640625 0 1.21875 -0.296875q0.578125 -0.296875 1.375 -1.140625zm12.206299 -3.4375l-6.75 0q0.109375 2.453125 1.296875 3.875q0.90625 1.09375 2.1875 1.09375q0.796875 0 1.4375 -0.4375q0.65625 -0.4375 1.390625 -1.59375l0.4375 0.296875q-1.0 2.046875 -2.21875 2.90625q-1.203125 0.84375 -2.796875 0.84375q-2.734375 0 -4.15625 -2.109375q-1.125 -1.703125 -1.125 -4.21875q0 -3.09375 1.65625 -4.921875q1.671875 -1.8281269 3.921875 -1.8281269q1.859375 0 3.234375 1.5468769q1.390625 1.53125 1.484375 4.546875zm-3.234375 -0.875q0 -2.125 -0.234375 -2.90625q-0.234375 -0.796875 -0.71875 -1.2187519q-0.28125 -0.234375 -0.734375 -0.234375q-0.6875 0 -1.125 0.6718769q-0.78125 1.171875 -0.78125 3.21875l0 0.46875l3.59375 0zm16.417236 -4.843752l0 2.796877q1.21875 -1.9062519 2.140625 -2.531252q0.921875 -0.640625 1.78125 -0.640625q0.734375 0 1.171875 0.46875q0.453125 0.453125 0.453125 1.2812519q0 0.875 -0.4375 1.375q-0.421875 0.484375 -1.03125 0.484375q-0.703125 0 -1.21875 -0.453125q-0.5 -0.453125 -0.59375 -0.5q-0.140625 -0.078125 -0.3125 -0.078125q-0.375 0 -0.71875 0.296875q-0.546875 0.4375 -0.8125 1.265625q-0.421875 1.28125 -0.421875 2.828125l0 2.828125l0 0.75q0 0.75 0.09375 0.953125q0.15625 0.359375 0.46875 0.53125q0.3125 0.15625 1.046875 0.203125l0 0.46875l-6.65625 0l0 -0.46875q0.8125 -0.078125 1.09375 -0.453125q0.28125 -0.375 0.28125 -1.984375l0 -6.8125q0 -1.046875 -0.109375 -1.34375q-0.125 -0.3750019 -0.375 -0.5312519q-0.25 -0.171875 -0.890625 -0.25l0 -0.484375l5.046875 0zm17.14386 5.718752l-6.75 0q0.109375 2.453125 1.296875 3.875q0.90625 1.09375 2.1875 1.09375q0.796875 0 1.4375 -0.4375q0.65625 -0.4375 1.390625 -1.59375l0.4375 0.296875q-1.0 2.046875 -2.21875 2.90625q-1.203125 0.84375 -2.796875 0.84375q-2.734375 0 -4.15625 -2.109375q-1.125 -1.703125 -1.125 -4.21875q0 -3.09375 1.65625 -4.921875q1.671875 -1.8281269 3.921875 -1.8281269q1.859375 0 3.234375 1.5468769q1.390625 1.53125 1.484375 4.546875zm-3.234375 -0.875q0 -2.125 -0.234375 -2.90625q-0.234375 -0.796875 -0.71875 -1.2187519q-0.28125 -0.234375 -0.734375 -0.234375q-0.6875 0 -1.125 0.6718769q-0.78125 1.171875 -0.78125 3.21875l0 0.46875l3.59375 0zm9.409424 6.234375l0 4.578125q0 0.953125 0.140625 1.296875q0.15625 0.34375 0.46875 0.5q0.328125 0.15625 1.25 0.15625l0 0.5l-7.03125 0l0 -0.5q0.8125 -0.015625 1.21875 -0.453125q0.25 -0.3125 0.25 -1.578125l0 -13.0q0 -1.3125 -0.296875 -1.6718769q-0.296875 -0.359375 -1.171875 -0.421875l0 -0.484375l5.171875 0l0 1.6250019q0.640625 -0.9531269 1.3125 -1.3750019q0.96875 -0.625 2.09375 -0.625q1.359375 0 2.46875 0.859375q1.125 0.8593769 1.703125 2.375002q0.578125 1.5 0.578125 3.25q0 1.875 -0.609375 3.421875q-0.59375 1.546875 -1.734375 2.359375q-1.140625 0.8125 -2.53125 0.8125q-1.015625 0 -1.90625 -0.453125q-0.65625 -0.34375 -1.375 -1.171875zm0 -1.328125q1.125 1.609375 2.421875 1.609375q0.703125 0 1.171875 -0.765625q0.6875 -1.09375 0.6875 -4.21875q0 -3.1875 -0.75 -4.359375q-0.5 -0.78125 -1.34375 -0.78125q-1.328125 0 -2.1875 1.9375l0 6.578125zm20.481201 -4.03125l-6.75 0q0.109375 2.453125 1.296875 3.875q0.90625 1.09375 2.1875 1.09375q0.796875 0 1.4375 -0.4375q0.65625 -0.4375 1.390625 -1.59375l0.4375 0.296875q-1.0 2.046875 -2.21875 2.90625q-1.203125 0.84375 -2.796875 0.84375q-2.734375 0 -4.15625 -2.109375q-1.125 -1.703125 -1.125 -4.21875q0 -3.09375 1.65625 -4.921875q1.671875 -1.8281269 3.921875 -1.8281269q1.859375 0 3.234375 1.5468769q1.390625 1.53125 1.484375 4.546875zm-3.234375 -0.875q0 -2.125 -0.234375 -2.90625q-0.234375 -0.796875 -0.71875 -1.2187519q-0.28125 -0.234375 -0.734375 -0.234375q-0.6875 0 -1.125 0.6718769q-0.78125 1.171875 -0.78125 3.21875l0 0.46875l3.59375 0zm9.753174 -4.843752l0 2.796877q1.21875 -1.9062519 2.140625 -2.531252q0.921875 -0.640625 1.78125 -0.640625q0.734375 0 1.171875 0.46875q0.453125 0.453125 0.453125 1.2812519q0 0.875 -0.4375 1.375q-0.421875 0.484375 -1.03125 0.484375q-0.703125 0 -1.21875 -0.453125q-0.5 -0.453125 -0.59375 -0.5q-0.140625 -0.078125 -0.3125 -0.078125q-0.375 0 -0.71875 0.296875q-0.546875 0.4375 -0.8125 1.265625q-0.421875 1.28125 -0.421875 2.828125l0 2.828125l0 0.75q0 0.75 0.09375 0.953125q0.15625 0.359375 0.46875 0.53125q0.3125 0.15625 1.046875 0.203125l0 0.46875l-6.65625 0l0 -0.46875q0.8125 -0.078125 1.09375 -0.453125q0.28125 -0.375 0.28125 -1.984375l0 -6.8125q0 -1.046875 -0.109375 -1.34375q-0.125 -0.3750019 -0.375 -0.5312519q-0.25 -0.171875 -0.890625 -0.25l0 -0.484375l5.046875 0zm11.596924 -4.5l0 4.5l2.9375 0l0 1.3125019l-2.9375 0l0 7.59375q0 1.078125 0.09375 1.390625q0.109375 0.296875 0.359375 0.5q0.25 0.1875 0.453125 0.1875q0.859375 0 1.625 -1.3125l0.40625 0.296875q-1.078125 2.53125 -3.46875 2.53125q-1.171875 0 -1.984375 -0.65625q-0.8125 -0.65625 -1.046875 -1.453125q-0.125 -0.453125 -0.125 -2.421875l0 -6.65625l-1.609375 0l0 -0.4687519q1.65625 -1.171875 2.828125 -2.453125q1.171875 -1.296875 2.03125 -2.890625l0.4375 0zm9.798645 4.125q1.609375 0 2.984375 0.84375q1.390625 0.8281269 2.109375 2.359377q0.71875 1.53125 0.71875 3.34375q0 2.625 -1.328125 4.390625q-1.609375 2.140625 -4.4375 2.140625q-2.78125 0 -4.296875 -1.953125q-1.5 -1.953125 -1.5 -4.53125q0 -2.640625 1.53125 -4.609375q1.546875 -1.9843769 4.21875 -1.9843769zm0.0625 0.9375q-0.671875 0 -1.15625 0.5156269q-0.484375 0.5 -0.640625 2.0q-0.140625 1.5 -0.140625 4.15625q0 1.421875 0.171875 2.640625q0.15625 0.9375 0.625 1.421875q0.484375 0.484375 1.078125 0.484375q0.59375 0 1.0 -0.328125q0.515625 -0.4375 0.671875 -1.25q0.265625 -1.25 0.265625 -5.0625q0 -2.234375 -0.25 -3.0625q-0.25 -0.84375 -0.734375 -1.2343769q-0.34375 -0.28125 -0.890625 -0.28125zm10.421875 -6.53125q0.859375 0 1.453125 0.609375q0.59375 0.59375 0.59375 1.4375q0 0.84375 -0.609375 1.4375q-0.59375 0.59375 -1.4375 0.59375q-0.84375 0 -1.4375 -0.59375q-0.59375 -0.59375 -0.59375 -1.4375q0 -0.84375 0.59375 -1.4375q0.59375 -0.609375 1.4375 -0.609375zm1.84375 5.96875l0 9.765627q0 1.3125 0.296875 1.671875q0.3125 0.359375 1.203125 0.421875l0 0.46875l-6.671875 0l0 -0.46875q0.828125 -0.03125 1.21875 -0.484375q0.265625 -0.296875 0.265625 -1.609375l0 -7.1875q0 -1.3125 -0.3125 -1.6718769q-0.296875 -0.359375 -1.171875 -0.421875l0 -0.484375l5.171875 0zm7.718445 0l0 2.796877q1.21875 -1.9062519 2.140625 -2.531252q0.921875 -0.640625 1.78125 -0.640625q0.734375 0 1.171875 0.46875q0.453125 0.453125 0.453125 1.2812519q0 0.875 -0.4375 1.375q-0.421875 0.484375 -1.03125 0.484375q-0.703125 0 -1.21875 -0.453125q-0.5 -0.453125 -0.59375 -0.5q-0.140625 -0.078125 -0.3125 -0.078125q-0.375 0 -0.71875 0.296875q-0.546875 0.4375 -0.8125 1.265625q-0.421875 1.28125 -0.421875 2.828125l0 2.828125l0 0.75q0 0.75 0.09375 0.953125q0.15625 0.359375 0.46875 0.53125q0.3125 0.15625 1.046875 0.203125l0 0.46875l-6.65625 0l0 -0.46875q0.8125 -0.078125 1.09375 -0.453125q0.28125 -0.375 0.28125 -1.984375l0 -6.8125q0 -1.046875 -0.109375 -1.34375q-0.125 -0.3750019 -0.375 -0.5312519q-0.25 -0.171875 -0.890625 -0.25l0 -0.484375l5.046875 0zm17.143799 5.718752l-6.75 0q0.109375 2.453125 1.296875 3.875q0.90625 1.09375 2.1875 1.09375q0.796875 0 1.4375 -0.4375q0.65625 -0.4375 1.390625 -1.59375l0.4375 0.296875q-1.0 2.046875 -2.21875 2.90625q-1.203125 0.84375 -2.796875 0.84375q-2.734375 0 -4.15625 -2.109375q-1.125 -1.703125 -1.125 -4.21875q0 -3.09375 1.65625 -4.921875q1.671875 -1.8281269 3.921875 -1.8281269q1.859375 0 3.234375 1.5468769q1.390625 1.53125 1.484375 4.546875zm-3.234375 -0.875q0 -2.125 -0.234375 -2.90625q-0.234375 -0.796875 -0.71875 -1.2187519q-0.28125 -0.234375 -0.734375 -0.234375q-0.6875 0 -1.125 0.6718769q-0.78125 1.171875 -0.78125 3.21875l0 0.46875l3.59375 0z" fill-rule="nonzero"></path><path fill="#000000" fill-opacity="0.0" d="m318.7139 131.03018l62.582703 -27.748032" fill-rule="evenodd"></path><path stroke="#000000" stroke-width="3.0" stroke-linejoin="round" stroke-linecap="butt" d="m328.11273 126.862915l43.785034 -19.41349" fill-rule="evenodd"></path><path fill="#000000" stroke="#000000" stroke-width="3.0" stroke-linecap="butt" d="m328.11273 126.86291l1.7167358 -4.45166l-7.106262 6.8412857l9.841217 -0.6729126z" fill-rule="evenodd"></path><path fill="#000000" stroke="#000000" stroke-width="3.0" stroke-linecap="butt" d="m371.89777 107.449425l-1.7167358 4.45166l7.106262 -6.8412857l-9.841187 0.6729126z" fill-rule="evenodd"></path><path fill="#000000" fill-opacity="0.0" d="m318.68503 229.21391l62.614197 -76.69292" fill-rule="evenodd"></path><path stroke="#000000" stroke-width="3.0" stroke-linejoin="round" stroke-linecap="butt" d="m325.18716 221.24982l49.609955 -60.76471" fill-rule="evenodd"></path><path fill="#000000" stroke="#000000" stroke-width="3.0" stroke-linecap="butt" d="m325.18713 221.24982l-0.47973633 -4.7470245l-3.2487488 9.313843l8.475525 -5.04657z" fill-rule="evenodd"></path><path fill="#000000" stroke="#000000" stroke-width="3.0" stroke-linecap="butt" d="m374.79712 160.48509l0.47973633 4.7470245l3.2487488 -9.313843l-8.475525 5.04657z" fill-rule="evenodd"></path><path fill="#000000" fill-opacity="0.0" d="m318.7139 278.16403l62.582703 -27.559052" fill-rule="evenodd"></path><path stroke="#000000" stroke-width="3.0" stroke-linejoin="round" stroke-linecap="butt" d="m328.12323 274.02054l43.764038 -19.272034" fill-rule="evenodd"></path><path fill="#000000" stroke="#000000" stroke-width="3.0" stroke-linecap="butt" d="m328.12323 274.02054l1.7279663 -4.4473267l-7.1235046 6.8233337l9.842865 -0.6480713z" fill-rule="evenodd"></path><path fill="#000000" stroke="#000000" stroke-width="3.0" stroke-linecap="butt" d="m371.88727 254.7485l-1.7279663 4.447296l7.1235046 -6.823303l-9.842865 0.64805603z" fill-rule="evenodd"></path><path fill="#000000" fill-opacity="0.0" d="m318.7139 376.0643l62.582703 -76.44095" fill-rule="evenodd"></path><path stroke="#000000" stroke-width="3.0" stroke-linejoin="round" stroke-linecap="butt" d="m325.2269 368.1091l49.5567 -60.530518" fill-rule="evenodd"></path><path fill="#000000" stroke="#000000" stroke-width="3.0" stroke-linecap="butt" d="m325.2269 368.1091l-0.4732666 -4.7476807l-3.2614746 9.309418l8.482422 -5.0350037z" fill-rule="evenodd"></path><path fill="#000000" stroke="#000000" stroke-width="3.0" stroke-linecap="butt" d="m374.7836 307.57858l0.4732666 4.74765l3.2614746 -9.309387l-8.482422 5.034973z" fill-rule="evenodd"></path><path fill="#93c47d" d="m156.25722 457.83203l40.37796 0l0 40.37793l-40.37796 0z" fill-rule="evenodd"></path><path stroke="#000000" stroke-width="1.0" stroke-linejoin="round" stroke-linecap="butt" d="m156.25722 457.83203l40.37796 0l0 40.37793l-40.37796 0z" fill-rule="evenodd"></path><path fill="#000000" fill-opacity="0.0" d="m90.14698 512.7087l172.59842 0" fill-rule="evenodd"></path><path stroke="#000000" stroke-width="3.0" stroke-linejoin="round" stroke-linecap="butt" d="m90.14698 512.7087l172.59842 0" fill-rule="evenodd"></path><path fill="#93c47d" d="m94.850395 524.5748l40.377953 0l0 40.37793l-40.377953 0z" fill-rule="evenodd"></path><path stroke="#000000" stroke-width="1.0" stroke-linejoin="round" stroke-linecap="butt" d="m94.850395 524.5748l40.377953 0l0 40.37793l-40.377953 0z" fill-rule="evenodd"></path><path fill="#e06666" d="m217.66405 524.5748l40.377945 0l0 40.37793l-40.377945 0z" fill-rule="evenodd"></path><path stroke="#000000" stroke-width="1.0" stroke-linejoin="round" stroke-linecap="butt" d="m217.66405 524.5748l40.377945 0l0 40.37793l-40.377945 0z" fill-rule="evenodd"></path><path fill="#cfe2f3" d="m158.44983 545.72205l17.638351 0l0 -17.661499l0.71603394 0l0 17.661499l17.638351 0l0 0.7160034l-17.638351 0l0 17.661499l-0.71603394 0l0 -17.661499l-17.638351 0z" fill-rule="evenodd"></path><path stroke="#000000" stroke-width="1.0" stroke-linejoin="round" stroke-linecap="butt" d="m158.44983 545.72205l17.638351 0l0 -17.661499l0.71603394 0l0 17.661499l17.638351 0l0 0.7160034l-17.638351 0l0 17.661499l-0.71603394 0l0 -17.661499l-17.638351 0z" fill-rule="evenodd"></path><path fill="#93c47d" d="m503.38846 456.32416l40.37796 0l0 40.37793l-40.37796 0z" fill-rule="evenodd"></path><path stroke="#000000" stroke-width="1.0" stroke-linejoin="round" stroke-linecap="butt" d="m503.38846 456.32416l40.37796 0l0 40.37793l-40.37796 0z" fill-rule="evenodd"></path><path fill="#000000" fill-opacity="0.0" d="m437.27823 511.20078l172.59842 0" fill-rule="evenodd"></path><path stroke="#000000" stroke-width="3.0" stroke-linejoin="round" stroke-linecap="butt" d="m437.27823 511.20078l172.59842 0" fill-rule="evenodd"></path><path fill="#93c47d" d="m441.98163 523.06696l40.37796 0l0 40.37793l-40.37796 0z" fill-rule="evenodd"></path><path stroke="#000000" stroke-width="1.0" stroke-linejoin="round" stroke-linecap="butt" d="m441.98163 523.06696l40.37796 0l0 40.37793l-40.37796 0z" fill-rule="evenodd"></path><path fill="#6d9eeb" d="m564.7953 523.06696l40.37793 0l0 40.37793l-40.37793 0z" fill-rule="evenodd"></path><path stroke="#000000" stroke-width="1.0" stroke-linejoin="round" stroke-linecap="butt" d="m564.7953 523.06696l40.37793 0l0 40.37793l-40.37793 0z" fill-rule="evenodd"></path><path fill="#000000" fill-opacity="0.0" d="m34.149605 413.5748l284.53543 0l0 34.519684l-284.53543 0z" fill-rule="evenodd"></path><path fill="#000000" d="m126.71824 432.34088l0 4.953125q0 1.453125 0.171875 1.828125q0.171875 0.375 0.625 0.609375q0.46875 0.21875 1.6718826 0.21875l0 0.484375l-9.078133 0l0 -0.484375q1.234375 0 1.671875 -0.234375q0.453125 -0.234375 0.625 -0.59375q0.1875 -0.375 0.1875 -1.828125l0 -11.59375q0 -1.453125 -0.1875 -1.828125q-0.171875 -0.375 -0.625 -0.59375q-0.453125 -0.234375 -1.671875 -0.234375l0 -0.484375l7.796875 0q3.8437576 0 5.5156326 1.375q1.671875 1.359375 1.671875 3.421875q0 1.734375 -1.078125 2.984375q-1.078125 1.234375 -2.984375 1.6875q-1.265625 0.3125 -4.3125076 0.3125zm0 -8.75l0 7.71875q0.421875 0.03125 0.65625 0.03125q1.6093826 0 2.4687576 -0.953125q0.875 -0.96875 0.875 -2.96875q0 -1.984375 -0.875 -2.90625q-0.859375 -0.921875 -2.5937576 -0.921875l-0.53125 0zm15.017082 4.515625l0 2.796875q1.21875 -1.90625 2.140625 -2.53125q0.921875 -0.640625 1.78125 -0.640625q0.734375 0 1.171875 0.46875q0.453125 0.453125 0.453125 1.28125q0 0.875 -0.4375 1.375q-0.421875 0.484375 -1.03125 0.484375q-0.703125 0 -1.21875 -0.453125q-0.5 -0.453125 -0.59375 -0.5q-0.140625 -0.078125 -0.3125 -0.078125q-0.375 0 -0.71875 0.296875q-0.546875 0.4375 -0.8125 1.265625q-0.421875 1.28125 -0.421875 2.828125l0 2.828125l0 0.75q0 0.75 0.09375 0.953125q0.15625 0.359375 0.46875 0.53125q0.3125 0.15625 1.046875 0.203125l0 0.46875l-6.65625 0l0 -0.46875q0.8125 -0.078125 1.09375 -0.453125q0.28125 -0.375 0.28125 -1.984375l0 -6.8125q0 -1.046875 -0.109375 -1.34375q-0.125 -0.375 -0.375 -0.53125q-0.25 -0.171875 -0.890625 -0.25l0 -0.484375l5.046875 0zm17.143814 5.71875l-6.75 0q0.109375 2.453125 1.296875 3.875q0.90625 1.09375 2.1875 1.09375q0.796875 0 1.4375 -0.4375q0.65625 -0.4375 1.390625 -1.59375l0.4375 0.296875q-1.0 2.046875 -2.21875 2.90625q-1.203125 0.84375 -2.796875 0.84375q-2.734375 0 -4.15625 -2.109375q-1.125 -1.703125 -1.125 -4.21875q0 -3.09375 1.65625 -4.921875q1.671875 -1.828125 3.921875 -1.828125q1.859375 0 3.234375 1.546875q1.390625 1.53125 1.484375 4.546875zm-3.234375 -0.875q0 -2.125 -0.234375 -2.90625q-0.234375 -0.796875 -0.71875 -1.21875q-0.28125 -0.234375 -0.734375 -0.234375q-0.6875 0 -1.125 0.671875q-0.78125 1.171875 -0.78125 3.21875l0 0.46875l3.59375 0zm14.690689 4.3125l0.40625 0.3125q-0.875 1.640625 -2.171875 2.4375q-1.296875 0.796875 -2.75 0.796875q-2.46875 0 -3.953125 -1.859375q-1.46875 -1.859375 -1.46875 -4.46875q0 -2.53125 1.34375 -4.4375q1.625 -2.3125 4.46875 -2.3125q1.90625 0 3.03125 0.96875q1.140625 0.96875 1.140625 2.15625q0 0.75 -0.46875 1.203125q-0.453125 0.4375 -1.1875 0.4375q-0.78125 0 -1.296875 -0.515625q-0.5 -0.515625 -0.609375 -1.828125q-0.078125 -0.828125 -0.390625 -1.15625q-0.296875 -0.328125 -0.703125 -0.328125q-0.640625 0 -1.078125 0.671875q-0.6875 1.015625 -0.6875 3.109375q0 1.734375 0.546875 3.328125q0.5625 1.578125 1.515625 2.359375q0.734375 0.5625 1.71875 0.5625q0.640625 0 1.21875 -0.296875q0.578125 -0.296875 1.375 -1.140625zm4.737564 -15.125q0.859375 0 1.453125 0.609375q0.59375 0.59375 0.59375 1.4375q0 0.84375 -0.609375 1.4375q-0.59375 0.59375 -1.4375 0.59375q-0.84375 0 -1.4375 -0.59375q-0.59375 -0.59375 -0.59375 -1.4375q0 -0.84375 0.59375 -1.4375q0.59375 -0.609375 1.4375 -0.609375zm1.84375 5.96875l0 9.765625q0 1.3125 0.296875 1.671875q0.3125 0.359375 1.203125 0.421875l0 0.46875l-6.671875 0l0 -0.46875q0.828125 -0.03125 1.21875 -0.484375q0.265625 -0.296875 0.265625 -1.609375l0 -7.1875q0 -1.3125 -0.3125 -1.671875q-0.296875 -0.359375 -1.171875 -0.421875l0 -0.484375l5.171875 0zm10.390335 -0.34375l0.203125 4.203125l-0.453125 0q-0.8125 -1.875 -1.671875 -2.546875q-0.859375 -0.6875 -1.71875 -0.6875q-0.546875 0 -0.9375 0.359375q-0.375 0.359375 -0.375 0.84375q0 0.34375 0.265625 0.671875q0.421875 0.546875 2.359375 1.859375q1.9375 1.3125 2.546875 2.234375q0.625 0.90625 0.625 2.046875q0 1.03125 -0.515625 2.015625q-0.515625 0.984375 -1.453125 1.515625q-0.9375 0.53125 -2.0625 0.53125q-0.890625 0 -2.359375 -0.5625q-0.40625 -0.140625 -0.546875 -0.140625q-0.4375 0 -0.71875 0.65625l-0.4375 0l-0.21875 -4.421875l0.453125 0q0.59375 1.734375 1.625 2.609375q1.03125 0.859375 1.96875 0.859375q0.625 0 1.015625 -0.375q0.40625 -0.390625 0.40625 -0.953125q0 -0.625 -0.390625 -1.078125q-0.390625 -0.46875 -1.765625 -1.40625q-2.015625 -1.40625 -2.609375 -2.140625q-0.875 -1.078125 -0.875 -2.390625q0 -1.421875 0.984375 -2.578125q0.984375 -1.15625 2.84375 -1.15625q1.0 0 1.9375 0.5q0.359375 0.1875 0.578125 0.1875q0.234375 0 0.375 -0.09375q0.15625 -0.09375 0.46875 -0.5625l0.453125 0zm5.5454254 -5.625q0.859375 0 1.453125 0.609375q0.59375 0.59375 0.59375 1.4375q0 0.84375 -0.609375 1.4375q-0.59375 0.59375 -1.4375 0.59375q-0.84375 0 -1.4375 -0.59375q-0.59375 -0.59375 -0.59375 -1.4375q0 -0.84375 0.59375 -1.4375q0.59375 -0.609375 1.4375 -0.609375zm1.84375 5.96875l0 9.765625q0 1.3125 0.296875 1.671875q0.3125 0.359375 1.203125 0.421875l0 0.46875l-6.671875 0l0 -0.46875q0.828125 -0.03125 1.21875 -0.484375q0.265625 -0.296875 0.265625 -1.609375l0 -7.1875q0 -1.3125 -0.3125 -1.671875q-0.296875 -0.359375 -1.171875 -0.421875l0 -0.484375l5.171875 0zm8.40596 -0.375q1.609375 0 2.984375 0.84375q1.390625 0.828125 2.109375 2.359375q0.71875 1.53125 0.71875 3.34375q0 2.625 -1.328125 4.390625q-1.609375 2.140625 -4.4375 2.140625q-2.78125 0 -4.296875 -1.953125q-1.5 -1.953125 -1.5 -4.53125q0 -2.640625 1.53125 -4.609375q1.546875 -1.984375 4.21875 -1.984375zm0.0625 0.9375q-0.671875 0 -1.15625 0.515625q-0.484375 0.5 -0.640625 2.0q-0.140625 1.5 -0.140625 4.15625q0 1.421875 0.171875 2.640625q0.15625 0.9375 0.625 1.421875q0.484375 0.484375 1.078125 0.484375q0.59375 0 1.0 -0.328125q0.515625 -0.4375 0.671875 -1.25q0.265625 -1.25 0.265625 -5.0625q0 -2.234375 -0.25 -3.0625q-0.25 -0.84375 -0.734375 -1.234375q-0.34375 -0.28125 -0.890625 -0.28125zm12.5 -0.5625l0 1.59375q0.9375 -1.03125 1.8125 -1.5q0.875 -0.46875 1.875 -0.46875q1.203125 0 1.984375 0.671875q0.796875 0.671875 1.0625 1.65625q0.203125 0.75 0.203125 2.890625l0 4.796875q0 1.421875 0.25 1.78125q0.265625 0.34375 1.078125 0.4375l0 0.46875l-6.234375 0l0 -0.46875q0.703125 -0.09375 1.0 -0.59375q0.21875 -0.328125 0.21875 -1.625l0 -5.484375q0 -1.515625 -0.125 -1.90625q-0.109375 -0.40625 -0.40625 -0.625q-0.28125 -0.21875 -0.609375 -0.21875q-1.140625 0 -2.109375 1.625l0 6.609375q0 1.375 0.25 1.75q0.25 0.375 0.953125 0.46875l0 0.46875l-6.234375 0l0 -0.46875q0.78125 -0.078125 1.109375 -0.5q0.21875 -0.296875 0.21875 -1.71875l0 -6.96875q0 -1.390625 -0.265625 -1.734375q-0.25 -0.34375 -1.0625 -0.453125l0 -0.484375l5.03125 0zm13.387436 -0.359375q0.90625 0 1.546875 0.640625q0.640625 0.640625 0.640625 1.546875q0 0.921875 -0.640625 1.5625q-0.640625 0.625 -1.546875 0.625q-0.921875 0 -1.5625 -0.625q-0.625 -0.640625 -0.625 -1.5625q0 -0.90625 0.625 -1.546875q0.640625 -0.640625 1.5625 -0.640625zm-0.015625 8.625q0.921875 0 1.5625 0.65625q0.640625 0.640625 0.640625 1.546875q0 0.90625 -0.65625 1.546875q-0.640625 0.640625 -1.546875 0.640625q-0.90625 0 -1.546875 -0.640625q-0.640625 -0.640625 -0.640625 -1.546875q0 -0.90625 0.640625 -1.546875q0.640625 -0.65625 1.546875 -0.65625z" fill-rule="nonzero"></path><path fill="#000000" fill-opacity="0.0" d="m381.30972 407.3071l284.53543 0l0 34.519684l-284.53543 0z" fill-rule="evenodd"></path><path fill="#000000" d="m472.5854 415.88568l0.140625 5.953125l-0.546875 0q-0.375 -2.234375 -1.875 -3.59375q-1.5 -1.375 -3.234375 -1.375q-1.34375 0 -2.125 0.71875q-0.78125 0.71875 -0.78125 1.65625q0 0.59375 0.265625 1.046875q0.390625 0.625 1.234375 1.234375q0.609375 0.4375 2.859375 1.546875q3.140625 1.53125 4.234375 2.90625q1.078125 1.375 1.078125 3.140625q0 2.234375 -1.75 3.859375q-1.75 1.609375 -4.4375 1.609375q-0.84375 0 -1.59375 -0.171875q-0.75 -0.171875 -1.890625 -0.640625q-0.625 -0.265625 -1.03125 -0.265625q-0.34375 0 -0.734375 0.265625q-0.375 0.265625 -0.609375 0.796875l-0.5 0l0 -6.75l0.5 0q0.578125 2.84375 2.234375 4.34375q1.65625 1.5 3.5625 1.5q1.46875 0 2.34375 -0.796875q0.890625 -0.8125 0.890625 -1.875q0 -0.640625 -0.34375 -1.234375q-0.328125 -0.59375 -1.015625 -1.125q-0.6875 -0.53125 -2.4375 -1.390625q-2.4375 -1.203125 -3.5 -2.046875q-1.0625 -0.84375 -1.640625 -1.875q-0.578125 -1.046875 -0.578125 -2.296875q0 -2.140625 1.5625 -3.640625q1.578125 -1.5 3.96875 -1.5q0.875 0 1.6875 0.203125q0.609375 0.15625 1.5 0.59375q0.890625 0.421875 1.25 0.421875q0.34375 0 0.53125 -0.203125q0.203125 -0.21875 0.375 -1.015625l0.40625 0zm13.481171 11.671875l-6.75 0q0.109375 2.453125 1.296875 3.875q0.90625 1.09375 2.1875 1.09375q0.796875 0 1.4375 -0.4375q0.65625 -0.4375 1.390625 -1.59375l0.4375 0.296875q-1.0 2.046875 -2.21875 2.90625q-1.203125 0.84375 -2.796875 0.84375q-2.734375 0 -4.15625 -2.109375q-1.125 -1.703125 -1.125 -4.21875q0 -3.09375 1.65625 -4.921875q1.671875 -1.828125 3.921875 -1.828125q1.859375 0 3.234375 1.546875q1.390625 1.53125 1.484375 4.546875zm-3.234375 -0.875q0 -2.125 -0.234375 -2.90625q-0.234375 -0.796875 -0.71875 -1.21875q-0.28125 -0.234375 -0.734375 -0.234375q-0.6875 0 -1.125 0.671875q-0.78125 1.171875 -0.78125 3.21875l0 0.46875l3.59375 0zm9.675079 -4.84375l0 1.59375q0.9375 -1.03125 1.8125 -1.5q0.875 -0.46875 1.875 -0.46875q1.203125 0 1.984375 0.671875q0.796875 0.671875 1.0625 1.65625q0.203125 0.75 0.203125 2.890625l0 4.796875q0 1.421875 0.25 1.78125q0.265625 0.34375 1.078125 0.4375l0 0.46875l-6.234375 0l0 -0.46875q0.703125 -0.09375 1.0 -0.59375q0.21875 -0.328125 0.21875 -1.625l0 -5.484375q0 -1.515625 -0.125 -1.90625q-0.109375 -0.40625 -0.40625 -0.625q-0.28125 -0.21875 -0.609375 -0.21875q-1.140625 0 -2.109375 1.625l0 6.609375q0 1.375 0.25 1.75q0.25 0.375 0.953125 0.46875l0 0.46875l-6.234375 0l0 -0.46875q0.78125 -0.078125 1.109375 -0.5q0.21875 -0.296875 0.21875 -1.71875l0 -6.96875q0 -1.390625 -0.265625 -1.734375q-0.25 -0.34375 -1.0625 -0.453125l0 -0.484375l5.03125 0zm17.574951 -0.34375l0.203125 4.203125l-0.453125 0q-0.8125305 -1.875 -1.6719055 -2.546875q-0.859375 -0.6875 -1.71875 -0.6875q-0.546875 0 -0.9375 0.359375q-0.375 0.359375 -0.375 0.84375q0 0.34375 0.265625 0.671875q0.421875 0.546875 2.359375 1.859375q1.9375305 1.3125 2.5469055 2.234375q0.625 0.90625 0.625 2.046875q0 1.03125 -0.515625 2.015625q-0.515625 0.984375 -1.4531555 1.515625q-0.9375 0.53125 -2.0625 0.53125q-0.890625 0 -2.359375 -0.5625q-0.40625 -0.140625 -0.546875 -0.140625q-0.4375 0 -0.71875 0.65625l-0.4375 0l-0.21875 -4.421875l0.453125 0q0.59375 1.734375 1.625 2.609375q1.03125 0.859375 1.96875 0.859375q0.625 0 1.015625 -0.375q0.40625 -0.390625 0.40625 -0.953125q0 -0.625 -0.390625 -1.078125q-0.390625 -0.46875 -1.765625 -1.40625q-2.015625 -1.40625 -2.609375 -2.140625q-0.875 -1.078125 -0.875 -2.390625q0 -1.421875 0.984375 -2.578125q0.984375 -1.15625 2.84375 -1.15625q1.0 0 1.9375 0.5q0.359375 0.1875 0.578125 0.1875q0.234375 0 0.375 -0.09375q0.15628052 -0.09375 0.46878052 -0.5625l0.453125 0zm5.54541 -5.625q0.859375 0 1.453125 0.609375q0.59375 0.59375 0.59375 1.4375q0 0.84375 -0.609375 1.4375q-0.59375 0.59375 -1.4375 0.59375q-0.84375 0 -1.4375 -0.59375q-0.59375 -0.59375 -0.59375 -1.4375q0 -0.84375 0.59375 -1.4375q0.59375 -0.609375 1.4375 -0.609375zm1.84375 5.96875l0 9.765625q0 1.3125 0.296875 1.671875q0.3125 0.359375 1.203125 0.421875l0 0.46875l-6.671875 0l0 -0.46875q0.828125 -0.03125 1.21875 -0.484375q0.265625 -0.296875 0.265625 -1.609375l0 -7.1875q0 -1.3125 -0.3125 -1.671875q-0.296875 -0.359375 -1.171875 -0.421875l0 -0.484375l5.171875 0zm7.48407 -4.5l0 4.5l2.9375 0l0 1.3125l-2.9375 0l0 7.59375q0 1.078125 0.09375 1.390625q0.109375 0.296875 0.359375 0.5q0.25 0.1875 0.453125 0.1875q0.859375 0 1.625 -1.3125l0.40625 0.296875q-1.078125 2.53125 -3.46875 2.53125q-1.171875 0 -1.984375 -0.65625q-0.8125 -0.65625 -1.046875 -1.453125q-0.125 -0.453125 -0.125 -2.421875l0 -6.65625l-1.609375 0l0 -0.46875q1.65625 -1.171875 2.828125 -2.453125q1.171875 -1.296875 2.03125 -2.890625l0.4375 0zm6.954895 -1.46875q0.859375 0 1.453125 0.609375q0.59375 0.59375 0.59375 1.4375q0 0.84375 -0.609375 1.4375q-0.59375 0.59375 -1.4375 0.59375q-0.84375 0 -1.4375 -0.59375q-0.59375 -0.59375 -0.59375 -1.4375q0 -0.84375 0.59375 -1.4375q0.59375 -0.609375 1.4375 -0.609375zm1.84375 5.96875l0 9.765625q0 1.3125 0.296875 1.671875q0.3125 0.359375 1.203125 0.421875l0 0.46875l-6.671875 0l0 -0.46875q0.828125 -0.03125 1.21875 -0.484375q0.265625 -0.296875 0.265625 -1.609375l0 -7.1875q0 -1.3125 -0.3125 -1.671875q-0.296875 -0.359375 -1.171875 -0.421875l0 -0.484375l5.171875 0zm8.155945 12.703125l-4.140625 -9.5625q-0.765625 -1.734375 -1.1875 -2.1875q-0.296875 -0.34375 -0.890625 -0.46875l0 -0.484375l6.546875 0l0 0.484375q-0.609375 0 -0.84375 0.234375q-0.3125 0.28125 -0.3125 0.6875q0 0.484375 0.578125 1.828125l2.03125 4.625l1.625 -4.0q0.703125 -1.703125 0.703125 -2.421875q0 -0.40625 -0.296875 -0.65625q-0.296875 -0.265625 -1.046875 -0.296875l0 -0.484375l4.03125 0l0 0.484375q-0.578125 0.078125 -0.953125 0.4375q-0.375 0.359375 -1.109375 2.09375l-4.109375 9.6875l-0.625 0zm10.734375 -18.671875q0.859375 0 1.453125 0.609375q0.59375 0.59375 0.59375 1.4375q0 0.84375 -0.609375 1.4375q-0.59375 0.59375 -1.4375 0.59375q-0.84375 0 -1.4375 -0.59375q-0.59375 -0.59375 -0.59375 -1.4375q0 -0.84375 0.59375 -1.4375q0.59375 -0.609375 1.4375 -0.609375zm1.84375 5.96875l0 9.765625q0 1.3125 0.296875 1.671875q0.3125 0.359375 1.203125 0.421875l0 0.46875l-6.671875 0l0 -0.46875q0.828125 -0.03125 1.21875 -0.484375q0.265625 -0.296875 0.265625 -1.609375l0 -7.1875q0 -1.3125 -0.3125 -1.671875q-0.296875 -0.359375 -1.171875 -0.421875l0 -0.484375l5.171875 0zm7.48407 -4.5l0 4.5l2.9375 0l0 1.3125l-2.9375 0l0 7.59375q0 1.078125 0.09375 1.390625q0.109375 0.296875 0.359375 0.5q0.25 0.1875 0.453125 0.1875q0.859375 0 1.625 -1.3125l0.40625 0.296875q-1.078125 2.53125 -3.46875 2.53125q-1.171875 0 -1.984375 -0.65625q-0.8125 -0.65625 -1.046875 -1.453125q-0.125 -0.453125 -0.125 -2.421875l0 -6.65625l-1.609375 0l0 -0.46875q1.65625 -1.171875 2.828125 -2.453125q1.171875 -1.296875 2.03125 -2.890625l0.4375 0zm9.642395 17.328125l-3.984375 -9.140625q-0.890625 -2.0625 -1.328125 -2.53125q-0.421875 -0.484375 -1.03125 -0.671875l0 -0.484375l6.5625 0l0 0.484375q-0.65625 0.03125 -0.921875 0.265625q-0.25 0.21875 -0.25 0.53125q0 0.5 0.65625 1.96875l2.109375 4.828125l1.4375 -3.71875q0.78125 -2.0 0.78125 -2.78125q0 -0.484375 -0.328125 -0.765625q-0.328125 -0.296875 -1.140625 -0.328125l0 -0.484375l4.125 0l0 0.484375q-0.609375 0.078125 -1.0 0.484375q-0.375 0.390625 -1.265625 2.71875l-3.515625 9.140625q-1.34375 3.421875 -1.984375 4.21875q-0.90625 1.109375 -2.28125 1.109375q-1.09375 0 -1.78125 -0.625q-0.671875 -0.625 -0.671875 -1.515625q0 -0.765625 0.46875 -1.265625q0.46875 -0.5 1.15625 -0.5q0.65625 0 1.0625 0.421875q0.40625 0.421875 0.40625 1.3125q0.015625 0.5 0.125 0.640625q0.109375 0.140625 0.296875 0.140625q0.328125 0 0.671875 -0.375q0.53125 -0.5625 1.25 -2.53125l0.375 -1.03125zm11.28125 -13.1875q0.90625 0 1.546875 0.640625q0.640625 0.640625 0.640625 1.546875q0 0.921875 -0.640625 1.5625q-0.640625 0.625 -1.546875 0.625q-0.921875 0 -1.5625 -0.625q-0.625 -0.640625 -0.625 -1.5625q0 -0.90625 0.625 -1.546875q0.640625 -0.640625 1.5625 -0.640625zm-0.015625 8.625q0.921875 0 1.5625 0.65625q0.640625 0.640625 0.640625 1.546875q0 0.90625 -0.65625 1.546875q-0.640625 0.640625 -1.546875 0.640625q-0.90625 0 -1.546875 -0.640625q-0.640625 -0.640625 -0.640625 -1.546875q0 -0.90625 0.640625 -1.546875q0.640625 -0.65625 1.546875 -0.65625z" fill-rule="nonzero"></path><path fill="#cfe2f3" d="m505.58105 545.72205l17.638367 0l0 -17.661499l0.7160034 0l0 17.661499l17.638367 0l0 0.7160034l-17.638367 0l0 17.661499l-0.7160034 0l0 -17.661499l-17.638367 0z" fill-rule="evenodd"></path><path stroke="#000000" stroke-width="1.0" stroke-linejoin="round" stroke-linecap="butt" d="m505.58105 545.72205l17.638367 0l0 -17.661499l0.7160034 0l0 17.661499l17.638367 0l0 0.7160034l-17.638367 0l0 17.661499l-0.7160034 0l0 -17.661499l-17.638367 0z" fill-rule="evenodd"></path></g></svg>

